<svg width="80" height="48" viewBox="0 0 80 48" version="1.1" xmlns="http://www.w3.org/2000/svg" xmlns:xlink="http://www.w3.org/1999/xlink">
<title>behance-2</title>
<desc>Created using Figma</desc>
<g id="Canvas" transform="matrix(2 0 0 2 5786 4642)">
<g id="behance-2">
<g id="Vector">
<use xlink:href="#path0_fill" transform="translate(-2893 -2321)" fill="#1769FF"/>
</g>
</g>
</g>
<defs>
<path id="path0_fill" d="M 11.8467 0C 13.0456 0 14.1385 0.100742 15.1258 0.302609C 16.1131 0.504285 16.9593 0.835132 17.6644 1.29401C 18.3694 1.75345 18.916 2.3642 19.3039 3.12626C 19.6917 3.88832 19.8857 4.82934 19.8857 5.94972C 19.8857 7.15996 19.5977 8.16834 19.0219 8.97485C 18.4457 9.78156 17.5939 10.4425 16.4657 10.958C 18.017 11.3839 19.1746 12.1294 19.9387 13.1933C 20.702 14.2579 21.0849 15.541 21.0849 17.0421C 21.0849 18.2521 20.8381 19.3 20.3442 20.1853C 19.8509 21.0708 19.1864 21.7934 18.3524 22.3528C 17.5178 22.9134 16.5658 23.3276 15.4965 23.597C 14.4204 23.8664 13.3123 24.0019 12.1998 24L 0 24L 0 0L 11.8467 0ZM 11.1417 9.71459C 12.1289 9.71459 12.9397 9.49059 13.5745 9.04221C 14.2092 8.59421 14.5264 7.86573 14.5264 6.85736C 14.5264 6.29736 14.4207 5.83772 14.2092 5.47921C 13.9976 5.12088 13.7156 4.84022 13.363 4.63892C 13.0103 4.43706 12.6049 4.29758 12.1466 4.21859C 11.6751 4.13923 11.1973 4.09989 10.7186 4.10106L 5.53561 4.10106L 5.53561 9.71478L 11.1417 9.71478L 11.1417 9.71459ZM 11.4589 19.8991C 11.9993 19.8991 12.5166 19.8486 13.0101 19.7478C 13.5037 19.6469 13.9384 19.4788 14.3148 19.2433C 14.6905 19.0085 14.9903 18.6889 15.2139 18.2853C 15.437 17.8822 15.5487 17.3668 15.5487 16.7391C 15.5487 15.5071 15.184 14.6275 14.4557 14.1007C 13.7268 13.5741 12.7632 13.3106 11.5646 13.3106L 5.53561 13.3106L 5.53561 19.8987L 11.4589 19.8991ZM 28.0511 19.395C 28.8032 20.0903 29.8846 20.437 31.2949 20.437C 32.3052 20.437 33.1752 20.1966 33.9037 19.7144C 34.6324 19.2332 35.0791 18.723 35.2436 18.185L 39.6509 18.185C 38.946 20.2689 37.8642 21.7594 36.4072 22.6554C 34.9494 23.552 33.1864 24 31.1182 24C 29.6844 24 28.3913 23.7815 27.2397 23.3444C 26.0877 22.9076 25.1121 22.2856 24.3135 21.4789C 23.5142 20.6724 22.8972 19.7095 22.4623 18.5885C 22.0272 17.4683 21.8102 16.2356 21.8102 14.891C 21.8102 13.5916 22.033 12.3816 22.4801 11.261C 22.9262 10.1408 23.5606 9.17157 24.3842 8.35323C 25.2063 7.53565 26.188 6.89132 27.3282 6.42061C 28.468 5.94991 29.7315 5.71484 31.1184 5.71484C 32.6699 5.71484 34.0212 6.00047 35.1734 6.57192C 36.3248 7.14317 37.271 7.91153 38.0117 8.8743C 38.7521 9.83803 39.2864 10.9363 39.6163 12.1683C 39.9453 13.401 40.0624 14.6893 39.9689 16.0339L 26.8174 16.0339C 26.8877 17.5797 27.2984 18.7007 28.0511 19.395ZM 33.71 10.2523C 33.1108 9.6251 32.1995 9.31104 30.9777 9.31104C 30.1784 9.31104 29.5145 9.44022 28.9857 9.69761C 28.4568 9.95576 28.0335 10.2744 27.7161 10.6556C 27.399 11.0368 27.1753 11.4404 27.0464 11.8657C 26.9169 12.2915 26.8405 12.6726 26.817 13.0086L 34.9617 13.0086C 34.7267 11.7983 34.3096 10.8798 33.71 10.2523ZM 25.9621 1.21864L 36.1383 1.21864L 36.1383 3.90854L 25.9621 3.90854L 25.9621 1.21864Z"/>
</defs>
</svg>
