<svg width="82" height="90" viewBox="0 0 82 90" version="1.1" xmlns="http://www.w3.org/2000/svg" xmlns:xlink="http://www.w3.org/1999/xlink">
<title>Group 19</title>
<desc>Created using Figma</desc>
<g id="Canvas" transform="matrix(2 0 0 2 7526 5396)">
<g id="Group 19">
<g id="Group 13.1">
<g id="Union">
<use xlink:href="#path0_fill" transform="translate(-3763 -2698)" fill="#2377FE"/>
</g>
<g id="Vector 2">
<use xlink:href="#path1_fill" transform="translate(-3742.59 -2694.82)" fill="#3399FE"/>
</g>
</g>
<g id="CSS">
<use xlink:href="#path2_fill" transform="translate(-3752.48 -2680.85)" fill="#FFFFFF"/>
<use xlink:href="#path3_fill" transform="translate(-3752.48 -2680.85)" fill="#FFFFFF"/>
<use xlink:href="#path4_fill" transform="translate(-3752.48 -2680.85)" fill="#FFFFFF"/>
</g>
</g>
</g>
<defs>
<path id="path0_fill" fill-rule="evenodd" d="M 0.202684 2.18475C 0.0939085 1.01225 1.0166 0 2.19413 0L 20.407 0L 38.6198 0C 39.7974 0 40.72 1.01225 40.6113 2.18475L 37.1889 39.0747C 37.1119 39.9047 36.5282 40.5999 35.7241 40.8194L 20.9336 44.8563C 20.5888 44.9504 20.2251 44.9504 19.8804 44.8563L 5.08988 40.8194C 4.28574 40.5999 3.70204 39.9047 3.62504 39.0747L 0.202684 2.18475Z"/>
<path id="path1_fill" d="M 0 35.5693L 0 2C 0 0.895431 0.895431 0 2 0L 14.4998 0C 15.6783 0 16.6013 1.01382 16.4911 2.18713L 13.5799 33.164C 13.5018 33.9948 12.9161 34.6898 12.1106 34.9076L 2.52198 37.5C 1.2507 37.8437 0 36.8862 0 35.5693Z"/>
<path id="path2_fill" d="M 4.79693 4.07447L 6.64765 4.62261C 6.52333 5.13115 6.32754 5.55596 6.06027 5.89702C 5.79299 6.23808 5.46045 6.4954 5.06265 6.66898C 4.66796 6.84255 4.16449 6.92934 3.55225 6.92934C 2.80948 6.92934 2.2019 6.82428 1.72951 6.61416C 1.26022 6.401 0.854653 6.02796 0.512792 5.49505C 0.170931 4.96214 0 4.28002 0 3.44868C 0 2.34023 0.299905 1.4891 0.899716 0.895287C 1.50264 0.298429 2.35418 0 3.45435 0C 4.31522 0 4.99117 0.170531 5.48221 0.511593C 5.97635 0.852654 6.34308 1.37643 6.58238 2.08291L 4.71768 2.48945C 4.65242 2.28542 4.58405 2.1362 4.51257 2.0418C 4.39447 1.88345 4.24996 1.76165 4.07903 1.67638C 3.90809 1.59111 3.71696 1.54848 3.50563 1.54848C 3.02703 1.54848 2.6603 1.73728 2.40546 2.11489C 2.21277 2.39505 2.11643 2.83508 2.11643 3.43498C 2.11643 4.17801 2.23142 4.68808 2.4614 4.96519C 2.69138 5.23926 3.01459 5.37629 3.43104 5.37629C 3.83506 5.37629 4.13963 5.26514 4.34474 5.04284C 4.55297 4.82054 4.7037 4.49775 4.79693 4.07447Z"/>
<path id="path3_fill" d="M 7.30961 4.5952L 9.31882 4.47187C 9.36233 4.79161 9.45091 5.03523 9.58454 5.20271C 9.80209 5.47374 10.1129 5.60925 10.5169 5.60925C 10.8184 5.60925 11.0499 5.54073 11.2115 5.4037C 11.3762 5.26362 11.4586 5.10222 11.4586 4.91951C 11.4586 4.74594 11.3809 4.59063 11.2255 4.4536C 11.0701 4.31656 10.7096 4.18714 10.144 4.06533C 9.21782 3.86131 8.55741 3.59028 8.16271 3.25227C 7.76491 2.91425 7.56601 2.48336 7.56601 1.95958C 7.56601 1.61548 7.66701 1.29116 7.86902 0.986643C 8.07414 0.679078 8.38026 0.438508 8.78739 0.264932C 9.19762 0.0883106 9.75858 0 10.4703 0C 11.3436 0 12.0086 0.159873 12.4655 0.479618C 12.9255 0.796318 13.1989 1.30182 13.286 1.99613L 11.2954 2.11032C 11.2426 1.80885 11.1307 1.58959 10.9598 1.45256C 10.7919 1.31552 10.5588 1.24701 10.2605 1.24701C 10.015 1.24701 9.83006 1.29878 9.70575 1.40231C 9.58144 1.5028 9.51928 1.62613 9.51928 1.7723C 9.51928 1.87889 9.57056 1.97481 9.67312 2.06007C 9.77257 2.14838 10.0088 2.23061 10.3817 2.30674C 11.3047 2.50163 11.9651 2.69956 12.3629 2.90055C 12.7639 3.09849 13.0544 3.34515 13.2347 3.64053C 13.4181 3.93591 13.5097 4.26632 13.5097 4.63174C 13.5097 5.06111 13.3885 5.45699 13.1461 5.81937C 12.9037 6.18175 12.565 6.45733 12.1299 6.64614C 11.6948 6.83189 11.1462 6.92477 10.4843 6.92477C 9.32193 6.92477 8.517 6.70552 8.06948 6.26701C 7.62195 5.8285 7.36866 5.27123 7.30961 4.5952Z"/>
<path id="path4_fill" d="M 14.209 4.5952L 16.2182 4.47187C 16.2617 4.79161 16.3503 5.03523 16.4839 5.20271C 16.7015 5.47374 17.0123 5.60925 17.4163 5.60925C 17.7177 5.60925 17.9493 5.54073 18.1109 5.4037C 18.2756 5.26362 18.3579 5.10222 18.3579 4.91951C 18.3579 4.74594 18.2802 4.59063 18.1249 4.4536C 17.9695 4.31656 17.609 4.18714 17.0433 4.06533C 16.1172 3.86131 15.4568 3.59028 15.0621 3.25227C 14.6643 2.91425 14.4654 2.48336 14.4654 1.95958C 14.4654 1.61548 14.5664 1.29116 14.7684 0.986643C 14.9735 0.679078 15.2796 0.438508 15.6868 0.264932C 16.097 0.0883106 16.658 0 17.3697 0C 18.243 0 18.908 0.159873 19.3649 0.479618C 19.8248 0.796318 20.0983 1.30182 20.1853 1.99613L 18.1948 2.11032C 18.142 1.80885 18.0301 1.58959 17.8591 1.45256C 17.6913 1.31552 17.4582 1.24701 17.1599 1.24701C 16.9144 1.24701 16.7294 1.29878 16.6051 1.40231C 16.4808 1.5028 16.4187 1.62613 16.4187 1.7723C 16.4187 1.87889 16.4699 1.97481 16.5725 2.06007C 16.6719 2.14838 16.9081 2.23061 17.2811 2.30674C 18.2041 2.50163 18.8645 2.69956 19.2623 2.90055C 19.6632 3.09849 19.9538 3.34515 20.1341 3.64053C 20.3174 3.93591 20.4091 4.26632 20.4091 4.63174C 20.4091 5.06111 20.2879 5.45699 20.0455 5.81937C 19.8031 6.18175 19.4643 6.45733 19.0292 6.64614C 18.5941 6.83189 18.0456 6.92477 17.3836 6.92477C 16.2213 6.92477 15.4164 6.70552 14.9689 6.26701C 14.5213 5.8285 14.268 5.27123 14.209 4.5952Z"/>
</defs>
</svg>
