<svg width="76" height="74" viewBox="0 0 76 74" version="1.1" xmlns="http://www.w3.org/2000/svg" xmlns:xlink="http://www.w3.org/1999/xlink">
<title>adobe-illustrator-cc</title>
<desc>Created using Figma</desc>
<g id="Canvas" transform="matrix(2 0 0 2 5544 5388)">
<g id="adobe-illustrator-cc">
<g id="Vector">
<use xlink:href="#path0_fill" transform="translate(-2770.42 -2692.42)" fill="url(#paint0_radial)"/>
</g>
<g id="Vector">
<use xlink:href="#path1_fill" transform="translate(-2772 -2694)" fill="#FF7F18"/>
</g>
</g>
</g>
<defs>
<radialGradient id="paint0_radial" cx="0.5" cy="0.5" r="0.5" gradientUnits="userSpaceOnUse" gradientTransform="matrix(52.9094 0 0 51.1928 -14.9904 -18.0133)">
<stop offset="0" stop-color="#423325" stop-opacity="0.98"/>
<stop offset="1" stop-color="#1C0A00"/>
</radialGradient>
<path id="path0_fill" d="M -3.21211e-08 -2.56802e-07L 34.8088 -2.56802e-07L 34.8088 33.8376L -3.21211e-08 33.8376L -3.21211e-08 -2.56802e-07Z"/>
<path id="path1_fill" d="M 1.5822 1.58117L 36.391 1.58117L 36.391 35.4188L 1.5822 35.4188L 1.5822 1.58117ZM 0 37L 37.9732 37L 37.9732 1.40074e-07L 0 1.40074e-07L 0 37ZM 24.8724 13.1872C 24.8724 13.0607 24.9199 12.9974 25.0623 12.9974L 27.5464 12.9974C 27.6729 12.9974 27.7362 13.0448 27.7362 13.1872L 27.7362 25.6628C 27.7362 25.7892 27.7046 25.8526 27.5464 25.8526L 25.094 25.8526C 24.9358 25.8526 24.8882 25.7735 24.8882 25.647L 24.8882 13.1872L 24.8724 13.1872ZM 24.6984 9.59783C 24.6984 8.58588 25.4104 7.98504 26.3123 7.98504C 27.2775 7.98504 27.9261 8.63331 27.9261 9.59783C 27.9261 10.6414 27.2458 11.2106 26.2807 11.2106C 25.3629 11.2107 24.6984 10.6414 24.6984 9.59783ZM 17.5784 18.3893C 17.1355 16.6342 16.0912 12.8077 15.6956 10.9577L 15.6639 10.9577C 15.3317 12.8077 14.4931 15.9384 13.8286 18.3893L 17.5784 18.3893ZM 13.1799 20.9509L 11.9299 25.6945C 11.8983 25.8209 11.8508 25.8525 11.6926 25.8525L 9.36674 25.8525C 9.20854 25.8525 9.17684 25.8051 9.20854 25.6153L 13.702 9.89822C 13.7811 9.61364 13.8286 9.36062 13.8602 8.58588C 13.8602 8.47521 13.9077 8.42778 13.9868 8.42778L 17.3094 8.42778C 17.4202 8.42778 17.4676 8.4594 17.4993 8.58588L 22.5307 25.647C 22.5624 25.7734 22.5307 25.8525 22.4042 25.8525L 19.7777 25.8525C 19.6511 25.8525 19.5719 25.8209 19.5404 25.7103L 18.2429 20.9509L 13.1799 20.9509Z"/>
</defs>
</svg>
