<svg width="78" height="78" viewBox="0 0 78 78" version="1.1" xmlns="http://www.w3.org/2000/svg" xmlns:xlink="http://www.w3.org/1999/xlink">
<title>javascript</title>
<desc>Created using Figma</desc>
<g id="Canvas" transform="matrix(2 0 0 2 7164 5390)">
<g id="javascript">
<g id="Vector">
<use xlink:href="#path0_fill" transform="translate(-3582 -2695)" fill="#F7DF1E"/>
</g>
<g id="Vector">
<use xlink:href="#path1_fill" transform="translate(-3571.75 -2677.3)"/>
</g>
</g>
</g>
<defs>
<path id="path0_fill" d="M 0 0L 39 0L 39 39L 0 39L 0 0Z"/>
<path id="path1_fill" d="M 0.000151804 14.896L 2.98457 13.0898C 3.56043 14.1107 4.08418 14.9745 5.34056 14.9745C 6.54484 14.9745 7.30427 14.5034 7.30427 12.671L 7.30427 0.209625L 10.9692 0.209625L 10.9692 12.7228C 10.9692 16.5188 8.74407 18.2467 5.49763 18.2467C 2.56577 18.2467 0.863941 16.7283 -4.55618e-07 14.8957L 0.000151804 14.896ZM 12.9599 14.5033L 15.944 12.7755C 16.7296 14.0584 17.7506 15.0008 19.5568 15.0008C 21.0755 15.0008 22.0438 14.2416 22.0438 13.1943C 22.0438 11.9378 21.049 11.4927 19.3736 10.7599L 18.4575 10.3668C 15.8133 9.24148 14.0593 7.82773 14.0593 4.84331C 14.0593 2.09442 16.1536 -1.85966e-08 19.4261 -1.85966e-08C 21.7561 -1.85966e-08 23.4315 0.811687 24.6357 2.93216L 21.782 4.76485C 21.1535 3.63919 20.4732 3.19419 19.426 3.19419C 18.3525 3.19419 17.6719 3.87486 17.6719 4.76485C 17.6719 5.86432 18.3525 6.30962 19.9232 6.99029L 20.8394 7.38288C 23.9548 8.71818 25.7088 10.0794 25.7088 13.1421C 25.7088 16.4409 23.1171 18.2471 19.6353 18.2471C 16.2321 18.2471 14.033 16.6241 12.9597 14.5034"/>
</defs>
</svg>
