<svg width="96" height="96" viewBox="0 0 96 96" version="1.1" xmlns="http://www.w3.org/2000/svg" xmlns:xlink="http://www.w3.org/1999/xlink">
<title>Group</title>
<desc>Created using Figma</desc>
<g id="Canvas" transform="matrix(2 0 0 2 6994 5398)">
<g id="Group">
<g id="Group 2">
<g id="Vector">
<use xlink:href="#path0_fill" transform="translate(-3457.76 -2663.35)" fill="#1A1918"/>
</g>
<g id="Vector">
<use xlink:href="#path1_fill" transform="translate(-3497 -2664.33)" fill="#1A1918"/>
</g>
</g>
<g id="Group">
<g id="Vector">
<use xlink:href="#path2_fill" transform="translate(-3489 -2694.25)" fill="#21609B"/>
</g>
<g id="Vector">
<use xlink:href="#path3_fill" transform="translate(-3479.59 -2697.5)" fill="#21609B"/>
</g>
<g id="Vector">
<use xlink:href="#path4_fill" transform="translate(-3471.36 -2699)" fill="#21609B"/>
</g>
</g>
</g>
</g>
<defs>
<path id="path0_fill" fill-rule="evenodd" d="M 6.25919 -1.05292e-08L 8.75975 0.0135708C 8.75975 0.0135708 4.11073 6.21979 3.7311 6.72559C 3.60782 6.88936 3.42057 7.06601 3.32555 7.28498C 3.08541 7.8354 2.83886 9.04286 2.83886 9.04286L 0.550892 9.05413C 0.550892 9.05413 0.906944 7.7955 0.892235 7.12512C 0.879394 6.53951 0.575872 5.95458 0.405667 5.36725C 0.233593 4.77266 1.53904e-06 3.60925 1.53904e-06 3.60925L 2.35229 3.60925L 2.67671 4.88778L 6.25919 -1.05292e-08Z"/>
<path id="path1_fill" fill-rule="evenodd" d="M 40.5308 2.29429C 40.9923 2.56835 41.2755 4.08023 41.2755 4.08023C 41.2755 4.08023 38.8609 4.1153 37.5469 4.1153L 36.4114 4.1153L 35.0324 10.0283L 32.9237 10.0283C 32.9237 10.0283 34.236 3.60237 34.5459 2.43736C 34.6463 2.06013 35.2337 2.12488 36.2256 2.12488L 37.8097 2.12488C 38.8325 2.12488 40.0281 1.99619 40.5308 2.29429ZM 30.7134 5.17405C 30.7134 5.17405 30.7792 4.79453 30.4905 4.35498C 30.2438 3.98029 30.0161 3.89311 29.3671 3.8731C 27.5349 3.8164 27.5705 5.15404 27.5705 5.15404L 30.7134 5.17405ZM 32.7006 3.64217C 32.9691 4.59638 32.4573 6.83843 32.4573 6.83843C 32.4573 6.83843 29.7847 6.7945 28.3208 6.83843C 27.8656 6.85212 27.3208 6.78967 27.1852 6.99829C 26.9946 7.29064 27.2549 7.74066 27.4756 7.93076C 27.7295 8.14962 28.2241 8.17458 28.4019 8.19677C 29.5901 8.34548 32.0768 8.23519 32.0768 8.23519L 31.6461 10.1144C 31.6461 10.1144 28.1319 10.2881 26.3741 9.87472C 26.0271 9.7933 25.7017 9.62872 25.4819 9.39537C 25.4219 9.33154 25.3698 9.24448 25.3131 9.16927C 25.2678 9.10924 25.1357 8.912 25.0764 8.75605C 24.6749 7.70213 25.1234 5.68307 25.563 4.60109C 25.6141 4.47573 25.6781 4.31668 25.7456 4.18155C 25.8299 4.01306 25.9012 3.82284 25.9686 3.7221C 26.0139 3.65263 26.07 3.60789 26.1171 3.54234C 26.1714 3.46483 26.2345 3.38973 26.293 3.32268C 26.4553 3.13729 26.6394 3.00618 26.8608 2.84333C 27.5931 2.30303 28.9185 1.8836 30.5107 2.04415C 31.1101 2.10487 32.0154 2.31579 32.4573 2.92314C 32.5757 3.0853 32.6342 3.40732 32.7006 3.64228L 32.7006 3.64217ZM 23.0284 2.11752L 25.0732 2.10568C 25.0732 2.10568 23.9336 7.43129 23.3528 10.0283L 21.0005 10.0283C 19.3566 10.0283 17.8926 10.2288 17.2697 9.06933C 16.6654 7.94353 17.2421 6.09215 17.513 4.83432C 17.7044 3.94417 18.1076 2.12477 18.1076 2.12477L 20.2262 2.10568C 20.2262 2.10568 19.6276 4.93829 19.3784 6.35264C 19.2893 6.85925 19.1053 7.33629 19.2974 7.71087C 19.4799 8.06739 19.7354 8.09292 20.514 8.11052C 20.7606 8.11627 21.5685 8.11052 21.5685 8.11052L 23.0284 2.11752ZM 13.4576 5.95299C 13.6717 5.20361 13.9839 4.39097 13.9442 3.71566C 13.9013 2.99341 13.2865 2.33581 12.8899 2.19757C 11.6951 1.78205 10.5767 2.36295 10.1321 2.83677C 9.55707 3.45045 9.36235 4.16729 9.15876 5.15416C 9.00723 5.88675 8.88302 6.66017 9.15876 7.23152C 9.64696 8.24163 11.1695 8.02104 12.8087 8.0307C 13.052 7.38828 13.2531 6.66673 13.4576 5.95299ZM 16.2964 2.99663C 16.5299 4.66975 15.6338 6.51653 15.0165 8.12248C 15.6459 8.17849 16.1975 8.11385 16.2372 8.16009C 16.2786 8.22001 15.8153 10.077 15.6539 10.0818C 15.1544 10.0946 13.499 10.1082 12.8087 10.1082C 10.5562 10.1082 8.4491 10.2527 7.37452 9.14937C 6.93815 8.70108 6.63638 7.93226 6.5633 7.39138C 6.44166 6.48847 6.59412 5.49435 6.8067 4.6747C 6.99897 3.93463 7.24541 3.23631 7.6178 2.59699C 8.56432 0.969411 10.2108 -0.238734 12.9709 0.0401572C 13.5062 0.0944404 14.2751 0.325374 14.7553 0.599435C 14.7885 0.618641 14.9047 0.709726 14.9313 0.725712C 15.5802 1.13249 16.1715 2.10326 16.2964 2.99663ZM 6.33052 2.12718C 6.19429 2.73844 6.05805 3.43136 5.91446 4.03537L 3.64342 4.03537C 3.81935 3.3658 3.95407 2.70015 4.13011 2.11764C 4.85681 2.11764 5.5325 2.12718 6.33064 2.12718L 6.33052 2.12718ZM 3.56229 4.59477L 5.75232 4.59477C 5.46595 6.1561 4.89895 8.67463 4.45453 10.4278C 4.17634 11.525 3.99061 12.3255 3.23787 12.9048C 3.17052 12.9568 3.13164 12.9321 3.07561 12.9847C 2.93692 13.115 2.29532 13.2662 1.9402 13.3043C 1.36269 13.366 0.709773 13.3124 -4.27511e-07 13.298C 0.185731 12.6292 0.395862 11.8262 0.561398 11.2267C 2.29147 11.4331 2.33525 9.82205 2.67017 8.27038C 2.86396 7.37379 3.45127 4.95428 3.56229 4.59477Z"/>
<path id="path2_fill" fill-rule="evenodd" d="M 31.2569 18.3402L 31.1137 18.7045C 28.673 23.3686 24.348 26.2299 18.179 26.3561C 15.2952 26.4145 12.5474 25.6884 10.7524 24.8989C 6.87875 23.1909 3.62042 20.0237 1.84108 16.6396C -0.71143 11.7885 -1.17176 5.04026 4.13563 -2.02727e-07C 4.21757 -2.02727e-07 3.4918 1.09294 3.57375 1.09294L 3.42766 1.55935C -0.39682 13.309 11.3863 23.3784 22.8405 22.2267C 25.5932 21.9498 29.1034 20.4705 31.2569 18.3402Z"/>
<path id="path3_fill" fill-rule="evenodd" d="M 14.9135 16.7322C 17.7952 16.7515 20.8052 15.4299 22.5877 13.5744C 21.0282 17.4588 16.5129 19.9555 10.458 19.1615C 5.38789 18.4958 0.558292 13.4894 0.0609022 8.47293C -0.302876 4.8221 0.993685 2.6432 3.13039 0C 2.38787 1.38244 2.11032 2.44846 2.0412 3.12849C 1.22955 11.0259 8.47021 16.6906 14.9135 16.7322Z"/>
<path id="path4_fill" fill-rule="evenodd" d="M 14.0735 8.42433C 13.6257 9.43266 11.0464 11.3367 9.90735 11.5748C 5.39699 12.5178 2.5085 10.419 0.995306 8.03065C 0.770483 7.67403 0.354685 6.69996 0.280219 6.45207C -0.306601 4.49414 -0.0368839 1.53278 1.7136 -6.40191e-08C 1.18628 1.45761 1.10932 3.15052 1.38688 4.25115C 1.55505 4.9165 2.0674 6.07832 2.58011 6.80904C 3.5129 8.14008 4.1047 8.46349 5.30293 9.17044C 5.84272 9.48861 6.4217 9.74384 6.67182 9.81376C 7.80805 10.1421 10.207 11.0067 14.0739 8.42433"/>
</defs>
</svg>
