<svg width="104" height="70" viewBox="0 0 104 70" version="1.1" xmlns="http://www.w3.org/2000/svg" xmlns:xlink="http://www.w3.org/1999/xlink">
<title>laravel-1</title>
<desc>Created using Figma</desc>
<g id="Canvas" transform="matrix(2 0 0 2 6820 5386)">
<g id="laravel-1">
<g id="Vector">
<use xlink:href="#path0_fill" transform="translate(-3410 -2693)" fill="#FB503B"/>
</g>
</g>
</g>
<defs>
<path id="path0_fill" d="M 50.854 16.3535C 50.4899 15.989 45.8168 10.0952 45.0278 9.12302C 44.1782 8.15086 43.8141 8.33314 43.2679 8.3939C 42.7217 8.45466 36.8348 9.48759 36.1673 9.54835C 35.4997 9.66987 35.0748 9.91291 35.4997 10.5205C 35.8638 11.0674 39.7479 16.5358 40.5975 17.8118L 25.1218 21.5182L 12.8627 0.920348C 12.3772 0.191221 12.2558 -0.051821 11.1634 0.00893955C 10.071 0.0697001 1.51382 0.798827 0.906925 0.798827C 0.300035 0.859587 -0.367545 1.10263 0.239346 2.56088C 0.846236 4.01914 10.5565 24.9208 10.7992 25.5284C 11.042 26.136 11.7703 27.1082 13.4089 26.7436C 15.1082 26.3183 20.9343 24.7993 24.1508 23.9486C 25.8501 26.9866 29.2487 33.1842 29.9163 34.0956C 30.7659 35.3108 31.3728 35.0678 32.6473 34.7032C 33.679 34.3994 48.5478 29.0525 49.2154 28.7487C 49.883 28.4449 50.3078 28.2626 49.8223 27.5942C 49.4581 27.1082 45.574 21.822 43.5106 19.0878C 44.9065 18.7232 49.9437 17.3865 50.4899 17.2042C 51.0967 17.0219 51.2181 16.7181 50.854 16.3535ZM 22.755 22.1258C 22.5729 22.1865 13.8944 24.2524 13.4696 24.3739C 12.984 24.4954 12.984 24.4347 12.984 24.2524C 12.8627 24.0701 2.66691 2.92545 2.48484 2.6824C 2.36346 2.43936 2.36346 2.19632 2.48484 2.19632C 2.60622 2.19632 10.6779 1.46719 10.9206 1.46719C 11.2241 1.46719 11.1634 1.52795 11.2847 1.71024C 11.2847 1.71024 22.6336 21.3359 22.8157 21.6397C 23.0584 21.9435 22.937 22.065 22.755 22.1258ZM 47.152 26.6828C 47.2733 26.9259 47.4554 27.0474 46.9699 27.1689C 46.5451 27.3512 32.3438 32.1513 32.0404 32.2728C 31.737 32.3943 31.5549 32.4551 31.1908 31.9082C 30.8266 31.3614 26.2143 23.4018 26.2143 23.4018L 41.3258 19.4523C 41.6899 19.3308 41.8113 19.27 42.0541 19.6346C 42.2968 20.0599 47.0306 26.5005 47.152 26.6828ZM 48.123 15.989C 47.7589 16.0497 42.2362 17.4472 42.2362 17.4472L 37.6845 11.2496C 37.5631 11.0674 37.4417 10.8851 37.7452 10.8243C 38.0486 10.7636 43.2072 9.85215 43.4499 9.79139C 43.6927 9.73063 43.8748 9.66987 44.1782 10.0952C 44.4816 10.4598 48.3657 15.4421 48.5478 15.6244C 48.7299 15.8067 48.4871 15.9282 48.123 15.989Z"/>
</defs>
</svg>
