<svg width="148" height="40" viewBox="0 0 148 40" version="1.1" xmlns="http://www.w3.org/2000/svg" xmlns:xlink="http://www.w3.org/1999/xlink">
<title>mongodb</title>
<desc>Created using Figma</desc>
<g id="Canvas" transform="matrix(2 0 0 2 6478 5370)">
<g id="mongodb">
<g id="Group">
<g id="Vector">
<use xlink:href="#path0_fill" transform="translate(-3184.24 -2677.43)" fill="#8E714E"/>
</g>
<g id="Vector">
<use xlink:href="#path1_fill" transform="translate(-3227.15 -2674.49)" fill="#442D22"/>
</g>
<g id="Vector">
<use xlink:href="#path2_fill" transform="translate(-3235.67 -2682.55)" fill="#FFFFFF"/>
</g>
<g id="Vector">
<use xlink:href="#path2_fill" transform="translate(-3235.67 -2682.55)" fill="#A6A385"/>
</g>
<g id="Vector">
<use xlink:href="#path3_fill" transform="translate(-3234.52 -2684.95)" fill="#FFFFFF"/>
</g>
<g id="Vector">
<use xlink:href="#path3_fill" transform="translate(-3234.52 -2684.95)" fill="#499D4A"/>
</g>
<g id="Vector">
<use xlink:href="#path4_fill" transform="translate(-3239 -2685)" fill="#FFFFFF"/>
</g>
<g id="Vector">
<use xlink:href="#path4_fill" transform="translate(-3239 -2685)" fill="#58AA50"/>
</g>
</g>
</g>
</g>
<defs>
<path id="path0_fill" fill-rule="evenodd" d="M 13.5974 0.696712C 13.5314 0.70934 13.4652 0.848655 13.4652 0.924557C 13.452 1.43131 13.4388 2.77395 13.4388 3.68588C 13.4388 3.71127 13.4783 3.76192 13.5181 3.76192C 13.7165 3.77454 14.1929 3.78717 14.6031 3.78717C 15.1721 3.78717 15.5029 3.71127 15.6883 3.63537C 16.1645 3.40725 16.3895 2.91326 16.3895 2.36849C 16.3895 1.14005 15.4897 0.67132 14.1532 0.67132C 14.0605 0.658692 13.7961 0.658692 13.5974 0.696712ZM 17.0116 6.35853C 17.0116 5.10455 16.0455 4.40784 14.2988 4.40784C 14.2194 4.40784 13.6636 4.39522 13.5313 4.42047C 13.4915 4.43324 13.4388 4.45863 13.4388 4.49665C 13.4388 5.39581 13.4254 6.82726 13.4652 7.38452C 13.4915 7.62513 13.6769 7.96717 13.9019 8.06846C 14.14 8.19515 14.6826 8.22041 15.0531 8.22041C 16.0984 8.22041 17.0116 7.66315 17.0116 6.35853ZM 10.8981 0.000137323C 11.0303 0.000137323 11.4272 0.0380201 12.4462 0.0380201C 13.4122 0.0380201 14.1797 0.0127648 15.1192 0.0127648C 16.2704 0.0127648 17.8583 0.405317 17.8583 2.05198C 17.8583 2.86261 17.2628 3.50868 16.4822 3.82533C 16.4426 3.83796 16.4426 3.86321 16.4822 3.87584C 17.5936 4.14198 18.573 4.80053 18.573 6.04174C 18.573 7.25783 17.779 8.03044 16.6277 8.5118C 15.9264 8.80306 15.0531 8.90435 14.1665 8.90435C 13.4915 8.90435 11.6788 8.82845 10.6731 8.85384C 10.5673 8.81569 10.7658 8.35972 10.8583 8.28382C 11.0966 8.27105 11.2817 8.25843 11.5332 8.18239C 11.8905 8.09386 11.9301 7.99242 11.983 7.47318C 12.0096 7.02985 12.0096 5.45909 12.0096 4.34457C 12.0096 2.81197 12.0229 1.77335 12.0096 1.26674C 11.9964 0.874184 11.8508 0.74736 11.5597 0.67132C 11.3346 0.633437 10.9642 0.582652 10.6598 0.544769C 10.5935 0.481357 10.8185 0.0506476 10.8981 0.000137323ZM 3.26268 7.8785C 3.58044 8.11897 4.20234 8.22027 4.75814 8.22027C 5.47267 8.22027 6.1872 8.09385 6.87535 7.4983C 7.57669 6.89053 8.06624 5.95321 8.06624 4.45863C 8.06624 3.02718 7.49725 1.86188 6.33274 1.17807C 5.67113 0.785242 4.82424 0.620809 3.84501 0.620809C 3.55392 0.620809 3.27602 0.633437 3.10409 0.70934C 3.06423 0.734732 2.97174 0.848654 2.97174 0.911929C 2.94521 1.1653 2.94521 3.11585 2.94521 4.2559C 2.94521 5.43383 2.94521 7.08049 2.97174 7.27046C 2.97174 7.46056 3.06423 7.75181 3.26283 7.8785L 3.26268 7.8785ZM 0.258869 1.42417e-07C 0.510382 1.42417e-07 1.47628 0.0380201 1.93944 0.0380201C 2.77328 0.0380201 3.36865 0.000137323 4.94326 0.000137323C 6.2665 0.000137323 7.37809 0.342042 8.17206 0.987969C 9.13796 1.78598 9.64098 2.88801 9.64098 4.23051C 9.64098 6.14317 8.72785 7.2452 7.81472 7.8785C 6.90187 8.52443 5.71085 8.90435 4.01708 8.90435C 3.11728 8.90435 1.56906 8.8791 0.285396 8.86633L 0.272207 8.86633C 0.206103 8.75241 0.378029 8.30907 0.483854 8.29645C 0.827999 8.25843 0.920632 8.24566 1.0927 8.18252C 1.37046 8.08109 1.42352 7.94178 1.46324 7.47318C 1.50281 6.59914 1.48962 5.54789 1.48962 4.3572C 1.48962 3.50868 1.50281 1.84925 1.47629 1.31725C 1.43671 0.874047 1.23825 0.759987 0.841192 0.683947C 0.642735 0.646064 0.378032 0.59528 0.00764535 0.557397C -0.0454104 0.468593 0.192764 0.0760399 0.258869 0.000137323L 0.258869 1.42417e-07Z"/>
<path id="path1_fill" fill-rule="evenodd" d="M 27.1548 5.4337C 26.824 5.39568 26.5858 5.34517 26.2947 5.21848C 26.255 5.19309 26.1887 5.06653 26.1887 5.01575C 26.1623 4.57241 26.1623 3.30581 26.1623 2.4573C 26.1623 1.77321 26.0433 1.17793 25.7389 0.759987C 25.3816 0.278493 24.8656 -4.02118e-07 24.2039 -4.02118e-07C 23.6217 -4.02118e-07 22.8409 0.379925 22.1925 0.91193C 22.1793 0.924558 22.0735 1.01336 22.0867 0.87391C 22.0867 0.734595 22.1132 0.455965 22.1264 0.265865C 22.1397 0.0885304 22.0337 -4.02118e-07 22.0337 -4.02118e-07C 21.6103 0.20259 20.4194 0.468592 19.9826 0.506475C 19.6652 0.570025 19.5857 0.861282 19.9167 0.962577L 19.9299 0.962577C 20.2869 1.06387 20.5252 1.17793 20.7104 1.29199C 20.8427 1.39329 20.8295 1.5326 20.8295 1.64666C 20.8427 2.59647 20.8427 4.05317 20.8031 4.85118C 20.7899 5.16783 20.6973 5.28175 20.459 5.3324L 20.4855 5.31977C 20.3003 5.35779 20.1547 5.39568 19.9297 5.42107C 19.8503 5.49711 19.8503 5.90243 19.9297 5.99109C 20.0753 5.99109 20.8427 5.95307 21.4781 5.95307C 22.3514 5.95307 22.8013 5.99109 23.0262 5.99109C 23.1188 5.8898 23.1453 5.50974 23.0924 5.42107C 22.8409 5.40844 22.6556 5.38319 22.4837 5.3324C 22.2455 5.28162 22.1793 5.16783 22.166 4.90183C 22.1397 4.23037 22.1397 2.81183 22.1397 1.84925C 22.1397 1.58325 22.219 1.45656 22.2983 1.38052C 22.6027 1.12729 23.0924 0.94995 23.5291 0.94995C 23.9525 0.94995 24.2303 1.07664 24.442 1.24134C 24.7331 1.46919 24.8258 1.7986 24.8655 2.03921C 24.9316 2.58385 24.9052 3.66048 24.9052 4.59781C 24.9052 5.10442 24.8655 5.23111 24.6672 5.29438C 24.5744 5.3324 24.3362 5.38318 24.0583 5.4083C 23.9657 5.49711 23.9922 5.8898 24.0583 5.97846C 24.442 5.97846 24.892 5.94045 25.5536 5.94045C 26.374 5.94045 26.9034 5.97846 27.1152 5.97846C 27.1812 5.90242 27.2077 5.53513 27.1548 5.4337ZM 30.8202 0.595417C 30.119 0.595417 29.6822 1.11466 29.6822 1.92515C 29.6822 2.74855 30.066 3.6985 31.151 3.6985C 31.3363 3.6985 31.6804 3.62246 31.839 3.44513C 32.0905 3.21728 32.2626 2.76118 32.2626 2.27982C 32.2626 1.22858 31.72 0.59528 30.8202 0.59528L 30.8202 0.595417ZM 30.7276 6.19368C 30.463 6.19368 30.2776 6.26972 30.1586 6.33314C 29.6028 6.6749 29.3514 7.00432 29.3514 7.39714C 29.3514 7.76431 29.497 8.05556 29.8146 8.30894C 30.1983 8.62559 30.7276 8.77767 31.4024 8.77767C 32.7521 8.77767 33.3477 8.08096 33.3477 7.39714C 33.3477 6.91565 33.0961 6.599 32.5802 6.4218C 32.2097 6.26972 31.5349 6.19368 30.7276 6.19368ZM 30.8202 9.48701C 30.013 9.48701 29.4307 9.3223 28.928 8.955C 28.4383 8.60033 28.2266 8.06833 28.2266 7.70103C 28.2266 7.59974 28.2532 7.32097 28.4913 7.06773C 28.6367 6.91565 28.9545 6.62439 29.7088 6.13041C 29.7351 6.11778 29.7483 6.10515 29.7483 6.07962C 29.7483 6.05437 29.7218 6.02898 29.6954 6.01648C 29.0735 5.7885 28.8883 5.42107 28.8352 5.21848L 28.8352 5.19309C 28.8222 5.11705 28.7956 5.04114 28.9148 4.9651C 29.0074 4.90183 29.1398 4.82579 29.2852 4.73726C 29.5102 4.61043 29.7483 4.47112 29.8939 4.35706C 29.9204 4.3318 29.9204 4.30655 29.9204 4.28116C 29.9204 4.25576 29.8939 4.23037 29.8674 4.21788C 28.9413 3.92649 28.4782 3.26779 28.4782 2.27982C 28.4782 1.6339 28.7824 1.05124 29.3249 0.683947C 29.6954 0.405317 30.6217 0.0632755 31.2305 0.0632755L 31.2702 0.0632755C 31.8921 0.0759031 32.2361 0.20259 32.7256 0.367297C 32.9903 0.455965 33.2418 0.493847 33.586 0.493847C 34.1019 0.493847 34.3269 0.341905 34.512 0.164708C 34.5254 0.189963 34.5519 0.253375 34.5651 0.417945C 34.5783 0.582653 34.5254 0.823262 34.393 1.0006C 34.2872 1.13991 34.049 1.24134 33.8108 1.24134L 33.7446 1.24134C 33.5064 1.21595 33.4004 1.19056 33.4004 1.19056L 33.3477 1.21595C 33.3345 1.24134 33.3477 1.2666 33.3609 1.30462L 33.3742 1.33001C 33.4006 1.44393 33.4535 1.78584 33.4535 1.87464C 33.4535 2.91326 33.0169 3.36909 32.5537 3.71113C 32.1037 4.02778 31.5878 4.23037 31.0055 4.28116C 30.9923 4.28116 30.9395 4.28116 30.8202 4.29378C 30.7541 4.29378 30.6615 4.30655 30.6481 4.30655L 30.6349 4.30655C 30.5291 4.3318 30.2646 4.45849 30.2646 4.67371C 30.2646 4.86367 30.3836 5.09179 30.9526 5.12981C 31.0716 5.14244 31.1906 5.14244 31.3231 5.1552C 32.0773 5.20571 33.0169 5.26912 33.4535 5.40844C 34.0622 5.62366 34.4459 6.14303 34.4459 6.76371C 34.4459 7.70117 33.7447 8.57508 32.5802 9.11957C 32.0112 9.36032 31.4421 9.48701 30.8202 9.48701ZM 38.3627 0.658692C 38.085 0.658692 37.8335 0.72183 37.6482 0.848517C 37.1323 1.15254 36.8676 1.76058 36.8676 2.64712C 36.8676 4.30655 37.7408 5.47185 38.9848 5.47185C 39.3553 5.47185 39.6464 5.37042 39.8978 5.16783C 40.2815 4.86367 40.4801 4.25576 40.4801 3.40711C 40.4801 1.76058 39.6199 0.658555 38.3629 0.658555L 38.3627 0.658692ZM 38.601 6.07976C 36.3515 6.07976 35.5443 4.49651 35.5443 3.01456C 35.5443 1.97594 35.9809 1.17793 36.8542 0.607907C 37.4763 0.24061 38.2173 0.0380196 38.8789 0.0380196C 40.5991 0.0380196 41.8033 1.21595 41.8033 2.91326C 41.8033 4.0658 41.327 4.97773 40.4138 5.53513C 39.9772 5.81376 39.2229 6.07976 38.6009 6.07976L 38.601 6.07976ZM 15.0205 0.658555C 14.7426 0.658555 14.4912 0.72183 14.3058 0.848517C 13.7899 1.15254 13.5252 1.76058 13.5252 2.64712C 13.5252 4.30655 14.3985 5.47185 15.6424 5.47185C 16.0129 5.47185 16.304 5.37042 16.5555 5.16783C 16.9391 4.86367 17.1377 4.25576 17.1377 3.40711C 17.1377 1.76058 16.2908 0.658555 15.0205 0.658555ZM 15.2587 6.07976C 13.0091 6.07976 12.202 4.49651 12.202 3.01456C 12.202 1.97594 12.6386 1.17793 13.5119 0.607907C 14.1339 0.24061 14.875 0.0380196 15.5366 0.0380196C 17.2569 0.0380196 18.4609 1.21595 18.4609 2.91326C 18.4609 4.0658 17.9846 4.97773 17.0715 5.53513C 16.648 5.81376 15.8938 6.07976 15.2587 6.07976ZM 0.133782 5.95307C 0.107254 5.91519 0.0807258 5.80113 0.0940614 5.66182C 0.0940614 5.56038 0.120589 5.49711 0.133782 5.47185C 0.411679 5.4337 0.557223 5.39568 0.71596 5.35779C 0.980665 5.29438 1.08649 5.1552 1.09968 4.83855C 1.13955 4.07857 1.13955 2.63449 1.12621 1.6339L 1.12621 1.6085C 1.12621 1.49458 1.12621 1.35513 0.980665 1.25383C 0.768873 1.12728 0.517503 1.01336 0.186693 0.92442C 0.0676764 0.886674 -0.0117637 0.823262 0.0014285 0.747359C 0.0014285 0.671319 0.0808695 0.582653 0.252942 0.55726C 0.689576 0.51924 1.82741 0.253375 2.27738 0.0632755C 2.3039 0.0885307 2.34362 0.164707 2.34362 0.266002L 2.33043 0.40518C 2.3171 0.544632 2.3039 0.70934 2.3039 0.87391C 2.3039 0.924558 2.35696 0.962577 2.40973 0.962577C 2.43626 0.962577 2.46278 0.94995 2.48917 0.937185C 3.33605 0.303885 4.1035 0.0759024 4.50041 0.0759024C 5.14898 0.0759024 5.65186 0.367298 6.03558 0.975205C 6.06197 1.01336 6.0885 1.02599 6.12822 1.02599C 6.1546 1.02599 6.19418 1.01336 6.20751 0.98797C 6.98829 0.417945 7.76907 0.0759024 8.285 0.0759024C 9.51561 0.0759024 10.2435 0.94995 10.2435 2.4319C 10.2435 2.84985 10.2435 3.39448 10.2303 3.8886C 10.2303 4.3318 10.2171 4.73712 10.2171 5.02852C 10.2171 5.09165 10.3096 5.29438 10.4551 5.3324C 10.6404 5.42107 10.8919 5.45909 11.2227 5.50974L 11.2359 5.50974C 11.2624 5.5984 11.2095 5.92768 11.1566 5.99109C 11.0772 5.99109 10.958 5.99109 10.8258 5.97846C 10.4908 5.96174 10.1555 5.95327 9.82003 5.95307C 8.99968 5.95307 8.57624 5.9657 8.16584 5.99109C 8.1396 5.8898 8.12627 5.58578 8.16584 5.50974C 8.40416 5.47185 8.52318 5.4337 8.66887 5.39581C 8.93357 5.31977 8.99968 5.20571 9.01302 4.87644C 9.01302 4.63583 9.06578 2.58385 8.98634 2.08986C 8.90705 1.58325 8.50999 0.98797 7.63658 0.98797C 7.30577 0.98797 6.78984 1.11466 6.28695 1.48182C 6.26057 1.50721 6.2339 1.57048 6.2339 1.6085L 6.2339 1.62127C 6.28695 1.88713 6.28695 2.19129 6.28695 2.65989L 6.28695 3.48315C 6.28695 4.05317 6.27362 4.58518 6.28695 4.99036C 6.28695 5.26913 6.45903 5.3324 6.60457 5.38319C 6.68401 5.39568 6.73678 5.40844 6.80303 5.42107C 6.92205 5.44646 7.04121 5.47185 7.22647 5.50974C 7.253 5.56052 7.253 5.72509 7.21328 5.86441C 7.19994 5.94045 7.17342 5.97833 7.16022 5.99109C 6.7104 5.97847 6.24723 5.9657 5.57242 5.9657C 5.37397 5.9657 5.02982 5.97846 4.73873 5.97846C 4.50041 5.97846 4.27557 5.99109 4.14336 5.99109C 4.13002 5.9657 4.1035 5.87717 4.1035 5.73772C 4.1035 5.6238 4.13002 5.53513 4.15655 5.50974C 4.22266 5.49711 4.27557 5.48448 4.34182 5.48448C 4.50041 5.45909 4.63291 5.4337 4.76512 5.40844C 4.99024 5.34516 5.06954 5.23111 5.08273 4.95248C 5.12245 4.31918 5.16217 2.50794 5.06954 2.05184C 4.9108 1.31725 4.47417 0.94995 3.77269 0.94995C 3.36258 0.94995 2.84636 1.13991 2.42306 1.44407C 2.35682 1.49458 2.3039 1.62113 2.3039 1.73519L 2.3039 2.48255C 2.3039 3.39448 2.3039 4.53453 2.3171 5.02852C 2.33043 5.18032 2.3832 5.35779 2.68763 5.42107C 2.75387 5.4337 2.8597 5.45909 2.99205 5.47185L 3.23008 5.50974C 3.25676 5.58578 3.24342 5.8898 3.19051 5.99109C 3.05816 5.99109 2.89942 5.97846 2.71401 5.97846C 2.43626 5.9657 2.07892 5.95307 1.682 5.95307C 1.21884 5.95307 0.888033 5.9657 0.623328 5.97846C 0.438064 5.95307 0.292519 5.95307 0.133782 5.95307Z"/>
<path id="path2_fill" fill-rule="evenodd" d="M 1.69617 17.0573L 1.15371 16.8798C 1.15371 16.8798 1.21996 14.2327 0.22739 14.0427C -0.434086 13.308 0.333502 -17.1162 2.71527 13.9413C 2.71527 13.9413 1.89477 14.3338 1.74923 15.0053C 1.59035 15.664 1.69617 17.0573 1.69617 17.0573Z"/>
<path id="path3_fill" fill-rule="evenodd" d="M 0.833692 16.8966C 0.833692 16.8966 5.58433 13.9073 4.4726 7.68813C 3.40087 3.1665 0.873412 1.68454 0.595515 1.11452C 0.291233 0.709202 6.56405e-08 1.89802e-09 6.56405e-08 1.89802e-09L 0.1986 12.5773C 0.1986 12.5901 -0.211649 16.4279 0.833835 16.8968"/>
<path id="path4_fill" fill-rule="evenodd" d="M 4.20618 17.112C 4.20618 17.112 -0.253371 14.1987 0.0113344 9.06906C 0.262704 3.93925 3.41206 1.41868 4.02077 0.962714C 4.41783 0.557397 4.43102 0.405317 4.45755 -8.01748e-10C 4.73544 0.570025 4.68253 8.52443 4.72211 9.46161C 4.84113 13.0714 4.51046 16.4282 4.20618 17.112Z"/>
</defs>
</svg>
