<svg width="100" height="68" viewBox="0 0 100 68" version="1.1" xmlns="http://www.w3.org/2000/svg" xmlns:xlink="http://www.w3.org/1999/xlink">
<title>mysql</title>
<desc>Created using Figma</desc>
<g id="Canvas" transform="matrix(2 0 0 2 6638 5382)">
<g id="mysql">
<g id="Vector">
<use xlink:href="#path0_fill" transform="translate(-3318.47 -2671.44)" fill="#5D87A1"/>
</g>
<g id="Vector">
<use xlink:href="#path1_fill" transform="translate(-3297.45 -2671.6)" fill="#F8981D"/>
</g>
<g id="Vector">
<use xlink:href="#path2_fill" transform="translate(-3289.74 -2690.3)" fill="#5D87A1"/>
</g>
<g id="Vector">
<use xlink:href="#path3_fill" transform="translate(-3272.76 -2661.61)" fill="#F8981D"/>
</g>
</g>
</g>
<defs>
<path id="path0_fill" d="M 11.6989 11.2017L 9.82131 11.2017C 9.75491 8.03707 9.57204 5.06194 9.27308 2.2741L 9.25639 2.2741L 6.39769 11.2017L 4.96816 11.2017L 2.12652 2.2741L 2.11019 2.2741C 1.89939 4.95071 1.76659 7.92658 1.71144 11.2017L -2.0761e-08 11.2017C 0.110299 7.21902 0.387497 3.48524 0.830506 5.307e-07L 3.15766 5.307e-07L 5.86615 8.2309L 5.88284 8.2309L 8.60802 5.307e-07L 10.8347 5.307e-07C 11.3223 4.0823 11.6104 7.81644 11.6989 11.2017ZM 19.8418 2.9371C 19.0773 7.07954 18.0687 10.0895 16.8169 11.9683C 15.8417 13.4146 14.7731 14.1384 13.6096 14.1384C 13.2993 14.1384 12.9166 14.045 12.463 13.8595L 12.463 12.8606C 12.6847 12.8925 12.9449 12.9106 13.2438 12.9106C 13.7873 12.9106 14.2242 12.7614 14.5573 12.4621C 14.9556 12.0976 15.1548 11.6879 15.1548 11.2347C 15.1548 10.9238 14.9995 10.2884 14.6897 9.32611L 12.6292 2.93673L 14.4738 2.93673L 15.9527 7.71536C 16.285 8.80042 16.4236 9.55797 16.3681 9.98946C 17.1769 7.83274 17.7418 5.48111 18.0636 2.93637L 19.8418 2.93637L 19.8418 2.9371Z"/>
<path id="path1_fill" d="M 23.8129 11.3683L 18.4794 11.3683L 18.4794 0.166655L 20.2736 0.166655L 20.2736 9.98946L 23.8129 9.98946L 23.8129 11.3683ZM 17.0832 11.639L 15.0209 10.6227C 15.2038 10.4728 15.3787 10.3105 15.5362 10.1224C 16.4127 9.09424 16.8499 7.5737 16.8499 5.55973C 16.8499 1.85385 15.3936 8.62388e-07 12.4797 8.62388e-07C 11.0509 8.62388e-07 9.93632 0.470254 9.1392 1.41112C 8.26334 2.44003 7.82613 3.95514 7.82613 5.95825C 7.82613 7.9273 8.21363 9.37175 8.98899 10.288C 9.69831 11.118 10.7676 11.5335 12.1974 11.5335C 12.7308 11.5335 13.2202 11.4683 13.6662 11.3368L 16.3511 12.8976L 17.0832 11.639ZM 10.4026 9.12685C 9.94829 8.39719 9.72117 7.22554 9.72117 5.61008C 9.72117 2.78964 10.5792 1.3778 12.2972 1.3778C 13.1952 1.3778 13.8534 1.71545 14.2743 2.38931C 14.7278 3.12006 14.956 4.2812 14.956 5.87419C 14.956 8.71782 14.0972 10.1398 12.3803 10.1398C 11.482 10.1402 10.8238 9.80361 10.4026 9.12685ZM 7.04424 8.2635C 7.04424 9.21343 6.69521 9.99272 5.99786 10.6032C 5.29978 11.2111 4.36369 11.5158 3.19068 11.5158C 2.0935 11.5158 1.0297 11.1658 -5.15605e-15 10.4695L 0.482195 9.50761C 1.36821 9.9507 2.17042 10.171 2.89063 10.171C 3.56657 10.171 4.09484 10.0213 4.47799 9.72463C 4.86077 9.42682 5.08898 9.0091 5.08898 8.48088C 5.08898 7.81535 4.6242 7.24655 3.77156 6.77014C 2.98532 6.33901 1.41284 5.43763 1.41284 5.43763C 0.560563 4.81739 0.133884 4.1515 0.133884 3.05448C 0.133884 2.14658 0.45208 1.41366 1.08884 0.856095C 1.72632 0.296355 2.54884 0.0173896 3.55714 0.0173896C 4.59844 0.0173896 5.54505 0.295992 6.39769 0.847399L 5.9652 1.80964C 5.23593 1.50025 4.51608 1.34555 3.80603 1.34555C 3.23095 1.34555 2.78686 1.48358 2.47809 1.76074C 2.16679 2.0368 1.97486 2.39004 1.97486 2.82334C 1.97486 3.48561 2.44943 4.06165 3.32529 4.54748C 4.12205 4.97933 5.73372 5.89629 5.73372 5.89629C 6.60777 6.51545 7.04424 7.17518 7.04424 8.2635Z"/>
<path id="path2_fill" d="M 18.3557 15.1083C 17.2709 15.0808 16.4309 15.1898 15.726 15.4876C 15.5224 15.5688 15.1988 15.5688 15.1705 15.8256C 15.2804 15.9343 15.2931 16.1097 15.3885 16.2597C 15.5511 16.5303 15.8345 16.8944 16.0931 17.0842C 16.3772 17.3016 16.6624 17.5168 16.9614 17.7063C 17.4886 18.032 18.0861 18.2215 18.5999 18.5461C 18.8992 18.7348 19.1967 18.979 19.4964 19.1823C 19.6437 19.2906 19.7381 19.4663 19.9293 19.534L 19.9293 19.4927C 19.8335 19.371 19.8063 19.1949 19.7123 19.0594L 19.3052 18.6674C 18.9119 18.1399 18.4232 17.6795 17.896 17.3012C 17.4621 17.0027 16.5129 16.5969 16.337 16.0977L 16.3094 16.0702C 16.6076 16.0423 16.9614 15.9343 17.2448 15.8513C 17.7059 15.73 18.1264 15.7575 18.5995 15.6361C 18.8172 15.5818 19.0331 15.5137 19.2515 15.4467L 19.2515 15.3246C 19.0063 15.0808 18.8314 14.7569 18.5734 14.5265C 17.8833 13.9312 17.1228 13.349 16.337 12.8617C 15.9161 12.5904 15.3748 12.4157 14.9267 12.185C 14.7652 12.1034 14.4931 12.0632 14.398 11.9277C 14.1549 11.6299 14.0182 11.2379 13.8418 10.8854C 13.45 10.1416 13.0694 9.31633 12.7312 8.5298C 12.4867 8.0023 12.3379 7.47553 12.0397 6.98753C 10.6428 4.68697 9.12582 3.2936 6.79431 1.92595C 6.29325 1.64119 5.69712 1.51982 5.06037 1.37056L 4.04337 1.31694C 3.8264 1.22202 3.60907 0.964429 3.41968 0.842699C 2.64613 0.355779 0.654586 -0.699575 0.085677 0.693798C -0.280776 1.57453 0.627736 2.44041 0.939765 2.88711C 1.17016 3.19723 1.46876 3.5501 1.62986 3.90225C 1.72528 4.13231 1.75213 4.37649 1.84756 4.61959C 2.06452 5.21519 2.26734 5.87783 2.55252 6.43358C 2.70128 6.71689 2.86346 7.0147 3.05358 7.2712C 3.16243 7.42119 3.35182 7.48749 3.39319 7.73203C 3.20416 8.00158 3.18928 8.40843 3.08079 8.74681C 2.59316 10.276 2.78364 12.1705 3.47482 13.2943C 3.69107 13.6327 4.207 14.3775 4.8971 14.0921C 5.50809 13.8486 5.37276 13.0773 5.54837 12.4009C 5.58864 12.2375 5.56216 12.1303 5.64343 12.023L 5.64343 12.0495C 5.83246 12.4281 6.02331 12.7929 6.19855 13.1726C 6.61906 13.8352 7.35124 14.5257 7.96115 14.9847C 8.28588 15.2297 8.54312 15.6485 8.94985 15.7981L 8.94985 15.7575L 8.923 15.7575C 8.84064 15.6361 8.72018 15.5818 8.61206 15.4876C 8.36752 15.2438 8.09685 14.946 7.90709 14.6757C 7.33891 13.9174 6.83603 13.078 6.38976 12.2118C 6.17134 11.7915 5.98303 11.3321 5.80706 10.9126C 5.72506 10.7506 5.72506 10.5065 5.589 10.4249C 5.3851 10.7224 5.08794 10.98 4.93918 11.3444C 4.68122 11.9274 4.65437 12.6443 4.55858 13.3899L 4.50525 13.416C 4.07348 13.3077 3.92327 12.8617 3.75928 12.4831C 3.35328 11.5216 3.28507 9.97824 3.63737 8.8689C 3.7317 8.58523 4.13988 7.69182 3.97697 7.42155C 3.89534 7.16251 3.62395 7.01506 3.47519 6.81109C 3.30031 6.55459 3.10873 6.22997 2.98682 5.94521C 2.66173 5.18766 2.4981 4.34823 2.14797 3.59104C 1.98434 3.23817 1.70025 2.87298 1.47022 2.54801C 1.21189 2.18282 0.927792 1.92559 0.723521 1.49265C 0.656036 1.34375 0.561341 1.10029 0.669825 0.938344C 0.696311 0.829657 0.751459 0.78908 0.859581 0.761908C 1.03519 0.613731 1.53698 0.802122 1.71295 0.883638C 2.21546 1.08652 2.63561 1.276 3.05503 1.56004C 3.24479 1.6959 3.44834 1.95312 3.69179 2.02087L 3.97697 2.02087C 4.40982 2.11507 4.89782 2.04696 5.30528 2.16941C 6.02331 2.39983 6.67385 2.73785 7.25727 3.10267C 9.03257 4.22686 10.4966 5.82421 11.4849 7.73203C 11.6471 8.04288 11.716 8.32764 11.8641 8.65189C 12.1496 9.31561 12.5026 9.99237 12.786 10.642C 13.0708 11.2778 13.3422 11.927 13.7489 12.4552C 13.9518 12.7393 14.7667 12.8882 15.132 13.0371C 15.4023 13.1584 15.8232 13.2664 16.067 13.4153C 16.5282 13.699 16.9875 14.0247 17.4211 14.3366C 17.637 14.4989 18.3154 14.8373 18.3557 15.1083ZM 4.52992 3.34686C 4.34279 3.34492 4.15624 3.36782 3.97516 3.41497L 3.97516 3.44214L 4.00128 3.44214C 4.11049 3.65843 4.30025 3.80842 4.43558 3.99717C 4.54479 4.21418 4.63949 4.42938 4.74652 4.64604L 4.77265 4.61923C 4.96386 4.48409 5.05892 4.26744 5.05892 3.94246C 4.97656 3.84682 4.96386 3.75335 4.89528 3.65843C 4.81546 3.52293 4.63949 3.45555 4.52992 3.34686Z"/>
<path id="path3_fill" d="M 2.66749 1.37272L 2.94831 1.37272L 2.94831 0.000362623L 2.52708 0.000362623L 2.18348 0.936886L 1.81013 0.000362623L 1.4045 0.000362623L 1.4045 1.37272L 1.66972 1.37272L 1.66972 0.328598L 1.68459 0.328598L 2.07572 1.37272L 2.27782 1.37272L 2.66749 0.328598L 2.66749 1.37272ZM 0.405273 1.37272L 0.702427 1.37272L 0.702427 0.232953L 1.09138 0.232953L 1.09138 5.307e-07L 1.90448e-06 5.307e-07L 1.90448e-06 0.232953L 0.404548 0.232953L 0.405273 1.37272Z"/>
</defs>
</svg>
