<svg width="80" height="90" viewBox="0 0 80 90" version="1.1" xmlns="http://www.w3.org/2000/svg" xmlns:xlink="http://www.w3.org/1999/xlink">
<title>nodejs-icon</title>
<desc>Created using Figma</desc>
<g id="Canvas" transform="matrix(2 0 0 2 6090 5396)">
<g id="nodejs-icon">
<g id="Group">
<g id="Vector">
<use xlink:href="#path0_fill" transform="translate(-3045 -2698)" fill="#8CC84B"/>
</g>
<g id="Vector">
<use xlink:href="#path1_fill" transform="translate(-3028.65 -2684.37)" fill="#8CC84B"/>
</g>
</g>
</g>
</g>
<defs>
<path id="path0_fill" d="M 18.1953 0.480087C 19.2882 -0.158586 20.7118 -0.16147 21.8038 0.480087C 27.2977 3.64925 32.7933 6.81344 38.2862 9.98452C 39.3193 10.5786 40.0104 11.7525 39.9999 12.9678L 39.9999 32.0347C 40.0076 33.3003 39.2482 34.5022 38.1582 35.0828C 32.6824 38.2345 27.2095 41.39 21.7346 44.5417C 20.619 45.1929 19.1669 45.1427 18.0861 44.4382C 16.4445 43.4667 14.8 42.4999 13.1582 41.5293C 12.8227 41.3251 12.4446 41.1626 12.2077 40.8306C 12.4171 40.5424 12.7915 40.5065 13.0958 40.3807C 13.781 40.1582 14.4104 39.8011 15.0399 39.4546C 15.1991 39.3434 15.3935 39.386 15.5461 39.4856C 16.9499 40.3073 18.3413 41.1529 19.7498 41.9667C 20.0502 42.1438 20.3545 41.9087 20.6113 41.7625C 25.9848 38.6621 31.3648 35.5734 36.7373 32.472C 36.9364 32.3743 37.0464 32.1586 37.0303 31.9359C 37.034 25.6462 37.0312 19.3553 37.0322 13.0655C 37.0549 12.813 36.9117 12.5807 36.688 12.4773C 31.2312 9.34008 25.7772 6.19801 20.3214 3.05994C 20.2268 2.99359 20.1149 2.958 20.0002 2.95783C 19.8854 2.95765 19.7734 2.99292 19.6786 3.05898C 14.2228 6.19801 8.76974 9.34297 3.31388 12.4801C 3.09095 12.5836 2.94134 12.812 2.96787 13.0655C 2.96881 19.3553 2.96787 25.6462 2.96787 31.9369C 2.95841 32.0455 2.98178 32.1545 3.03483 32.2491C 3.08788 32.3438 3.16806 32.4196 3.26458 32.4663C 4.7205 33.3091 6.17831 34.146 7.63518 34.986C 8.45592 35.437 9.46364 35.705 10.3679 35.3594C 11.1659 35.0673 11.7252 34.236 11.71 33.371C 11.7175 27.1179 11.7062 20.8639 11.7157 14.6118C 11.6957 14.3342 11.9537 14.1049 12.218 14.131C 12.9176 14.1262 13.6181 14.1214 14.3176 14.1329C 14.6096 14.1262 14.8106 14.4251 14.7744 14.7048C 14.7716 20.9974 14.782 27.2902 14.7697 33.5829C 14.7716 35.2599 14.0967 37.0847 12.5772 37.9053C 10.7053 38.8953 8.39155 38.6853 6.54221 37.7361C 4.94123 36.9203 3.41341 35.9576 1.84084 35.0836C 0.748035 34.5062 -0.00755738 33.2995 0.000135117 32.0348L 0.000135117 12.9678C -0.0113251 11.7273 0.707217 10.5322 1.77255 9.9467C 7.24741 6.79244 12.7213 3.63578 18.1953 0.480087Z"/>
<path id="path1_fill" d="M 6.61698 0.0621489C 9.0048 -0.0947545 11.5611 -0.0308068 13.7098 1.17009C 15.3734 2.09035 16.2957 4.02176 16.3251 5.90861C 16.2786 6.16311 16.018 6.30351 15.78 6.28604C 15.0872 6.28508 14.3943 6.29565 13.7015 6.28123C 13.4076 6.29277 13.2368 6.01615 13.1999 5.7509C 13.0008 4.8481 12.5185 3.95396 11.6862 3.51851C 10.4084 2.86542 8.92693 2.89827 7.53365 2.91189C 6.51651 2.96703 5.42276 3.05694 4.56105 3.66756C 3.89949 4.1301 3.69854 5.06383 3.93466 5.81581C 4.15727 6.35576 4.7678 6.52997 5.26734 6.69056C 8.14496 7.45889 11.1943 7.38244 14.017 8.39358C 15.1856 8.80579 16.3288 9.60713 16.7289 10.8563C 17.2521 12.5304 17.0227 14.5316 15.856 15.8756C 14.9098 16.9816 13.5318 17.5836 12.1573 17.9105C 10.3288 18.3267 8.43131 18.3373 6.57444 18.1525C 4.8284 17.9493 3.0114 17.481 1.66348 16.2665C 0.510865 15.2448 -0.0521 13.6528 0.00378835 12.1163C 0.0171325 11.8568 0.2702 11.6759 0.513691 11.6972C 1.21135 11.6914 1.90902 11.6895 2.60668 11.6982C 2.88534 11.6778 3.09194 11.9237 3.10622 12.1918C 3.23495 13.052 3.5516 13.9548 4.28631 14.4647C 5.70425 15.3986 7.48341 15.3347 9.107 15.3608C 10.4521 15.2999 11.962 15.2815 13.0597 14.3739C 13.6388 13.8562 13.8104 12.9901 13.6539 12.245C 13.4843 11.6159 12.8397 11.3228 12.2862 11.1311C 9.44547 10.2138 6.36203 10.5466 3.54878 9.50921C 2.40667 9.09716 1.30225 8.31809 0.863464 7.12024C 0.251204 5.42491 0.531745 3.32795 1.82079 2.02929C 3.07765 0.737523 4.89198 0.240048 6.61698 0.0619888L 6.61698 0.0621489Z"/>
</defs>
</svg>
