<svg width="76" height="74" viewBox="0 0 76 74" version="1.1" xmlns="http://www.w3.org/2000/svg" xmlns:xlink="http://www.w3.org/1999/xlink">
<title>photoshop-cc</title>
<desc>Created using Figma</desc>
<g id="Canvas" transform="matrix(2 0 0 2 5722 5388)">
<g id="photoshop-cc">
<g id="Vector">
<use xlink:href="#path0_fill" transform="translate(-2859.42 -2692.42)" fill="url(#paint0_radial)"/>
</g>
<g id="Vector">
<use xlink:href="#path1_fill" transform="translate(-2861 -2694)" fill="#31C5F0"/>
</g>
</g>
</g>
<defs>
<radialGradient id="paint0_radial" cx="0.5" cy="0.5" r="0.5" gradientUnits="userSpaceOnUse" gradientTransform="matrix(52.9094 0 0 51.1928 -14.9904 -18.0133)">
<stop offset="0" stop-color="#34364E" stop-opacity="0.98"/>
<stop offset="1" stop-color="#0C0824"/>
</radialGradient>
<path id="path0_fill" d="M -3.21211e-08 -2.56802e-07L 34.8088 -2.56802e-07L 34.8088 33.8376L -3.21211e-08 33.8376L -3.21211e-08 -2.56802e-07Z"/>
<path id="path1_fill" d="M 1.5822 1.58117L 36.391 1.58117L 36.391 35.4188L 1.5822 35.4188L 1.5822 1.58117ZM 0 37L 37.9732 37L 37.9732 1.40074e-07L 0 1.40074e-07L 0 37ZM 25.6003 15.1795C 24.3503 15.1795 23.9232 15.8119 23.9232 16.3337C 23.9232 16.9029 24.2079 17.2982 25.8851 18.1679C 28.3692 19.3696 29.1445 20.5239 29.1445 22.2158C 29.1445 24.7457 27.2142 26.1055 24.6035 26.1055C 23.2269 26.1055 22.0403 25.8209 21.3599 25.4256C 21.2492 25.3782 21.2334 25.2991 21.2334 25.1726L 21.2334 22.8482C 21.2334 22.6901 21.3125 22.6427 21.4233 22.7218C 22.4201 23.3701 23.5592 23.6547 24.6035 23.6547C 25.8535 23.6547 26.3756 23.1329 26.3756 22.4213C 26.3756 21.8521 26.0117 21.3461 24.4136 20.5239C 22.1668 19.4487 21.2334 18.3577 21.2334 16.5393C 21.2334 14.4995 22.8314 12.8077 25.6003 12.8077C 26.961 12.8077 27.9103 13.0133 28.4324 13.2504C 28.559 13.3295 28.5906 13.4559 28.5906 13.5666L 28.5906 15.7328C 28.5906 15.8593 28.5115 15.9384 28.3533 15.8909C 27.6571 15.4483 26.6287 15.1795 25.6003 15.1795ZM 11.9932 17.0611C 12.3571 17.0927 12.6419 17.0927 13.2748 17.0927C 15.1261 17.0927 16.8665 16.4444 16.8665 13.9304C 16.8665 11.9223 15.6165 10.9102 13.5122 10.9102C 12.8793 10.9102 12.278 10.9419 11.9932 10.9577L 11.9932 17.0611ZM 9.1769 8.66493C 9.1769 8.55426 9.39844 8.47514 9.52494 8.47514C 10.5376 8.42772 12.0407 8.39609 13.6071 8.39609C 17.9898 8.39609 19.6986 10.7995 19.6986 13.8671C 19.6986 17.8833 16.7873 19.6068 13.2115 19.6068C 12.6103 19.6068 12.4046 19.5752 11.9774 19.5752L 11.9774 25.647C 11.9774 25.7734 11.9299 25.8367 11.7875 25.8367L 9.36674 25.8367C 9.24018 25.8367 9.17684 25.7893 9.17684 25.647L 9.17684 8.66493L 9.1769 8.66493Z"/>
</defs>
</svg>
