<svg width="106" height="56" viewBox="0 0 106 56" version="1.1" xmlns="http://www.w3.org/2000/svg" xmlns:xlink="http://www.w3.org/1999/xlink">
<title>php-1</title>
<desc>Created using Figma</desc>
<g id="Canvas" transform="matrix(2 0 0 2 7360 5376)">
<g id="php-1">
<g id="Group">
<g id="Vector">
<use xlink:href="#path0_fill" transform="translate(-3680 -2688)" fill="#8993BE"/>
</g>
<g id="Vector">
<use xlink:href="#path1_fill" transform="translate(-3672.56 -2684.5)" fill="#232531"/>
</g>
</g>
</g>
</g>
<defs>
<path id="path0_fill" d="M 26.5 28C 41.1355 28 53 21.732 53 14C 53 6.26801 41.1355 0 26.5 0C 11.8645 0 0 6.26801 0 14C 0 21.732 11.8645 28 26.5 28Z"/>
<path id="path1_fill" fill-rule="evenodd" d="M -6.31809e-08 18.7894L 2.90423 3.86823L 9.61971 3.86823C 12.5237 4.0525 13.9759 5.52604 13.9759 8.10521C 13.9759 12.5262 10.5273 15.1052 7.44153 14.9209L 4.17479 14.9209L 3.44873 18.7894L -6.31809e-08 18.7894ZM 4.90064 12.1579L 5.80826 6.63146L 8.1678 6.63146C 9.43835 6.63146 10.3458 7.18406 10.3458 8.28927C 10.1644 11.421 8.71229 11.9736 7.07881 12.1579L 4.90084 12.1579L 4.90064 12.1579ZM 13.3011 14.9209L 16.2052 1.98779e-07L 19.6539 1.98779e-07L 18.9278 3.86823L 22.1948 3.86823C 25.099 4.0525 26.188 5.52604 25.8251 7.36833L 24.5545 14.9209L 20.9244 14.9209L 22.195 8.10521C 22.3764 7.18406 22.3764 6.63146 21.106 6.63146L 18.3833 6.63146L 16.7499 14.9209L 13.3011 14.9209ZM 24.322 18.7894L 27.2261 3.86823L 33.9417 3.86823C 36.846 4.0525 38.2981 5.52604 38.2981 8.10521C 38.2981 12.5262 34.8494 15.1052 31.7638 14.9209L 28.4966 14.9209L 27.7705 18.7894L 24.322 18.7894ZM 29.2225 12.1579L 30.1301 6.63146L 32.4898 6.63146C 33.7604 6.63146 34.6678 7.18406 34.6678 8.28927C 34.4864 11.421 33.0343 11.9736 31.4008 12.1579L 29.2227 12.1579L 29.2225 12.1579Z"/>
</defs>
</svg>
