<svg width="94" height="82" viewBox="0 0 94 82" version="1.1" xmlns="http://www.w3.org/2000/svg" xmlns:xlink="http://www.w3.org/1999/xlink">
<title>react (1)</title>
<desc>Created using Figma</desc>
<g id="Canvas" transform="matrix(2 0 0 2 6272 5388)">
<g id="react (1)">
<g id="Subtract">
<use xlink:href="#path0_fill" transform="translate(-3136 -2694)" fill="#53C1DE"/>
</g>
<g id="Vector">
<use xlink:href="#path1_fill" transform="translate(-3116.7 -2677.65)" fill="#53C1DE"/>
</g>
</g>
</g>
<defs>
<path id="path0_fill" fill-rule="evenodd" d="M 37.1306 12.8213C 37.6389 12.9646 38.1433 13.1206 38.6436 13.2888C 43.7197 15.0022 47 17.686 47 20.4611C 47 23.3552 43.4944 26.185 38.1062 27.935C 37.8215 28.0278 37.5298 28.1167 37.2322 28.2026C 37.3384 28.6213 37.4331 29.0322 37.5142 29.4345C 38.5779 34.7026 37.7588 39.0324 35.2378 40.4633C 32.7969 41.8488 28.8518 40.4878 24.8572 37.1176C 24.4231 36.7505 23.9993 36.3715 23.5867 35.9812C 23.259 36.2917 22.9319 36.5881 22.606 36.8674C 18.4822 40.4018 14.2471 41.8681 11.7239 40.4416C 9.28076 39.0598 8.51294 35.0293 9.49609 29.9531C 9.60352 29.4016 9.72656 28.853 9.86523 28.3081C 9.43848 28.1884 9.01465 28.0586 8.59424 27.9184C 3.41138 26.1816 0 23.3171 0 20.4611C 0 17.696 3.17798 15.03 8.15381 13.3291C 8.70996 13.1391 9.29126 12.9604 9.89331 12.7927C 9.7644 12.2871 9.64868 11.778 9.5459 11.2666C 8.51489 6.10055 9.24048 1.97213 11.6899 0.581994C 14.2444 -0.867957 18.4988 0.688928 22.7432 4.384C 23.0071 4.61446 23.2666 4.84957 23.5217 5.08932C 23.9028 4.72872 24.293 4.37765 24.6921 4.03634C 28.7419 0.581018 32.752 -0.864539 35.2036 0.521692C 37.7607 1.96725 38.5095 6.35861 37.3643 11.8095C 37.2927 12.1482 37.2148 12.4856 37.1306 12.8213ZM 36.6853 26.3086C 36.9541 26.2304 37.2178 26.1499 37.4746 26.0666C 42.127 24.5551 44.9922 22.2424 44.9922 20.4609C 44.9922 18.7885 42.3394 16.6181 37.99 15.1504C 37.5403 14.9983 37.0735 14.8545 36.5928 14.718C 36.0144 16.5525 35.2429 18.4904 34.3054 20.4707C 35.2876 22.499 36.0903 24.4624 36.6853 26.3086ZM 35.7703 35.8989C 36.082 34.2524 36.0146 32.1462 35.5444 29.8169C 35.4709 29.4531 35.3857 29.0813 35.29 28.7021C 33.3433 29.1433 31.1968 29.4665 28.9246 29.664C 27.6328 31.4975 26.3093 33.1486 24.9849 34.5688C 25.3804 34.9421 25.7751 35.2949 26.1667 35.6252C 29.5825 38.5075 32.7502 39.6001 34.2314 38.7595C 34.9275 38.3645 35.4902 37.3781 35.7703 35.8989ZM 12.7268 38.7358C 13.4236 39.1296 14.5762 39.1154 16.0232 38.6142C 17.6338 38.0566 19.4612 36.948 21.2847 35.3847C 21.5898 35.1225 21.8884 34.853 22.1802 34.5764C 20.8076 33.1323 19.4458 31.4831 18.1458 29.6892C 15.8679 29.508 13.7371 29.2077 11.8118 28.7902C 11.6831 29.2968 11.5686 29.8071 11.4688 30.32C 10.6282 34.6611 11.2441 37.8977 12.7268 38.7358ZM 3.76196 23.2002C 5.05933 24.2893 6.9519 25.2873 9.24365 26.0554C 9.62744 26.1836 10.0142 26.3022 10.4038 26.4116C 10.9976 24.5139 11.78 22.5214 12.7231 20.5088C 11.7922 18.5256 11.0208 16.5647 10.4324 14.6889C 9.88843 14.8398 9.34888 15.0061 8.8147 15.188C 4.55908 16.6428 2.00757 18.7832 2.00757 20.4609C 2.00757 21.2495 2.59619 22.2214 3.76196 23.2002ZM 12.6958 2.28561C 11.2195 3.12325 10.6328 6.46212 11.5164 10.8881C 11.6118 11.364 11.7195 11.8374 11.8394 12.3078C 13.7847 11.8757 15.9006 11.5532 18.1111 11.3523C 19.4001 9.56857 20.7495 7.93185 22.1147 6.49435C 21.8792 6.2734 21.6438 6.06002 21.4097 5.85592C 17.7451 2.66573 14.2683 1.39303 12.6958 2.28561ZM 30.3608 13.4919C 30.854 14.25 31.3306 15.0183 31.79 15.7966C 32.2568 16.5869 32.7075 17.3864 33.1421 18.1945C 33.7363 16.83 34.2412 15.4992 34.6462 14.2263C 33.2971 13.9243 31.8604 13.6777 30.3608 13.4919ZM 26.2881 11.1748C 25.376 9.98312 24.4485 8.88473 23.5225 7.90109C 22.5818 8.8962 21.6465 9.99288 20.7332 11.1735C 22.584 11.0886 24.4375 11.0891 26.2881 11.1748ZM 13.875 18.1931C 14.2983 17.3886 14.7407 16.5942 15.2017 15.81C 15.6633 15.0251 16.1438 14.2509 16.6426 13.4882C 15.1526 13.6709 13.7227 13.9113 12.3816 14.2055C 12.79 15.4965 13.2903 16.8335 13.875 18.1931ZM 12.354 26.8913C 13.6946 27.1775 15.1462 27.4055 16.6855 27.5739C 16.1746 26.7968 15.6824 26.0078 15.21 25.2075C 14.7466 24.4231 14.3025 23.6279 13.8774 22.823C 13.2803 24.2119 12.7688 25.5774 12.354 26.8913ZM 20.75 29.8418C 21.6772 31.0395 22.6262 32.153 23.5779 33.1599C 24.4978 32.1667 25.4219 31.0517 26.3372 29.832C 25.405 29.8728 24.458 29.894 23.5 29.894C 22.5674 29.894 21.6499 29.8764 20.75 29.8418ZM 34.7395 26.8059C 34.3188 25.5144 33.7893 24.1562 33.1611 22.7522C 32.7253 23.5759 32.2708 24.3899 31.7981 25.1938C 31.333 25.9848 30.8518 26.7666 30.3552 27.5388C 31.9053 27.3564 33.3767 27.1108 34.7395 26.8059ZM 27.804 27.7773C 28.5947 26.6128 29.3467 25.4231 30.0586 24.2104C 30.7771 22.9909 31.4507 21.7468 32.0784 20.4802C 31.4441 19.2265 30.7683 17.9934 30.0522 16.7829C 29.3401 15.5754 28.585 14.3928 27.7876 13.2378C 26.3904 13.1333 24.9553 13.0786 23.5 13.0786C 22.0513 13.0786 20.6182 13.1328 19.2205 13.2365C 18.415 14.3935 17.655 15.58 16.9414 16.7937C 16.2278 18.0066 15.561 19.2458 14.9424 20.5083C 15.5625 21.7702 16.2314 23.009 16.9475 24.2212C 17.667 25.4399 18.4331 26.6318 19.2446 27.7937C 20.6147 27.8808 22.0374 27.9255 23.5 27.9255C 24.9685 27.9255 26.4094 27.875 27.804 27.7773ZM 35.3977 11.4121C 36.3867 6.70577 35.7744 3.11691 34.2007 2.22701C 32.7231 1.39156 29.48 2.56051 26.01 5.5212C 25.6416 5.83639 25.2812 6.16061 24.9292 6.49337C 26.2727 7.91232 27.6106 9.55172 28.9021 11.3549C 31.1191 11.5588 33.2366 11.8872 35.1865 12.3283C 35.2625 12.0241 35.333 11.7187 35.3977 11.4121Z"/>
<path id="path1_fill" d="M 4.19692 1.86715e-07C 6.51492 1.86715e-07 8.39383 1.84242 8.39383 4.11496C 8.39383 6.38769 6.51492 8.23011 4.19692 8.23011C 1.87912 8.23011 -2.66608e-07 6.38769 -2.66608e-07 4.11496C -2.66608e-07 1.84242 1.87912 1.86715e-07 4.19692 1.86715e-07Z"/>
</defs>
</svg>
