<svg width="122" height="50" viewBox="0 0 122 50" version="1.1" xmlns="http://www.w3.org/2000/svg" xmlns:xlink="http://www.w3.org/1999/xlink">
<title>git</title>
<desc>Created using Figma</desc>
<g id="Canvas" transform="matrix(2 0 0 2 5926 5376)">
<g id="git">
<g id="Vector">
<use xlink:href="#path0_fill" transform="translate(-2932.68 -2688)" fill="#2F2707"/>
</g>
<g id="Vector">
<use xlink:href="#path1_fill" transform="translate(-2963 -2687.98)" fill="#DE4C36"/>
</g>
</g>
</g>
<defs>
<path id="path0_fill" d="M 6.16192 8.50914C 4.82728 8.50914 3.8334 9.15346 3.8334 10.7042C 3.8334 11.8726 4.48844 12.6839 6.08991 12.6839C 7.44743 12.6839 8.36954 11.8972 8.36954 10.6557C 8.36954 9.24889 7.54448 8.50914 6.16192 8.50914ZM 3.49361 19.4591C 3.17765 19.8401 2.86289 20.2453 2.86289 20.7229C 2.86289 21.6765 4.09952 21.9635 5.79827 21.9635C 7.20516 21.9635 9.12186 21.8664 9.12186 20.5801C 9.12186 19.8155 8.19976 19.7684 7.03466 19.6966L 3.49361 19.4591ZM 10.6742 8.58112C 11.1101 9.12978 11.5718 9.89345 11.5718 10.9905C 11.5718 13.6382 9.46118 15.1885 6.40514 15.1885C 5.62802 15.1885 4.92458 15.0933 4.48844 14.9742L 3.68747 16.238L 6.06463 16.381C 10.2619 16.6441 12.7354 16.7636 12.7354 19.9348C 12.7354 22.6786 10.286 24.2282 6.06463 24.2282C 1.67396 24.2282 -5.38503e-07 23.1309 -5.38503e-07 21.2467C -5.38503e-07 20.1733 0.485256 19.6019 1.33439 18.8134C 0.533662 18.4807 0.26707 17.8846 0.26707 17.2401C 0.26707 16.7149 0.533662 16.2382 0.970988 15.7845C 1.40736 15.332 1.89238 14.8783 2.47469 14.3535C 1.28623 13.781 0.388204 12.5406 0.388204 10.7751C 0.388204 8.03246 2.23218 6.14873 5.94302 6.14873C 6.9865 6.14873 7.61745 6.24299 8.17543 6.38719L 12.9064 6.38719L 12.9064 8.41395L 10.6742 8.58112ZM 17.1743 4.24648C 15.7912 4.24648 14.9907 3.45866 14.9907 2.0985C 14.9907 0.740221 15.791 -5.14298e-09 17.1743 -5.14298e-09C 18.5811 -5.14298e-09 19.3819 0.740221 19.3819 2.0985C 19.3819 3.45866 18.5814 4.24648 17.1743 4.24648ZM 14.0443 18.5813L 14.0443 16.6978L 15.2819 16.5313C 15.6217 16.4832 15.6698 16.4119 15.6698 16.0534L 15.6698 9.04045C 15.6698 8.77878 15.5974 8.6109 15.3539 8.54009L 14.0443 8.08639L 14.3109 6.15483L 19.333 6.15483L 19.333 16.0534C 19.333 16.4356 19.3564 16.4832 19.7214 16.5315L 20.9585 16.698L 20.9585 18.5813L 14.0443 18.5813ZM 30.5518 17.6565C 29.5083 18.1571 27.9801 18.6103 26.5968 18.6103C 23.7101 18.6103 22.6189 17.4666 22.6189 14.7697L 22.6189 8.52086C 22.6189 8.37784 22.6189 8.28241 22.4241 8.28241L 20.7263 8.28241L 20.7263 6.15882C 22.8616 5.91966 23.7101 4.87017 23.9769 2.27014L 26.2818 2.27014L 26.2818 5.65822C 26.2818 5.8247 26.2818 5.89668 26.4762 5.89668L 29.8963 5.89668L 29.8963 8.28194L 26.2818 8.28194L 26.2818 13.9826C 26.2818 15.3899 26.6218 15.9381 27.9312 15.9381C 28.6113 15.9381 29.314 15.7716 29.8961 15.5568L 30.5518 17.6563"/>
<path id="path1_fill" d="M 24.9253 11.3772L 13.8333 0.471283C 13.6814 0.321871 13.5011 0.203348 13.3026 0.122484C 13.1041 0.0416205 12.8913 1.25663e-08 12.6765 1.25663e-08C 12.4616 1.25663e-08 12.2488 0.0416205 12.0503 0.122484C 11.8518 0.203348 11.6715 0.321871 11.5196 0.471283L 9.21635 2.73626L 12.1381 5.60898C 12.4816 5.49414 12.8509 5.47616 13.2042 5.55709C 13.5575 5.63803 13.8807 5.81463 14.1371 6.0669C 14.3949 6.32077 14.575 6.64082 14.6566 6.99051C 14.7382 7.34019 14.7182 7.70541 14.5988 8.04442L 17.4142 10.8133C 18.0955 10.5826 18.8817 10.7319 19.4256 11.2677C 19.6064 11.4454 19.7499 11.6564 19.8477 11.8886C 19.9456 12.1208 19.996 12.3698 19.996 12.6212C 19.996 12.8725 19.9456 13.1215 19.8477 13.3537C 19.7499 13.5859 19.6064 13.7969 19.4256 13.9746C 19.1074 14.2878 18.6887 14.4828 18.2408 14.5265C 17.7928 14.5703 17.3433 14.4601 16.9687 14.2146C 16.5941 13.9691 16.3177 13.6036 16.1863 13.1802C 16.055 12.7568 16.0769 12.3018 16.2484 11.8925L 13.6225 9.31056L 13.6223 16.1055C 13.8126 16.198 13.9865 16.3203 14.1371 16.4675C 14.3179 16.6453 14.4614 16.8563 14.5592 17.0886C 14.6571 17.3209 14.7075 17.5698 14.7075 17.8212C 14.7075 18.0726 14.6571 18.3216 14.5592 18.5539C 14.4614 18.7861 14.3179 18.9972 14.1371 19.1749C 13.3764 19.9229 12.1436 19.9229 11.3841 19.1749C 11.1573 18.952 10.9899 18.6774 10.897 18.3755C 10.804 18.0736 10.7884 17.7539 10.8514 17.4446C 10.9145 17.1354 11.0543 16.8462 11.2584 16.6029C 11.4625 16.3596 11.7245 16.1696 12.0213 16.0499L 12.0213 9.19168C 11.7826 9.09582 11.5659 8.95373 11.3841 8.77386C 10.808 8.20808 10.6695 7.37689 10.9647 6.68121L 8.08464 3.84882L 0.479355 11.3265C 0.327381 11.476 0.206829 11.6534 0.124581 11.8486C 0.0423326 12.0438 5.31833e-12 12.2531 5.31804e-12 12.4644C 5.31837e-12 12.6757 0.0423326 12.885 0.124581 13.0802C 0.206829 13.2755 0.327381 13.4529 0.479355 13.6023L 11.5713 24.5084C 11.8782 24.8101 12.2943 24.9795 12.7282 24.9795C 13.1621 24.9795 13.5782 24.8101 13.8851 24.5084L 24.9253 13.6532C 25.2321 13.3513 25.4045 12.942 25.4045 12.5152C 25.4045 12.0884 25.2321 11.6791 24.9253 11.3772Z"/>
</defs>
</svg>
