<svg width="238" height="140" viewBox="0 0 238 140" version="1.1" xmlns="http://www.w3.org/2000/svg" xmlns:xlink="http://www.w3.org/1999/xlink">
<title>design</title>
<desc>Created using Figma</desc>
<g id="Canvas" transform="matrix(2 0 0 2 6538 3662)">
<g id="design">
<g id="monitor">
<g id="background-monitor">
<mask id="mask0_outline_ins">
<use xlink:href="#path0_fill" fill="white" transform="translate(-3258.21 -1831)"/>
</mask>
<g mask="url(#mask0_outline_ins)">
<use xlink:href="#path1_stroke_2x" transform="translate(-3258.21 -1831)" fill="#EDEDED"/>
</g>
</g>
<g id="side-monitor">
<use xlink:href="#path2_fill" transform="translate(-3257.9 -1830.38)" fill="#1D1A20"/>
</g>
<g id="monitor">
<use xlink:href="#path3_fill" transform="translate(-3254.82 -1826.94)" fill="#5C5C5C"/>
</g>
<g id="camera">
<use xlink:href="#path4_fill" transform="translate(-3210.02 -1829.11)" fill="#5C5C5C"/>
</g>
</g>
<g id="base">
<g id="middle">
<mask id="mask1_outline_ins">
<use xlink:href="#path5_fill" fill="white" transform="translate(-3269 -1764.44)"/>
</mask>
<g mask="url(#mask1_outline_ins)">
<use xlink:href="#path6_stroke_2x" transform="translate(-3269 -1764.44)" fill="#EDEDED"/>
</g>
</g>
<g id="bottom">
<mask id="mask2_outline_ins">
<use xlink:href="#path7_fill" fill="white" transform="translate(-3268.69 -1762.41)"/>
</mask>
<g mask="url(#mask2_outline_ins)">
<use xlink:href="#path8_stroke_2x" transform="translate(-3268.69 -1762.41)" fill="#C4C4C4"/>
</g>
</g>
<g id="small-bottom">
<use xlink:href="#path9_fill" transform="translate(-3218.1 -1764.44)" fill="#C4C4C4"/>
</g>
</g>
<g id="shape">
<g id="square">
<use xlink:href="#path10_fill" transform="translate(-3229.59 -1810.35)" fill="#2ECC71"/>
</g>
<g id="triangle">
<use xlink:href="#path11_fill" transform="translate(-3243.95 -1820.5)" fill="#3498DB"/>
</g>
<g id="circle">
<use xlink:href="#path12_fill" transform="translate(-3197.52 -1796.81)" fill="#F4D03F"/>
</g>
</g>
</g>
</g>
<defs>
<path id="path0_fill" d="M 0 5C 0 2.23858 2.23858 0 5 0L 92.4197 0C 95.1811 0 97.4197 2.23858 97.4197 5L 97.4197 66.5627L 0 66.5627L 0 5Z"/>
<path id="path1_stroke_2x" d="M 97.4197 66.5627L 97.4197 68.0627L 98.9197 68.0627L 98.9197 66.5627L 97.4197 66.5627ZM 0 66.5627L -1.5 66.5627L -1.5 68.0627L 0 68.0627L 0 66.5627ZM 5 1.5L 92.4197 1.5L 92.4197 -1.5L 5 -1.5L 5 1.5ZM 95.9197 5L 95.9197 66.5627L 98.9197 66.5627L 98.9197 5L 95.9197 5ZM 97.4197 65.0627L 0 65.0627L 0 68.0627L 97.4197 68.0627L 97.4197 65.0627ZM 1.5 66.5627L 1.5 5L -1.5 5L -1.5 66.5627L 1.5 66.5627ZM 92.4197 1.5C 94.3527 1.5 95.9197 3.067 95.9197 5L 98.9197 5C 98.9197 1.41015 96.0095 -1.5 92.4197 -1.5L 92.4197 1.5ZM 5 -1.5C 1.41015 -1.5 -1.5 1.41015 -1.5 5L 1.5 5C 1.5 3.067 3.067 1.5 5 1.5L 5 -1.5Z"/>
<path id="path2_fill" d="M 0 4C 0 1.79086 1.79086 0 4 0L 92.8031 0C 95.0122 0 96.8031 1.79086 96.8031 4L 96.8031 65.9377L 0 65.9377L 0 4Z"/>
<path id="path3_fill" d="M 0 1C 0 0.447716 0.447715 0 1 0L 89.6373 0C 90.1896 0 90.6373 0.447715 90.6373 1L 90.6373 57.1252C 90.6373 57.6774 90.1896 58.1252 89.6373 58.1252L 1 58.1252C 0.447716 58.1252 0 57.6774 0 57.1252L 0 1Z"/>
<path id="path4_fill" d="M 1.04865 0.531487C 1.04865 0.825019 0.813903 1.06297 0.524326 1.06297C 0.234749 1.06297 0 0.825019 0 0.531487C 0 0.237955 0.234749 0 0.524326 0C 0.813903 0 1.04865 0.237955 1.04865 0.531487Z"/>
<path id="path5_fill" d="M 0 0.729169C 0 0.32646 0.32646 0 0.729169 0L 118.271 0C 118.674 0 119 0.32646 119 0.729169L 119 0.729169C 119 1.53459 118.347 2.18751 117.542 2.18751L 1.45834 2.18751C 0.65292 2.18751 0 1.53459 0 0.729169L 0 0.729169Z"/>
<path id="path6_stroke_2x" d="M 0.729169 1.5L 118.271 1.5L 118.271 -1.5L 0.729169 -1.5L 0.729169 1.5ZM 117.542 0.687506L 1.45834 0.687506L 1.45834 3.68751L 117.542 3.68751L 117.542 0.687506ZM 1.45834 0.687506C 1.46132 0.687506 1.46795 0.688406 1.47501 0.691396C 1.48108 0.693963 1.48512 0.697029 1.4878 0.699708C 1.49048 0.702388 1.49354 0.706421 1.49611 0.712491C 1.4991 0.719561 1.5 0.726183 1.5 0.729169L -1.5 0.729169C -1.5 2.36301 -0.175507 3.68751 1.45834 3.68751L 1.45834 0.687506ZM 117.5 0.729169C 117.5 0.726183 117.501 0.719561 117.504 0.712491C 117.506 0.706421 117.51 0.702388 117.512 0.699708C 117.515 0.697029 117.519 0.693963 117.525 0.691396C 117.532 0.688406 117.539 0.687506 117.542 0.687506L 117.542 3.68751C 119.176 3.68751 120.5 2.36301 120.5 0.729169L 117.5 0.729169ZM 118.271 1.5C 117.845 1.5 117.5 1.15489 117.5 0.729169L 120.5 0.729169C 120.5 -0.501967 119.502 -1.5 118.271 -1.5L 118.271 1.5ZM 0.729169 -1.5C -0.501967 -1.5 -1.5 -0.501967 -1.5 0.729169L 1.5 0.729169C 1.5 1.15489 1.15489 1.5 0.729169 1.5L 0.729169 -1.5Z"/>
<path id="path7_fill" fill-rule="evenodd" d="M 53.0752 0.000629427L 53.5284 0L 118.377 0.0748636L 115.921 1.25553C 115.715 1.35477 115.489 1.40625 115.261 1.40623L 53.5285 1.40385L 52.5174 1.40385L 3.11662 1.40623C 2.88811 1.40625 2.6625 1.35477 2.45605 1.25552L 0 0.0748636L 52.5175 0.00141144L 52.5175 0L 53.0752 0.000629427Z"/>
<path id="path8_stroke_2x" d="M 53.5284 0L 53.5301 -1.5L 53.5263 -1.5L 53.5284 0ZM 53.0752 0.000629427L 53.0735 1.50063L 53.0772 1.50063L 53.0752 0.000629427ZM 118.377 0.0748636L 119.027 1.42676L 118.379 -1.42514L 118.377 0.0748636ZM 115.921 1.25553L 116.571 2.60746L 116.571 2.60744L 115.921 1.25553ZM 115.261 1.40623L 115.261 -0.0937654L 115.261 -0.0937654L 115.261 1.40623ZM 53.5285 1.40385L 53.5285 -0.0961496L 53.5285 -0.0961496L 53.5285 1.40385ZM 52.5174 1.40385L 52.5174 -0.0961496L 52.5174 -0.0961496L 52.5174 1.40385ZM 3.11662 1.40623L 3.11655 -0.0937654L 3.1165 -0.0937654L 3.11662 1.40623ZM 2.45605 1.25552L 3.106 -0.0963594L 3.10593 -0.0963932L 2.45605 1.25552ZM 0 0.0748636L -0.00209793 -1.42513L -0.649879 1.42677L 0 0.0748636ZM 52.5175 0.00141144L 52.5196 1.50141L 54.0175 1.49931L 54.0175 0.00141144L 52.5175 0.00141144ZM 52.5175 0L 52.5192 -1.5L 51.0175 -1.50169L 51.0175 0L 52.5175 0ZM 53.5263 -1.5L 53.0731 -1.49937L 53.0772 1.50063L 53.5305 1.5L 53.5263 -1.5ZM 53.5267 1.5L 118.376 1.57486L 118.379 -1.42514L 53.5301 -1.5L 53.5267 1.5ZM 117.728 -1.27704L 115.272 -0.0963661L 116.571 2.60744L 119.027 1.42676L 117.728 -1.27704ZM 115.272 -0.0963891C 115.267 -0.094376 115.264 -0.0937651 115.261 -0.0937654L 115.261 2.90623C 115.715 2.90627 116.163 2.80392 116.571 2.60746L 115.272 -0.0963891ZM 115.261 -0.0937654L 53.5285 -0.0961496L 53.5284 2.90385L 115.261 2.90623L 115.261 -0.0937654ZM 52.5174 2.90385L 53.5285 2.90385L 53.5285 -0.0961496L 52.5174 -0.0961496L 52.5174 2.90385ZM 3.11669 2.90623L 52.5175 2.90385L 52.5174 -0.0961496L 3.11655 -0.0937654L 3.11669 2.90623ZM 1.8061 2.60739C 2.21484 2.80391 2.66258 2.90627 3.11675 2.90623L 3.1165 -0.0937654C 3.11365 -0.0937651 3.11016 -0.0943576 3.106 -0.0963594L 1.8061 2.60739ZM -0.649879 1.42677L 1.80617 2.60742L 3.10593 -0.0963932L 0.649879 -1.27705L -0.649879 1.42677ZM 52.5154 -1.49859L -0.00209793 -1.42513L 0.00209793 1.57486L 52.5196 1.50141L 52.5154 -1.49859ZM 54.0175 0.00141144L 54.0175 0L 51.0175 0L 51.0175 0.00141144L 54.0175 0.00141144ZM 52.5158 1.5L 53.0735 1.50063L 53.0769 -1.49937L 52.5192 -1.5L 52.5158 1.5Z"/>
<path id="path9_fill" fill-rule="evenodd" d="M 0 0L 0.608753 0.962622C 0.722141 1.14189 0.917758 1.25033 1.12786 1.25033L 6.26233 1.25033L 10.9433 1.25033L 16.0778 1.25033C 16.2879 1.25033 16.4835 1.14189 16.5969 0.962622L 17.2056 0L 10.9433 0L 6.26233 0L 0 0Z"/>
<path id="path10_fill" d="M 0 0L 43.0855 0L 43.0855 27.4232L 0 27.4232L 0 0Z"/>
<path id="path11_fill" d="M 13.1928 0L 24.6182 20.1321L 1.76751 20.1321L 13.1928 0Z"/>
<path id="path12_fill" d="M 21.3938 10.8822C 21.3938 16.8923 16.6046 21.7644 10.6969 21.7644C 4.78916 21.7644 0 16.8923 0 10.8822C 0 4.87213 4.78916 0 10.6969 0C 16.6046 0 21.3938 4.87213 21.3938 10.8822Z"/>
</defs>
</svg>
