<svg width="238" height="140" viewBox="0 0 238 140" version="1.1" xmlns="http://www.w3.org/2000/svg" xmlns:xlink="http://www.w3.org/1999/xlink">
<title>programming</title>
<desc>Created using Figma</desc>
<g id="Canvas" transform="matrix(2 0 0 2 6274 3496)">
<g id="programming">
<g id="monitor">
<g id="background-monitor">
<use xlink:href="#path0_fill" transform="translate(-3126.21 -1748)" fill="#FFFFFF"/>
<mask id="mask0_outline_ins">
<use xlink:href="#path0_fill" fill="white" transform="translate(-3126.21 -1748)"/>
</mask>
<g mask="url(#mask0_outline_ins)">
<use xlink:href="#path1_stroke_2x" transform="translate(-3126.21 -1748)"/>
</g>
</g>
<g id="side-monitor">
<use xlink:href="#path2_fill" transform="translate(-3125.9 -1747.38)" fill="#FFFFFF"/>
<mask id="mask1_outline_ins">
<use xlink:href="#path2_fill" fill="white" transform="translate(-3125.9 -1747.38)"/>
</mask>
<g mask="url(#mask1_outline_ins)">
<use xlink:href="#path3_stroke_2x" transform="translate(-3125.9 -1747.38)"/>
</g>
</g>
<g id="monitor">
<use xlink:href="#path4_fill" transform="translate(-3123 -1744)" fill="#FFFFFF"/>
<mask id="mask2_outline_ins">
<use xlink:href="#path4_fill" fill="white" transform="translate(-3123 -1744)"/>
</mask>
<g mask="url(#mask2_outline_ins)">
<use xlink:href="#path5_stroke_2x" transform="translate(-3123 -1744)"/>
</g>
</g>
<g id="camera">
<use xlink:href="#path6_fill" transform="translate(-3078.02 -1746.11)" fill="#FFFFFF"/>
<mask id="mask3_outline_ins">
<use xlink:href="#path6_fill" fill="white" transform="translate(-3078.02 -1746.11)"/>
</mask>
<g mask="url(#mask3_outline_ins)">
<use xlink:href="#path7_stroke_2x" transform="translate(-3078.02 -1746.11)"/>
</g>
</g>
</g>
<g id="base">
<g id="middle">
<use xlink:href="#path8_fill" transform="translate(-3137 -1681.44)" fill="#FFFFFF"/>
<mask id="mask4_outline_ins">
<use xlink:href="#path8_fill" fill="white" transform="translate(-3137 -1681.44)"/>
</mask>
<g mask="url(#mask4_outline_ins)">
<use xlink:href="#path9_stroke_2x" transform="translate(-3137 -1681.44)"/>
</g>
</g>
<g id="bottom">
<use xlink:href="#path10_fill" transform="translate(-3136.69 -1679.41)" fill="#FFFFFF"/>
<mask id="mask5_outline_ins">
<use xlink:href="#path10_fill" fill="white" transform="translate(-3136.69 -1679.41)"/>
</mask>
<g mask="url(#mask5_outline_ins)">
<use xlink:href="#path11_stroke_2x" transform="translate(-3136.69 -1679.41)"/>
</g>
</g>
<g id="small-bottom">
<use xlink:href="#path12_fill" transform="translate(-3086.1 -1681.44)" fill="#FFFFFF"/>
<use xlink:href="#path13_stroke" transform="translate(-3086.1 -1681.44)"/>
</g>
</g>
<g id="shape">
<g id="code">
<use xlink:href="#path14_fill" transform="translate(-3106 -1721)" fill="#FFFFFF"/>
<use xlink:href="#path15_fill" transform="translate(-3106 -1721)" fill="#FFFFFF"/>
<use xlink:href="#path16_fill" transform="translate(-3106 -1721)" fill="#FFFFFF"/>
<use xlink:href="#path17_fill" transform="translate(-3106 -1721)" fill="#FFFFFF"/>
<use xlink:href="#path18_fill" transform="translate(-3106 -1721)" fill="#FFFFFF"/>
<use xlink:href="#path19_fill" transform="translate(-3106 -1721)" fill="#FFFFFF"/>
<mask id="mask6_outline_out">
<rect id="mask6_outline_inv" fill="white" x="-2" y="-2" width="61" height="17" transform="translate(-3106 -1721)"/>
<use xlink:href="#path14_fill" fill="black" transform="translate(-3106 -1721)"/>
<use xlink:href="#path15_fill" fill="black" transform="translate(-3106 -1721)"/>
<use xlink:href="#path16_fill" fill="black" transform="translate(-3106 -1721)"/>
<use xlink:href="#path17_fill" fill="black" transform="translate(-3106 -1721)"/>
<use xlink:href="#path18_fill" fill="black" transform="translate(-3106 -1721)"/>
<use xlink:href="#path19_fill" fill="black" transform="translate(-3106 -1721)"/>
</mask>
<g mask="url(#mask6_outline_out)">
<use xlink:href="#path20_stroke_2x" transform="translate(-3106 -1721)"/>
</g>
</g>
</g>
</g>
</g>
<defs>
<path id="path0_fill" d="M 0 5C 0 2.23858 2.23858 0 5 0L 92.4197 0C 95.1811 0 97.4197 2.23858 97.4197 5L 97.4197 66.5627L 0 66.5627L 0 5Z"/>
<path id="path1_stroke_2x" d="M 97.4197 66.5627L 97.4197 68.0627L 98.9197 68.0627L 98.9197 66.5627L 97.4197 66.5627ZM 0 66.5627L -1.5 66.5627L -1.5 68.0627L 0 68.0627L 0 66.5627ZM 5 1.5L 92.4197 1.5L 92.4197 -1.5L 5 -1.5L 5 1.5ZM 95.9197 5L 95.9197 66.5627L 98.9197 66.5627L 98.9197 5L 95.9197 5ZM 97.4197 65.0627L 0 65.0627L 0 68.0627L 97.4197 68.0627L 97.4197 65.0627ZM 1.5 66.5627L 1.5 5L -1.5 5L -1.5 66.5627L 1.5 66.5627ZM 92.4197 1.5C 94.3527 1.5 95.9197 3.067 95.9197 5L 98.9197 5C 98.9197 1.41015 96.0095 -1.5 92.4197 -1.5L 92.4197 1.5ZM 5 -1.5C 1.41015 -1.5 -1.5 1.41015 -1.5 5L 1.5 5C 1.5 3.067 3.067 1.5 5 1.5L 5 -1.5Z"/>
<path id="path2_fill" d="M 0 4C 0 1.79086 1.79086 0 4 0L 92.8031 0C 95.0122 0 96.8031 1.79086 96.8031 4L 96.8031 65.9377L 0 65.9377L 0 4Z"/>
<path id="path3_stroke_2x" d="M 96.8031 65.9377L 96.8031 67.4377L 98.3031 67.4377L 98.3031 65.9377L 96.8031 65.9377ZM 0 65.9377L -1.5 65.9377L -1.5 67.4377L 0 67.4377L 0 65.9377ZM 4 1.5L 92.8031 1.5L 92.8031 -1.5L 4 -1.5L 4 1.5ZM 95.3031 4L 95.3031 65.9377L 98.3031 65.9377L 98.3031 4L 95.3031 4ZM 96.8031 64.4377L 0 64.4377L 0 67.4377L 96.8031 67.4377L 96.8031 64.4377ZM 1.5 65.9377L 1.5 4L -1.5 4L -1.5 65.9377L 1.5 65.9377ZM 92.8031 1.5C 94.1838 1.5 95.3031 2.61929 95.3031 4L 98.3031 4C 98.3031 0.962435 95.8407 -1.5 92.8031 -1.5L 92.8031 1.5ZM 4 -1.5C 0.962434 -1.5 -1.5 0.962434 -1.5 4L 1.5 4C 1.5 2.61929 2.61929 1.5 4 1.5L 4 -1.5Z"/>
<path id="path4_fill" d="M 0 1C 0 0.447716 0.447715 0 1 0L 89.6373 0C 90.1896 0 90.6373 0.447715 90.6373 1L 90.6373 57.1252C 90.6373 57.6774 90.1896 58.1252 89.6373 58.1252L 1 58.1252C 0.447716 58.1252 0 57.6774 0 57.1252L 0 1Z"/>
<path id="path5_stroke_2x" d="M 1 1.5L 89.6373 1.5L 89.6373 -1.5L 1 -1.5L 1 1.5ZM 89.1373 1L 89.1373 57.1252L 92.1373 57.1252L 92.1373 1L 89.1373 1ZM 89.6373 56.6252L 1 56.6252L 1 59.6252L 89.6373 59.6252L 89.6373 56.6252ZM 1.5 57.1252L 1.5 1L -1.5 1L -1.5 57.1252L 1.5 57.1252ZM 1 56.6252C 1.27614 56.6252 1.5 56.849 1.5 57.1252L -1.5 57.1252C -1.5 58.5059 -0.380709 59.6252 1 59.6252L 1 56.6252ZM 89.1373 57.1252C 89.1373 56.849 89.3612 56.6252 89.6373 56.6252L 89.6373 59.6252C 91.018 59.6252 92.1373 58.5059 92.1373 57.1252L 89.1373 57.1252ZM 89.6373 1.5C 89.3612 1.5 89.1373 1.27614 89.1373 1L 92.1373 1C 92.1373 -0.380714 91.018 -1.5 89.6373 -1.5L 89.6373 1.5ZM 1 -1.5C -0.380713 -1.5 -1.5 -0.38071 -1.5 1L 1.5 1C 1.5 1.27614 1.27614 1.5 1 1.5L 1 -1.5Z"/>
<path id="path6_fill" d="M 1.04865 0.531487C 1.04865 0.825019 0.813903 1.06297 0.524326 1.06297C 0.234749 1.06297 0 0.825019 0 0.531487C 0 0.237955 0.234749 0 0.524326 0C 0.813903 0 1.04865 0.237955 1.04865 0.531487Z"/>
<path id="path7_stroke_2x" d="M -0.451349 0.531487C -0.451349 0.015841 -0.0336436 -0.437026 0.524326 -0.437026L 0.524326 2.56297C 1.66145 2.56297 2.54865 1.6342 2.54865 0.531487L -0.451349 0.531487ZM 0.524326 -0.437026C 1.08229 -0.437026 1.5 0.015841 1.5 0.531487L -1.5 0.531487C -1.5 1.6342 -0.612798 2.56297 0.524326 2.56297L 0.524326 -0.437026ZM 1.5 0.531487C 1.5 1.04713 1.08229 1.5 0.524326 1.5L 0.524326 -1.5C -0.612798 -1.5 -1.5 -0.571223 -1.5 0.531487L 1.5 0.531487ZM 0.524326 1.5C -0.0336436 1.5 -0.451349 1.04713 -0.451349 0.531487L 2.54865 0.531487C 2.54865 -0.571223 1.66145 -1.5 0.524326 -1.5L 0.524326 1.5Z"/>
<path id="path8_fill" d="M 0 0.729169C 0 0.32646 0.32646 0 0.729169 0L 118.271 0C 118.674 0 119 0.32646 119 0.729169L 119 0.729169C 119 1.53459 118.347 2.18751 117.542 2.18751L 1.45834 2.18751C 0.65292 2.18751 0 1.53459 0 0.729169L 0 0.729169Z"/>
<path id="path9_stroke_2x" d="M 0.729169 1.5L 118.271 1.5L 118.271 -1.5L 0.729169 -1.5L 0.729169 1.5ZM 117.542 0.687506L 1.45834 0.687506L 1.45834 3.68751L 117.542 3.68751L 117.542 0.687506ZM 1.45834 0.687506C 1.46132 0.687506 1.46795 0.688406 1.47501 0.691396C 1.48108 0.693963 1.48512 0.697029 1.4878 0.699708C 1.49048 0.702388 1.49354 0.706421 1.49611 0.712491C 1.4991 0.719561 1.5 0.726183 1.5 0.729169L -1.5 0.729169C -1.5 2.36301 -0.175507 3.68751 1.45834 3.68751L 1.45834 0.687506ZM 117.5 0.729169C 117.5 0.726183 117.501 0.719561 117.504 0.712491C 117.506 0.706421 117.51 0.702388 117.512 0.699708C 117.515 0.697029 117.519 0.693963 117.525 0.691396C 117.532 0.688406 117.539 0.687506 117.542 0.687506L 117.542 3.68751C 119.176 3.68751 120.5 2.36301 120.5 0.729169L 117.5 0.729169ZM 118.271 1.5C 117.845 1.5 117.5 1.15489 117.5 0.729169L 120.5 0.729169C 120.5 -0.501967 119.502 -1.5 118.271 -1.5L 118.271 1.5ZM 0.729169 -1.5C -0.501967 -1.5 -1.5 -0.501967 -1.5 0.729169L 1.5 0.729169C 1.5 1.15489 1.15489 1.5 0.729169 1.5L 0.729169 -1.5Z"/>
<path id="path10_fill" fill-rule="evenodd" d="M 53.0752 0.000629427L 53.5284 0L 118.377 0.0748636L 115.921 1.25553C 115.715 1.35477 115.489 1.40625 115.261 1.40623L 53.5285 1.40385L 52.5174 1.40385L 3.11662 1.40623C 2.88811 1.40625 2.6625 1.35477 2.45605 1.25552L 0 0.0748636L 52.5175 0.00141144L 52.5175 0L 53.0752 0.000629427Z"/>
<path id="path11_stroke_2x" d="M 53.5284 0L 53.5301 -1.5L 53.5263 -1.5L 53.5284 0ZM 53.0752 0.000629427L 53.0735 1.50063L 53.0772 1.50063L 53.0752 0.000629427ZM 118.377 0.0748636L 119.027 1.42676L 118.379 -1.42514L 118.377 0.0748636ZM 115.921 1.25553L 116.571 2.60746L 116.571 2.60744L 115.921 1.25553ZM 115.261 1.40623L 115.261 -0.0937654L 115.261 -0.0937654L 115.261 1.40623ZM 53.5285 1.40385L 53.5285 -0.0961496L 53.5285 -0.0961496L 53.5285 1.40385ZM 52.5174 1.40385L 52.5174 -0.0961496L 52.5174 -0.0961496L 52.5174 1.40385ZM 3.11662 1.40623L 3.11655 -0.0937654L 3.1165 -0.0937654L 3.11662 1.40623ZM 2.45605 1.25552L 3.106 -0.0963594L 3.10593 -0.0963932L 2.45605 1.25552ZM 0 0.0748636L -0.00209793 -1.42513L -0.649879 1.42677L 0 0.0748636ZM 52.5175 0.00141144L 52.5196 1.50141L 54.0175 1.49931L 54.0175 0.00141144L 52.5175 0.00141144ZM 52.5175 0L 52.5192 -1.5L 51.0175 -1.50169L 51.0175 0L 52.5175 0ZM 53.5263 -1.5L 53.0731 -1.49937L 53.0772 1.50063L 53.5305 1.5L 53.5263 -1.5ZM 53.5267 1.5L 118.376 1.57486L 118.379 -1.42514L 53.5301 -1.5L 53.5267 1.5ZM 117.728 -1.27704L 115.272 -0.0963661L 116.571 2.60744L 119.027 1.42676L 117.728 -1.27704ZM 115.272 -0.0963891C 115.267 -0.094376 115.264 -0.0937651 115.261 -0.0937654L 115.261 2.90623C 115.715 2.90627 116.163 2.80392 116.571 2.60746L 115.272 -0.0963891ZM 115.261 -0.0937654L 53.5285 -0.0961496L 53.5284 2.90385L 115.261 2.90623L 115.261 -0.0937654ZM 52.5174 2.90385L 53.5285 2.90385L 53.5285 -0.0961496L 52.5174 -0.0961496L 52.5174 2.90385ZM 3.11669 2.90623L 52.5175 2.90385L 52.5174 -0.0961496L 3.11655 -0.0937654L 3.11669 2.90623ZM 1.8061 2.60739C 2.21484 2.80391 2.66258 2.90627 3.11675 2.90623L 3.1165 -0.0937654C 3.11365 -0.0937651 3.11016 -0.0943576 3.106 -0.0963594L 1.8061 2.60739ZM -0.649879 1.42677L 1.80617 2.60742L 3.10593 -0.0963932L 0.649879 -1.27705L -0.649879 1.42677ZM 52.5154 -1.49859L -0.00209793 -1.42513L 0.00209793 1.57486L 52.5196 1.50141L 52.5154 -1.49859ZM 54.0175 0.00141144L 54.0175 0L 51.0175 0L 51.0175 0.00141144L 54.0175 0.00141144ZM 52.5158 1.5L 53.0735 1.50063L 53.0769 -1.49937L 52.5192 -1.5L 52.5158 1.5Z"/>
<path id="path12_fill" fill-rule="evenodd" d="M 0 0L 0.608753 0.962622C 0.722141 1.14189 0.917758 1.25033 1.12786 1.25033L 6.26233 1.25033L 10.9433 1.25033L 16.0778 1.25033C 16.2879 1.25033 16.4835 1.14189 16.5969 0.962622L 17.2056 0L 10.9433 0L 6.26233 0L 0 0Z"/>
<path id="path13_stroke" d="M 0.608753 0.962622L -0.0251319 1.36348L -0.0251023 1.36353L 0.608753 0.962622ZM 0 0L 0 -0.75L -1.36168 -0.75L -0.633884 0.400862L 0 0ZM 16.5969 0.962622L 17.2307 1.36353L 17.2307 1.36348L 16.5969 0.962622ZM 17.2056 0L 17.8395 0.400862L 18.5673 -0.75L 17.2056 -0.75L 17.2056 0ZM 1.24264 0.56176L 0.633884 -0.400862L -0.633884 0.400862L -0.0251319 1.36348L 1.24264 0.56176ZM 1.12786 0.500328C 1.17798 0.500328 1.22018 0.526248 1.24261 0.561713L -0.0251023 1.36353C 0.224106 1.75754 0.657536 2.00033 1.12786 2.00033L 1.12786 0.500328ZM 6.26233 0.500328L 1.12786 0.500328L 1.12786 2.00033L 6.26233 2.00033L 6.26233 0.500328ZM 6.26233 2.00033L 10.9433 2.00033L 10.9433 0.500328L 6.26233 0.500328L 6.26233 2.00033ZM 10.9433 2.00033L 16.0778 2.00033L 16.0778 0.500328L 10.9433 0.500328L 10.9433 2.00033ZM 16.0778 2.00033C 16.5481 2.00033 16.9815 1.75754 17.2307 1.36353L 15.963 0.561713C 15.9854 0.526248 16.0276 0.500328 16.0778 0.500328L 16.0778 2.00033ZM 17.2307 1.36348L 17.8395 0.400862L 16.5717 -0.400862L 15.963 0.56176L 17.2307 1.36348ZM 17.2056 -0.75L 10.9433 -0.75L 10.9433 0.75L 17.2056 0.75L 17.2056 -0.75ZM 10.9433 -0.75L 6.26233 -0.75L 6.26233 0.75L 10.9433 0.75L 10.9433 -0.75ZM 0 0.75L 6.26233 0.75L 6.26233 -0.75L 0 -0.75L 0 0.75Z"/>
<path id="path14_fill" d="M 4.20184 12.7422L 3.15647 12.7422C 2.88042 12.7422 2.62474 12.6943 2.38942 12.5986C 2.15862 12.5075 1.9595 12.3753 1.79206 12.2021C 1.62915 12.029 1.50017 11.8262 1.40514 11.5937C 1.31463 11.3613 1.26938 11.1038 1.26938 10.8213L 1.26938 7.90917C 1.26938 7.53548 1.16303 7.29394 0.950336 7.18456C 0.737642 7.07063 0.420863 7.01367 0 7.01367L 0 5.74218C 0.420863 5.74218 0.737642 5.68977 0.950336 5.58496C 1.16303 5.47558 1.26938 5.22949 1.26938 4.84668L 1.26938 1.93457C 1.26938 1.65202 1.31463 1.39453 1.40514 1.16211C 1.50017 0.929687 1.62915 0.726887 1.79206 0.55371C 1.9595 0.380534 2.15862 0.246094 2.38942 0.150391C 2.62474 0.0501302 2.88042 0 3.15647 0L 4.20184 0L 4.20184 1.27148L 3.15647 1.27148C 2.91663 1.27148 2.75145 1.32161 2.66094 1.42187C 2.57496 1.51758 2.53197 1.68848 2.53197 1.93457L 2.53197 4.84668C 2.53197 5.27506 2.40073 5.62369 2.13826 5.89257C 1.88031 6.1569 1.58616 6.32096 1.2558 6.38476C 1.42324 6.4121 1.58163 6.46679 1.73097 6.54882C 1.88483 6.6263 2.01833 6.73339 2.13147 6.87011C 2.24913 7.00227 2.34416 7.15722 2.41657 7.33495C 2.4935 7.51269 2.53197 7.7041 2.53197 7.90917L 2.53197 10.8213C 2.53197 11.0628 2.57496 11.2314 2.66094 11.3271C 2.75145 11.4274 2.91663 11.4775 3.15647 11.4775L 4.20184 11.4775L 4.20184 12.7422Z"/>
<path id="path15_fill" d="M 20.0046 9.2832C 19.5973 9.69335 19.1674 9.97362 18.7148 10.124C 18.2668 10.2744 17.7803 10.3496 17.2554 10.3496C 16.7259 10.3496 16.244 10.2698 15.8095 10.1103C 15.3796 9.95084 15.013 9.72753 14.7098 9.44042C 14.4112 9.14876 14.1804 8.79784 14.0175 8.38769C 13.8591 7.97753 13.7799 7.51953 13.7799 7.01367C 13.7799 6.53059 13.8591 6.08398 14.0175 5.67382C 14.1804 5.25911 14.3976 4.90592 14.6691 4.61425C 14.9452 4.31803 15.2687 4.08789 15.6398 3.92382C 16.0109 3.75521 16.4046 3.6709 16.821 3.6709C 17.2554 3.6709 17.6333 3.76204 17.9546 3.94433C 18.2759 4.12662 18.5089 4.39323 18.6537 4.74414L 18.6537 3.82129L 19.9095 3.82129L 19.9095 6.78808L 18.6537 6.78808C 18.6537 6.22753 18.4999 5.78092 18.1922 5.44824C 17.8889 5.111 17.493 4.94238 17.0042 4.94238C 16.8096 4.94238 16.6037 4.98339 16.3865 5.06543C 16.1738 5.1429 15.977 5.26595 15.7959 5.43457C 15.6195 5.60319 15.4724 5.81738 15.3547 6.07714C 15.2371 6.33691 15.1782 6.64908 15.1782 7.01367C 15.1782 7.36913 15.2348 7.67675 15.3479 7.93652C 15.4611 8.19172 15.6081 8.40364 15.7892 8.57226C 15.9747 8.73632 16.1919 8.86165 16.4408 8.94823C 16.6942 9.03027 16.9544 9.07128 17.2214 9.07128C 17.6785 9.07128 18.0745 9.00064 18.4094 8.85937C 18.7488 8.71353 19.0407 8.52213 19.285 8.28515L 20.0046 9.2832Z"/>
<path id="path16_fill" d="M 27.9942 7.01367C 27.9942 7.51041 27.915 7.96158 27.7566 8.36718C 27.6027 8.77278 27.3787 9.12369 27.0846 9.41991C 26.795 9.71158 26.4465 9.93944 26.0392 10.1035C 25.6319 10.2676 25.1771 10.3496 24.6748 10.3496C 24.1815 10.3496 23.7313 10.2676 23.324 10.1035C 22.9167 9.93944 22.566 9.71158 22.2718 9.41991C 21.9822 9.12369 21.7582 8.77278 21.5998 8.36718C 21.4459 7.96158 21.369 7.51041 21.369 7.01367C 21.369 6.53059 21.4459 6.08398 21.5998 5.67382C 21.7582 5.25911 21.9822 4.90364 22.2718 4.60742C 22.566 4.30664 22.9167 4.07649 23.324 3.91699C 23.7313 3.75293 24.1815 3.6709 24.6748 3.6709C 25.1771 3.6709 25.6319 3.75293 26.0392 3.91699C 26.4465 4.07649 26.795 4.30664 27.0846 4.60742C 27.3787 4.90364 27.6027 5.25911 27.7566 5.67382C 27.915 6.08398 27.9942 6.53059 27.9942 7.01367ZM 26.5958 7.01367C 26.5958 6.72656 26.5506 6.4554 26.4601 6.20019C 26.3741 5.94042 26.2474 5.7194 26.0799 5.5371C 25.9125 5.35481 25.7089 5.21126 25.469 5.10644C 25.2337 4.99707 24.969 4.94238 24.6748 4.94238C 24.3761 4.94238 24.1091 4.99707 23.8738 5.10644C 23.6385 5.21126 23.4394 5.35481 23.2764 5.5371C 23.1135 5.7194 22.9868 5.94042 22.8963 6.20019C 22.8103 6.4554 22.7673 6.72656 22.7673 7.01367C 22.7673 7.31445 22.8103 7.58788 22.8963 7.83398C 22.9868 8.08007 23.1135 8.29654 23.2764 8.48339C 23.4394 8.67024 23.6385 8.81607 23.8738 8.92089C 24.1091 9.02115 24.3761 9.07128 24.6748 9.07128C 24.969 9.07128 25.2337 9.02115 25.469 8.92089C 25.7089 8.81607 25.9125 8.67024 26.0799 8.48339C 26.2474 8.29654 26.3741 8.08007 26.4601 7.83398C 26.5506 7.58788 26.5958 7.31445 26.5958 7.01367Z"/>
<path id="path17_fill" d="M 35.0878 10.1924L 33.6826 10.1924L 33.6826 9.60448C 33.4111 9.84602 33.1373 10.0306 32.8613 10.1582C 32.5852 10.2858 32.2707 10.3496 31.9177 10.3496C 31.5104 10.3496 31.1326 10.2676 30.7841 10.1035C 30.4356 9.93944 30.1347 9.71158 29.8813 9.41991C 29.6324 9.12369 29.4355 8.7705 29.2907 8.36034C 29.1504 7.95019 29.0803 7.5013 29.0803 7.01367C 29.0803 6.53059 29.1504 6.08398 29.2907 5.67382C 29.4355 5.25911 29.6324 4.90592 29.8813 4.61425C 30.1347 4.31803 30.4356 4.08789 30.7841 3.92382C 31.1326 3.75521 31.5104 3.6709 31.9177 3.6709C 32.2707 3.6709 32.5852 3.73242 32.8613 3.85547C 33.1373 3.97396 33.4111 4.15397 33.6826 4.3955L 33.6826 2.5498L 32.4608 2.5498L 32.4608 1.27148L 35.0878 1.27148L 35.0878 10.1924ZM 33.6826 5.5166C 33.5152 5.32975 33.298 5.18847 33.031 5.09277C 32.7685 4.99251 32.5173 4.94238 32.2775 4.94238C 31.748 4.94238 31.3158 5.13378 30.981 5.5166C 30.6506 5.89941 30.4854 6.39843 30.4854 7.01367C 30.4854 7.6289 30.6506 8.12564 30.981 8.5039C 31.3158 8.88215 31.748 9.07128 32.2775 9.07128C 32.5173 9.07128 32.7685 9.02343 33.031 8.92773C 33.298 8.82747 33.5152 8.68391 33.6826 8.49706L 33.6826 5.5166Z"/>
<path id="path18_fill" d="M 37.9727 7.54687C 38.0406 7.98437 38.2465 8.34895 38.5904 8.64062C 38.9389 8.92773 39.405 9.07128 39.9888 9.07128C 40.4459 9.07128 40.8418 9.00064 41.1767 8.85937C 41.5161 8.71353 41.808 8.52213 42.0524 8.28515L 42.7719 9.2832C 42.3646 9.69335 41.9325 9.97362 41.4754 10.124C 41.0228 10.2744 40.5273 10.3496 39.9888 10.3496C 39.5 10.3496 39.0452 10.2676 38.6244 10.1035C 38.2035 9.93944 37.8392 9.71158 37.5315 9.41991C 37.2238 9.12369 36.9817 8.77278 36.8052 8.36718C 36.6332 7.96158 36.5472 7.51041 36.5472 7.01367C 36.5472 6.53059 36.6264 6.08626 36.7848 5.68066C 36.9477 5.2705 37.174 4.91731 37.4636 4.62109C 37.7578 4.32031 38.1085 4.08789 38.5158 3.92382C 38.9231 3.75521 39.3733 3.6709 39.8666 3.6709C 40.378 3.6709 40.8418 3.75976 41.2582 3.9375C 41.6745 4.11067 42.0298 4.3636 42.3239 4.69629C 42.6226 5.02897 42.8556 5.43684 43.0231 5.91992C 43.1905 6.39843 43.2742 6.94075 43.2742 7.54687L 37.9727 7.54687ZM 41.6858 6.30273C 41.6134 5.89257 41.403 5.56445 41.0545 5.31836C 40.7061 5.0677 40.3101 4.94238 39.8666 4.94238C 39.4231 4.94238 39.0249 5.0677 38.6719 5.31836C 38.3189 5.56445 38.1062 5.89257 38.0338 6.30273L 41.6858 6.30273Z"/>
<path id="path19_fill" d="M 52.7233 11.4775L 53.7687 11.4775C 54.0085 11.4775 54.1714 11.4274 54.2574 11.3271C 54.3479 11.2314 54.3932 11.0628 54.3932 10.8213L 54.3932 7.88183C 54.3932 7.67675 54.4294 7.48535 54.5018 7.30761C 54.5787 7.12988 54.6737 6.97493 54.7869 6.84277C 54.9045 6.70605 55.038 6.59895 55.1874 6.52148C 55.3412 6.43945 55.5019 6.38476 55.6693 6.35742C 55.3345 6.29361 55.038 6.12955 54.7801 5.86523C 54.5221 5.59635 54.3932 5.24772 54.3932 4.81933L 54.3932 1.90723C 54.3932 1.66113 54.3479 1.49479 54.2574 1.4082C 54.1714 1.31706 54.0085 1.27148 53.7687 1.27148L 52.7233 1.27148L 52.7233 0L 53.7687 0C 54.0447 0 54.2981 0.0478515 54.5289 0.143555C 54.7597 0.2347 54.9588 0.364583 55.1263 0.533203C 55.2937 0.701822 55.4227 0.902343 55.5132 1.13476C 55.6082 1.36719 55.6558 1.62467 55.6558 1.90723L 55.6558 4.81933C 55.6558 5.20214 55.7621 5.44824 55.9748 5.55761C 56.1875 5.66243 56.502 5.71484 56.9184 5.71484L 56.9184 6.98632C 56.502 6.98632 56.1875 7.04329 55.9748 7.15722C 55.7621 7.2666 55.6558 7.50813 55.6558 7.88183L 55.6558 10.8213C 55.6558 11.1038 55.6082 11.3613 55.5132 11.5937C 55.4227 11.8262 55.2937 12.029 55.1263 12.2021C 54.9588 12.3753 54.7597 12.5075 54.5289 12.5986C 54.2981 12.6943 54.0447 12.7422 53.7687 12.7422L 52.7233 12.7422L 52.7233 11.4775Z"/>
<path id="path20_stroke_2x" d="M 4.20184 12.7422L 4.20184 14.2422L 5.70184 14.2422L 5.70184 12.7422L 4.20184 12.7422ZM 2.38942 12.5986L 2.95451 11.2091L 2.94746 11.2063L 2.94039 11.2035L 2.38942 12.5986ZM 1.79206 12.2021L 0.699526 13.2299L 0.706558 13.2374L 0.713691 13.2448L 1.79206 12.2021ZM 1.40514 11.5937L 0.0073809 12.138L 0.0119518 12.1498L 0.0167191 12.1614L 1.40514 11.5937ZM 0.950336 7.18456L 0.242058 8.50681L 0.253164 8.51276L 0.264367 8.51852L 0.950336 7.18456ZM 0 7.01367L -1.5 7.01367L -1.5 8.51367L 0 8.51367L 0 7.01367ZM 0 5.74218L 0 4.24218L -1.5 4.24218L -1.5 5.74218L 0 5.74218ZM 0.950336 5.58496L 1.6134 6.93044L 1.6249 6.92478L 1.63631 6.91892L 0.950336 5.58496ZM 1.40514 1.16211L 0.0167191 0.594405L 0.0119518 0.606064L 0.0073809 0.617802L 1.40514 1.16211ZM 1.79206 0.55371L 0.713691 -0.488938L 0.706558 -0.48156L 0.699526 -0.474085L 1.79206 0.55371ZM 2.38942 0.150391L 2.96398 1.53599L 2.97068 1.53321L 2.97736 1.53036L 2.38942 0.150391ZM 4.20184 0L 5.70184 0L 5.70184 -1.5L 4.20184 -1.5L 4.20184 0ZM 4.20184 1.27148L 4.20184 2.77148L 5.70184 2.77148L 5.70184 1.27148L 4.20184 1.27148ZM 2.66094 1.42187L 1.54751 0.416744L 1.54513 0.419393L 2.66094 1.42187ZM 2.13826 5.89257L 1.06489 4.84478L 1.06473 4.84494L 2.13826 5.89257ZM 1.2558 6.38476L 0.97136 4.91198L 1.01405 7.86515L 1.2558 6.38476ZM 1.73097 6.54882L 1.0088 7.86354L 1.03236 7.87648L 1.05638 7.88857L 1.73097 6.54882ZM 2.13147 6.87011L 0.97583 7.82641L 0.993108 7.84729L 1.01113 7.86753L 2.13147 6.87011ZM 2.41657 7.33495L 1.02742 7.90088L 1.03354 7.91591L 1.03999 7.9308L 2.41657 7.33495ZM 2.66094 11.3271L 1.54513 12.3296L 1.54751 12.3323L 2.66094 11.3271ZM 4.20184 11.4775L 5.70184 11.4775L 5.70184 9.97753L 4.20184 9.97753L 4.20184 11.4775ZM 20.0046 9.2832L 21.069 10.3401L 21.9651 9.43765L 21.2213 8.40598L 20.0046 9.2832ZM 18.7148 10.124L 18.2418 8.70055L 18.2375 8.70199L 18.7148 10.124ZM 15.8095 10.1103L 15.2877 11.5167L 15.2925 11.5184L 15.8095 10.1103ZM 14.7098 9.44042L 13.6619 10.5136L 13.6701 10.5217L 13.6785 10.5296L 14.7098 9.44042ZM 14.0175 8.38769L 12.6182 8.92805L 12.6208 8.93474L 12.6234 8.94141L 14.0175 8.38769ZM 14.0175 5.67382L 12.6213 5.12536L 12.6182 5.13346L 14.0175 5.67382ZM 14.6691 4.61425L 13.5717 3.59162L 13.5712 3.59218L 14.6691 4.61425ZM 15.6398 3.92382L 16.2464 5.29572L 16.2534 5.29262L 16.2604 5.28945L 15.6398 3.92382ZM 18.6537 4.74414L 17.2672 5.31634L 20.1537 4.74414L 18.6537 4.74414ZM 18.6537 3.82129L 18.6537 2.32129L 17.1537 2.32129L 17.1537 3.82129L 18.6537 3.82129ZM 19.9095 3.82129L 21.4095 3.82129L 21.4095 2.32129L 19.9095 2.32129L 19.9095 3.82129ZM 19.9095 6.78808L 19.9095 8.28808L 21.4095 8.28808L 21.4095 6.78808L 19.9095 6.78808ZM 18.6537 6.78808L 17.1537 6.78808L 17.1537 8.28808L 18.6537 8.28808L 18.6537 6.78808ZM 18.1922 5.44824L 17.0767 6.45111L 17.0838 6.459L 17.091 6.4668L 18.1922 5.44824ZM 16.3865 5.06543L 16.8999 6.47484L 16.9082 6.47182L 16.9164 6.4687L 16.3865 5.06543ZM 15.7959 5.43457L 14.7735 4.33699L 14.7666 4.34345L 14.7597 4.35L 15.7959 5.43457ZM 15.3479 7.93652L 13.9727 8.53548L 13.9766 8.54442L 15.3479 7.93652ZM 15.7892 8.57226L 14.7667 9.66984L 14.781 9.68309L 14.7955 9.69597L 15.7892 8.57226ZM 16.4408 8.94823L 15.948 10.365L 15.9634 10.3703L 15.9789 10.3753L 16.4408 8.94823ZM 18.4094 8.85937L 18.9924 10.2414L 19.0015 10.2375L 18.4094 8.85937ZM 19.285 8.28515L 20.5018 7.40793L 19.4868 6.00004L 18.2408 7.20833L 19.285 8.28515ZM 27.7566 8.36718L 26.3594 7.82155L 26.3567 7.82834L 26.3541 7.83515L 27.7566 8.36718ZM 27.0846 9.41991L 26.0202 8.36298L 26.0202 8.36298L 27.0846 9.41991ZM 22.2718 9.41991L 21.1993 10.4686L 21.2074 10.4769L 21.2157 10.4851L 22.2718 9.41991ZM 21.5998 8.36718L 20.1973 8.89921L 20.1999 8.90603L 20.2025 8.91281L 21.5998 8.36718ZM 21.5998 5.67382L 20.1985 5.13863L 20.1954 5.14697L 21.5998 5.67382ZM 22.2718 4.60742L 21.1994 3.55864L 21.1993 3.55877L 22.2718 4.60742ZM 23.324 3.91699L 23.871 5.3137L 23.8777 5.31106L 23.8844 5.30835L 23.324 3.91699ZM 26.0392 3.91699L 25.4787 5.30835L 25.4855 5.31106L 25.4922 5.3137L 26.0392 3.91699ZM 27.0846 4.60742L 26.0041 5.64785L 26.0121 5.65616L 26.0202 5.66435L 27.0846 4.60742ZM 27.7566 5.67382L 26.3503 6.19559L 26.3537 6.20491L 26.3573 6.21418L 27.7566 5.67382ZM 26.4601 6.20019L 25.0361 6.67154L 25.041 6.68661L 25.0463 6.70156L 26.4601 6.20019ZM 25.469 5.10644L 24.8368 6.46669L 24.8525 6.47399L 24.8683 6.48092L 25.469 5.10644ZM 23.8738 5.10644L 24.4841 6.47666L 24.4951 6.47176L 24.506 6.46669L 23.8738 5.10644ZM 22.8963 6.20019L 21.4798 5.70666L 21.4773 5.71395L 21.4748 5.72127L 22.8963 6.20019ZM 22.8963 7.83398L 21.4803 8.32873L 21.4843 8.34027L 21.4885 8.35174L 22.8963 7.83398ZM 23.8738 8.92089L 23.2635 10.2911L 23.2746 10.2961L 23.2859 10.3009L 23.8738 8.92089ZM 25.469 8.92089L 26.057 10.3009L 26.0697 10.2954L 25.469 8.92089ZM 26.4601 7.83398L 25.0523 7.31621L 25.048 7.32768L 25.044 7.33922L 26.4601 7.83398ZM 35.0878 10.1924L 35.0878 11.6924L 36.5878 11.6924L 36.5878 10.1924L 35.0878 10.1924ZM 33.6826 10.1924L 32.1826 10.1924L 32.1826 11.6924L 33.6826 11.6924L 33.6826 10.1924ZM 33.6826 9.60448L 35.1826 9.60448L 35.1826 6.26255L 32.6857 8.48374L 33.6826 9.60448ZM 29.8813 9.41991L 28.7329 10.3849L 28.7408 10.3944L 28.749 10.4037L 29.8813 9.41991ZM 29.2907 8.36034L 27.8714 8.84579L 27.8738 8.85277L 27.8763 8.85974L 29.2907 8.36034ZM 29.2907 5.67382L 27.8745 5.17931L 27.8714 5.18838L 29.2907 5.67382ZM 29.8813 4.61425L 28.7415 3.63914L 28.7403 3.64055L 29.8813 4.61425ZM 30.7841 3.92382L 31.4231 5.28093L 31.4303 5.27753L 31.4375 5.27405L 30.7841 3.92382ZM 32.8613 3.85547L 32.2506 5.22552L 32.2601 5.22975L 32.2696 5.23385L 32.8613 3.85547ZM 33.6826 4.3955L 32.6857 5.51625L 35.1826 7.73743L 35.1826 4.3955L 33.6826 4.3955ZM 33.6826 2.5498L 35.1826 2.5498L 35.1826 1.0498L 33.6826 1.0498L 33.6826 2.5498ZM 32.4608 2.5498L 30.9608 2.5498L 30.9608 4.0498L 32.4608 4.0498L 32.4608 2.5498ZM 32.4608 1.27148L 32.4608 -0.228517L 30.9608 -0.228517L 30.9608 1.27148L 32.4608 1.27148ZM 35.0878 1.27148L 36.5878 1.27148L 36.5878 -0.228517L 35.0878 -0.228517L 35.0878 1.27148ZM 33.6826 5.5166L 35.1826 5.5166L 35.1826 4.94284L 34.7997 4.51554L 33.6826 5.5166ZM 33.031 5.09277L 32.4957 6.49402L 32.5102 6.49956L 32.5248 6.5048L 33.031 5.09277ZM 30.981 5.5166L 29.852 4.52895L 29.8454 4.5366L 30.981 5.5166ZM 30.981 8.5039L 29.8512 9.49063L 29.8579 9.49821L 30.981 8.5039ZM 33.031 8.92773L 33.5448 10.337L 33.5516 10.3345L 33.5583 10.332L 33.031 8.92773ZM 33.6826 8.49706L 34.7997 9.49812L 35.1826 9.07082L 35.1826 8.49706L 33.6826 8.49706ZM 37.9727 7.54687L 37.9727 6.04687L 36.222 6.04687L 36.4905 7.77685L 37.9727 7.54687ZM 38.5904 8.64062L 37.6203 9.78463L 37.6284 9.79151L 37.6366 9.79828L 38.5904 8.64062ZM 41.1767 8.85937L 41.7598 10.2414L 41.7689 10.2375L 41.1767 8.85937ZM 42.0524 8.28515L 43.2691 7.40793L 42.2541 6.00004L 41.0081 7.20833L 42.0524 8.28515ZM 42.7719 9.2832L 43.8363 10.3401L 44.7325 9.43765L 43.9887 8.40598L 42.7719 9.2832ZM 41.4754 10.124L 41.0066 8.69916L 41.0023 8.70056L 41.4754 10.124ZM 37.5315 9.41991L 36.4912 10.5006L 36.4996 10.5086L 37.5315 9.41991ZM 36.8052 8.36718L 35.4241 8.95272L 35.4297 8.96568L 36.8052 8.36718ZM 36.7848 5.68066L 35.3907 5.12693L 35.3876 5.13503L 36.7848 5.68066ZM 37.4636 4.62109L 36.3912 3.57231L 36.3911 3.57244L 37.4636 4.62109ZM 38.5158 3.92382L 39.0762 5.31518L 39.0829 5.3125L 39.0896 5.30975L 38.5158 3.92382ZM 41.2582 3.9375L 40.6692 5.31711L 40.6821 5.32246L 41.2582 3.9375ZM 42.3239 4.69629L 41.2001 5.6899L 41.2077 5.69837L 42.3239 4.69629ZM 43.0231 5.91992L 41.6058 6.41117L 41.6073 6.41534L 43.0231 5.91992ZM 43.2742 7.54687L 43.2742 9.04687L 44.7742 9.04687L 44.7742 7.54687L 43.2742 7.54687ZM 41.6858 6.30273L 41.6858 7.80273L 43.4738 7.80273L 43.163 6.04196L 41.6858 6.30273ZM 41.0545 5.31836L 40.1786 6.5361L 40.1892 6.5436L 41.0545 5.31836ZM 38.6719 5.31836L 39.5298 6.54887L 39.5404 6.54137L 38.6719 5.31836ZM 38.0338 6.30273L 36.5567 6.04196L 36.2458 7.80273L 38.0338 7.80273L 38.0338 6.30273ZM 52.7233 11.4775L 52.7233 9.97753L 51.2233 9.97753L 51.2233 11.4775L 52.7233 11.4775ZM 54.2574 11.3271L 53.1676 10.2965L 53.1425 10.323L 53.1188 10.3507L 54.2574 11.3271ZM 54.5018 7.30761L 53.1252 6.71176L 53.1188 6.72666L 53.1126 6.74169L 54.5018 7.30761ZM 54.7869 6.84277L 53.6499 5.86431L 53.6474 5.86731L 54.7869 6.84277ZM 55.1874 6.52148L 55.8781 7.85297L 55.8856 7.84908L 55.8931 7.84511L 55.1874 6.52148ZM 55.6693 6.35742L 55.9111 7.83781L 55.9501 4.88392L 55.6693 6.35742ZM 54.7801 5.86523L 53.6976 6.9037L 53.7066 6.91287L 54.7801 5.86523ZM 54.2574 1.4082L 53.1663 2.43751L 53.1927 2.46549L 53.2205 2.49207L 54.2574 1.4082ZM 52.7233 1.27148L 51.2233 1.27148L 51.2233 2.77148L 52.7233 2.77148L 52.7233 1.27148ZM 52.7233 0L 52.7233 -1.5L 51.2233 -1.5L 51.2233 0L 52.7233 0ZM 54.5289 0.143555L 53.9544 1.52915L 53.9661 1.53403L 53.978 1.5387L 54.5289 0.143555ZM 55.5132 1.13476L 54.1155 1.67907L 54.12 1.69081L 54.1248 1.70247L 55.5132 1.13476ZM 55.9748 5.55761L 55.2888 6.89157L 55.3002 6.89743L 55.3117 6.9031L 55.9748 5.55761ZM 56.9184 5.71484L 58.4184 5.71484L 58.4184 4.21484L 56.9184 4.21484L 56.9184 5.71484ZM 56.9184 6.98632L 56.9184 8.48632L 58.4184 8.48632L 58.4184 6.98632L 56.9184 6.98632ZM 55.9748 7.15722L 56.6608 8.49118L 56.672 8.48542L 56.6831 8.47947L 55.9748 7.15722ZM 55.5132 11.5937L 54.1248 11.026L 54.12 11.0377L 54.1155 11.0494L 55.5132 11.5937ZM 54.5289 12.5986L 53.978 11.2035L 53.9661 11.2082L 53.9544 11.213L 54.5289 12.5986ZM 52.7233 12.7422L 51.2233 12.7422L 51.2233 14.2422L 52.7233 14.2422L 52.7233 12.7422ZM 4.20184 11.2422L 3.15647 11.2422L 3.15647 14.2422L 4.20184 14.2422L 4.20184 11.2422ZM 3.15647 11.2422C 3.05726 11.2422 2.99536 11.2257 2.95451 11.2091L 1.82433 13.9881C 2.25412 14.1629 2.70358 14.2422 3.15647 14.2422L 3.15647 11.2422ZM 2.94039 11.2035C 2.90236 11.1885 2.88468 11.1742 2.87043 11.1595L 0.713691 13.2448C 1.03432 13.5764 1.41488 13.8265 1.83845 13.9938L 2.94039 11.2035ZM 2.8846 11.1743C 2.85463 11.1425 2.82295 11.0979 2.79356 11.026L 0.0167191 12.1614C 0.177399 12.5544 0.403661 12.9154 0.699526 13.2299L 2.8846 11.1743ZM 2.8029 11.0494C 2.78833 11.012 2.76938 10.9422 2.76938 10.8213L -0.230622 10.8213C -0.230622 11.2655 -0.159066 11.7106 0.0073809 12.138L 2.8029 11.0494ZM 2.76938 10.8213L 2.76938 7.90917L -0.230622 7.90917L -0.230622 10.8213L 2.76938 10.8213ZM 2.76938 7.90917C 2.76938 7.31849 2.59524 6.34372 1.63631 5.85061L 0.264367 8.51852C 0.0328419 8.39947 -0.113079 8.21147 -0.183206 8.05219C -0.241149 7.92059 -0.230622 7.85009 -0.230622 7.90917L 2.76938 7.90917ZM 1.65861 5.86232C 1.12136 5.57453 0.509009 5.51367 0 5.51367L 0 8.51367C 0.146873 8.51367 0.238903 8.52393 0.287746 8.53271C 0.339704 8.54205 0.311827 8.54419 0.242058 8.50681L 1.65861 5.86232ZM 1.5 7.01367L 1.5 5.74218L -1.5 5.74218L -1.5 7.01367L 1.5 7.01367ZM 0 7.24218C 0.498858 7.24218 1.09152 7.18763 1.6134 6.93044L 0.287268 4.23947C 0.350315 4.2084 0.369276 4.21292 0.308395 4.22299C 0.251334 4.23243 0.152069 4.24218 0 4.24218L 0 7.24218ZM 1.63631 6.91892C 2.60619 6.42017 2.76938 5.42699 2.76938 4.84668L -0.230622 4.84668C -0.230622 4.91438 -0.242241 4.85043 -0.187314 4.72333C -0.120379 4.56843 0.0243014 4.37445 0.264367 4.251L 1.63631 6.91892ZM 2.76938 4.84668L 2.76938 1.93457L -0.230622 1.93457L -0.230622 4.84668L 2.76938 4.84668ZM 2.76938 1.93457C 2.76938 1.81368 2.78833 1.74383 2.8029 1.70642L 0.0073809 0.617802C -0.159066 1.04523 -0.230622 1.49035 -0.230622 1.93457L 2.76938 1.93457ZM 2.79356 1.72981C 2.82295 1.65794 2.85463 1.61336 2.8846 1.58151L 0.699526 -0.474085C 0.403661 -0.159583 0.177398 0.201435 0.0167191 0.594405L 2.79356 1.72981ZM 2.87043 1.59636C 2.88984 1.57629 2.9156 1.55605 2.96398 1.53599L 1.81486 -1.23521C 1.40164 -1.06386 1.02916 -0.815218 0.713691 -0.488938L 2.87043 1.59636ZM 2.97736 1.53036C 3.01246 1.51541 3.06631 1.5 3.15647 1.5L 3.15647 -1.5C 2.69453 -1.5 2.23701 -1.41515 1.80147 -1.22958L 2.97736 1.53036ZM 3.15647 1.5L 4.20184 1.5L 4.20184 -1.5L 3.15647 -1.5L 3.15647 1.5ZM 2.70184 0L 2.70184 1.27148L 5.70184 1.27148L 5.70184 0L 2.70184 0ZM 4.20184 -0.228517L 3.15647 -0.228517L 3.15647 2.77148L 4.20184 2.77148L 4.20184 -0.228517ZM 3.15647 -0.228517C 2.79952 -0.228517 2.07805 -0.17095 1.54751 0.416747L 3.77437 2.427C 3.59273 2.62821 3.39518 2.712 3.28832 2.74443C 3.1867 2.77527 3.13127 2.77148 3.15647 2.77148L 3.15647 -0.228517ZM 1.54513 0.419393C 1.06775 0.950737 1.03197 1.61363 1.03197 1.93457L 4.03197 1.93457C 4.03197 1.8902 4.03673 1.91684 4.01889 1.98777C 4.00179 2.05574 3.94581 2.23618 3.77675 2.42435L 1.54513 0.419393ZM 1.03197 1.93457L 1.03197 4.84668L 4.03197 4.84668L 4.03197 1.93457L 1.03197 1.93457ZM 1.03197 4.84668C 1.03197 4.87725 1.02962 4.89541 1.02831 4.9032C 1.02704 4.91069 1.02665 4.9091 1.02971 4.90099C 1.03286 4.89262 1.03811 4.88146 1.04571 4.86956C 1.05328 4.85768 1.06046 4.84931 1.06489 4.84478L 3.21163 6.94037C 3.78649 6.35148 4.03197 5.60721 4.03197 4.84668L 1.03197 4.84668ZM 1.06473 4.84494C 1.02713 4.88347 1.00271 4.89872 0.993524 4.90385C 0.98545 4.90835 0.979932 4.91032 0.97136 4.91198L 1.54024 7.85754C 2.20011 7.7301 2.76212 7.40098 3.21178 6.94021L 1.06473 4.84494ZM 1.01405 7.86515C 1.01459 7.86524 1.0131 7.865 1.01062 7.86415C 1.00815 7.8633 1.00735 7.86274 1.0088 7.86354L 2.45314 5.23411C 2.1549 5.07029 1.83413 4.95933 1.49756 4.90437L 1.01405 7.86515ZM 1.05638 7.88857C 1.04022 7.88044 1.02349 7.86982 1.00787 7.85728C 0.992343 7.84483 0.981771 7.83359 0.97583 7.82641L 3.28711 5.91382C 3.04592 5.62235 2.75018 5.3826 2.40556 5.20907L 1.05638 7.88857ZM 1.01113 7.86753C 1.0094 7.86559 1.00992 7.86575 1.01233 7.86968C 1.01483 7.87376 1.02033 7.88348 1.02742 7.90088L 3.80572 6.76903C 3.67436 6.4466 3.49219 6.14271 3.25181 5.8727L 1.01113 7.86753ZM 1.03999 7.9308C 1.03634 7.92236 1.03384 7.91393 1.03252 7.90735C 1.03124 7.90099 1.03197 7.9009 1.03197 7.90917L 4.03197 7.90917C 4.03197 7.51141 3.95624 7.11589 3.79315 6.73911L 1.03999 7.9308ZM 1.03197 7.90917L 1.03197 10.8213L 4.03197 10.8213L 4.03197 7.90917L 1.03197 7.90917ZM 1.03197 10.8213C 1.03197 11.1466 1.07089 11.8018 1.54513 12.3296L 3.77675 10.3247C 3.94261 10.5093 3.99948 10.6868 4.01771 10.7583C 4.03642 10.8317 4.03197 10.8615 4.03197 10.8213L 1.03197 10.8213ZM 1.54751 12.3323C 2.07805 12.92 2.79952 12.9775 3.15647 12.9775L 3.15647 9.97753C 3.13127 9.97753 3.1867 9.97374 3.28833 10.0046C 3.39518 10.037 3.59273 10.1208 3.77437 10.322L 1.54751 12.3323ZM 3.15647 12.9775L 4.20184 12.9775L 4.20184 9.97753L 3.15647 9.97753L 3.15647 12.9775ZM 2.70184 11.4775L 2.70184 12.7422L 5.70184 12.7422L 5.70184 11.4775L 2.70184 11.4775ZM 18.9402 8.22626C 18.6639 8.50453 18.4288 8.63842 18.2418 8.70056L 19.1879 11.5475C 19.906 11.3088 20.5307 10.8822 21.069 10.3401L 18.9402 8.22626ZM 18.2375 8.70199C 17.9594 8.79536 17.6359 8.8496 17.2554 8.8496L 17.2554 11.8496C 17.9248 11.8496 18.5743 11.7535 19.1922 11.546L 18.2375 8.70199ZM 17.2554 8.8496C 16.8772 8.8496 16.5733 8.79288 16.3265 8.70225L 15.2925 11.5184C 15.9146 11.7468 16.5746 11.8496 17.2554 11.8496L 17.2554 8.8496ZM 16.3313 8.70402C 16.0722 8.60788 15.8838 8.4863 15.7412 8.35125L 13.6785 10.5296C 14.1423 10.9688 14.687 11.2938 15.2878 11.5167L 16.3313 8.70402ZM 15.7578 8.36724C 15.6182 8.23087 15.5013 8.06001 15.4115 7.83397L 12.6234 8.94141C 12.8594 9.53568 13.2041 10.0666 13.6619 10.5136L 15.7578 8.36724ZM 15.4167 7.84733C 15.3342 7.63344 15.2799 7.36221 15.2799 7.01367L 12.2799 7.01367C 12.2799 7.67684 12.384 8.32162 12.6182 8.92805L 15.4167 7.84733ZM 15.2799 7.01367C 15.2799 6.69713 15.3312 6.43572 15.4167 6.21418L 12.6182 5.13346C 12.3869 5.73224 12.2799 6.36406 12.2799 7.01367L 15.2799 7.01367ZM 15.4136 6.22228C 15.5158 5.96212 15.638 5.77489 15.767 5.63633L 13.5712 3.59218C 13.1572 4.03695 12.845 4.5561 12.6213 5.12537L 15.4136 6.22228ZM 15.7665 5.63689C 15.9039 5.48939 16.0604 5.37793 16.2464 5.29572L 15.0333 2.55192C 14.477 2.79785 13.9864 3.14667 13.5717 3.59162L 15.7665 5.63689ZM 16.2604 5.28945C 16.4323 5.21132 16.614 5.1709 16.821 5.1709L 16.821 2.1709C 16.1953 2.1709 15.5895 2.29909 15.0193 2.5582L 16.2604 5.28945ZM 16.821 5.1709C 17.0419 5.1709 17.1556 5.21564 17.2144 5.24898L 18.6948 2.63968C 18.1109 2.30844 17.4689 2.1709 16.821 2.1709L 16.821 5.1709ZM 17.2144 5.24898C 17.2348 5.26058 17.2402 5.26728 17.241 5.26824C 17.2422 5.26957 17.2528 5.28142 17.2672 5.31634L 20.0403 4.17193C 19.7716 3.52082 19.3158 2.99202 18.6948 2.63968L 17.2144 5.24898ZM 20.1537 4.74414L 20.1537 3.82129L 17.1537 3.82129L 17.1537 4.74414L 20.1537 4.74414ZM 18.6537 5.32129L 19.9095 5.32129L 19.9095 2.32129L 18.6537 2.32129L 18.6537 5.32129ZM 18.4095 3.82129L 18.4095 6.78808L 21.4095 6.78808L 21.4095 3.82129L 18.4095 3.82129ZM 19.9095 5.28808L 18.6537 5.28808L 18.6537 8.28808L 19.9095 8.28808L 19.9095 5.28808ZM 20.1537 6.78808C 20.1537 5.94363 19.9147 5.10145 19.2933 4.42968L 17.091 6.4668C 17.0976 6.47391 17.1081 6.48621 17.1201 6.5213C 17.1339 6.56117 17.1537 6.64386 17.1537 6.78808L 20.1537 6.78808ZM 19.3076 4.44536C 18.696 3.76508 17.8813 3.44238 17.0042 3.44238L 17.0042 6.44238C 17.0401 6.44238 17.062 6.44546 17.0726 6.44747C 17.0827 6.4494 17.0842 6.45068 17.0801 6.44892C 17.0758 6.44709 17.0712 6.44444 17.0681 6.4422C 17.0652 6.44011 17.0683 6.44175 17.0767 6.45111L 19.3076 4.44536ZM 17.0042 3.44238C 16.5974 3.44238 16.2112 3.52822 15.8566 3.66215L 16.9164 6.4687C 16.9962 6.43857 17.0219 6.44238 17.0042 6.44238L 17.0042 3.44238ZM 15.8731 3.65601C 15.4547 3.80843 15.0879 4.04418 14.7735 4.33699L 16.8184 6.53214C 16.8661 6.48771 16.8929 6.47737 16.8999 6.47484L 15.8731 3.65601ZM 14.7597 4.35C 14.4231 4.67162 14.1721 5.05255 13.9883 5.45825L 16.7211 6.69604C 16.7726 6.58221 16.8158 6.53475 16.8321 6.51914L 14.7597 4.35ZM 13.9883 5.45825C 13.7617 5.95861 13.6782 6.4929 13.6782 7.01367L 16.6782 7.01367C 16.6782 6.80527 16.7124 6.7152 16.7211 6.69604L 13.9883 5.45825ZM 13.6782 7.01367C 13.6782 7.52448 13.7592 8.04519 13.9727 8.53547L 16.7232 7.33756C 16.7104 7.30832 16.6782 7.21379 16.6782 7.01367L 13.6782 7.01367ZM 13.9766 8.54442C 14.1613 8.96099 14.4197 9.34655 14.7667 9.66984L 16.8116 7.47468C 16.7966 7.46073 16.7608 7.42246 16.7192 7.32861L 13.9766 8.54442ZM 14.7955 9.69597C 15.1365 9.99749 15.5266 10.2184 15.948 10.365L 16.9337 7.53152C 16.8572 7.50492 16.8129 7.47516 16.7828 7.44855L 14.7955 9.69597ZM 15.9789 10.3753C 16.3819 10.5058 16.798 10.5713 17.2214 10.5713L 17.2214 7.57128C 17.1109 7.57128 17.0066 7.55475 16.9028 7.52114L 15.9789 10.3753ZM 17.2214 10.5713C 17.829 10.5713 18.4321 10.4778 18.9924 10.2414L 17.8263 7.47732C 17.7169 7.52349 17.528 7.57128 17.2214 7.57128L 17.2214 10.5713ZM 19.0015 10.2375C 19.4944 10.0258 19.9431 9.73652 20.3293 9.36197L 18.2408 7.20833C 18.1383 7.30774 18.0032 7.40129 17.8172 7.4812L 19.0015 10.2375ZM 18.0683 9.16237L 18.7878 10.1604L 21.2213 8.40598L 20.5018 7.40793L 18.0683 9.16237ZM 26.4942 7.01367C 26.4942 7.34976 26.441 7.61256 26.3594 7.82155L 29.1538 8.91281C 29.389 8.31061 29.4942 7.67106 29.4942 7.01367L 26.4942 7.01367ZM 26.3541 7.83515C 26.2719 8.05189 26.1603 8.22194 26.0202 8.36298L 28.149 10.4768C 28.5972 10.0254 28.9336 9.49367 29.1591 8.89921L 26.3541 7.83515ZM 26.0202 8.36298C 25.8837 8.50044 25.7102 8.61892 25.4787 8.71215L 26.5997 11.4949C 27.1828 11.26 27.7062 10.9227 28.149 10.4768L 26.0202 8.36298ZM 25.4787 8.71215C 25.2734 8.79487 25.0125 8.8496 24.6748 8.8496L 24.6748 11.8496C 25.3418 11.8496 25.9905 11.7403 26.5997 11.4949L 25.4787 8.71215ZM 24.6748 8.8496C 24.35 8.8496 24.0929 8.79613 23.8844 8.71215L 22.7635 11.4949C 23.3696 11.739 24.0131 11.8496 24.6748 11.8496L 24.6748 8.8496ZM 23.8844 8.71215C 23.6512 8.61818 23.4719 8.49745 23.328 8.35476L 21.2157 10.4851C 21.6601 10.9257 22.1822 11.2607 22.7635 11.4949L 23.8844 8.71215ZM 23.3443 8.37126C 23.2028 8.2265 23.0859 8.04912 22.997 7.82155L 20.2025 8.91281C 20.4305 9.49644 20.7616 10.0209 21.1993 10.4686L 23.3443 8.37126ZM 23.0023 7.83515C 22.9215 7.62229 22.869 7.35468 22.869 7.01367L 19.869 7.01367C 19.869 7.66614 19.9703 8.30087 20.1973 8.89921L 23.0023 7.83515ZM 22.869 7.01367C 22.869 6.69207 22.9197 6.42591 23.0042 6.20068L 20.1954 5.14697C 19.9721 5.74204 19.869 6.36912 19.869 7.01367L 22.869 7.01367ZM 23.0011 6.20901C 23.0915 5.97223 23.2084 5.79515 23.3443 5.65607L 21.1993 3.55877C 20.756 4.01213 20.4249 4.54599 20.1985 5.13864L 23.0011 6.20901ZM 23.3442 5.65619C 23.4839 5.51334 23.6534 5.39889 23.871 5.3137L 22.777 2.52028C 22.1799 2.7541 21.648 3.09993 21.1994 3.55864L 23.3442 5.65619ZM 23.8844 5.30835C 24.0929 5.22437 24.35 5.1709 24.6748 5.1709L 24.6748 2.1709C 24.0131 2.1709 23.3696 2.28148 22.7635 2.52563L 23.8844 5.30835ZM 24.6748 5.1709C 25.0125 5.1709 25.2734 5.22562 25.4787 5.30835L 26.5997 2.52563C 25.9905 2.28023 25.3418 2.1709 24.6748 2.1709L 24.6748 5.1709ZM 25.4922 5.3137C 25.7079 5.39815 25.8716 5.51033 26.0041 5.64785L 28.1651 3.56698C 27.7183 3.10295 27.1851 2.75484 26.5862 2.52028L 25.4922 5.3137ZM 26.0202 5.66435C 26.1546 5.79967 26.2664 5.96943 26.3503 6.19559L 29.1629 5.15206C 28.9391 4.54879 28.6029 4.00762 28.149 3.55049L 26.0202 5.66435ZM 26.3573 6.21418C 26.4429 6.43572 26.4942 6.69713 26.4942 7.01367L 29.4942 7.01367C 29.4942 6.36406 29.3871 5.73224 29.1559 5.13346L 26.3573 6.21418ZM 28.0958 7.01367C 28.0958 6.56611 28.0248 6.12451 27.8738 5.69882L 25.0463 6.70156C 25.0764 6.78628 25.0958 6.887 25.0958 7.01367L 28.0958 7.01367ZM 27.8841 5.72884C 27.7384 5.28881 27.5103 4.87696 27.1846 4.5224L 24.9752 6.55181C 24.9844 6.56183 25.0097 6.59204 25.0361 6.67154L 27.8841 5.72884ZM 27.1846 4.5224C 26.868 4.17768 26.4895 3.91545 26.0697 3.73196L 24.8683 6.48092C 24.9282 6.50707 24.957 6.53195 24.9752 6.55181L 27.1846 4.5224ZM 26.1012 3.74619C 25.643 3.53319 25.1581 3.44238 24.6748 3.44238L 24.6748 6.44238C 24.7798 6.44238 24.8244 6.46094 24.8368 6.46669L 26.1012 3.74619ZM 24.6748 3.44238C 24.1906 3.44238 23.7028 3.53184 23.2416 3.74619L 24.506 6.46669C 24.5155 6.4623 24.5616 6.44238 24.6748 6.44238L 24.6748 3.44238ZM 23.2635 3.73622C 22.8451 3.92257 22.4697 4.18875 22.158 4.53755L 24.3949 6.53666C 24.409 6.52087 24.4319 6.49994 24.4841 6.47666L 23.2635 3.73622ZM 22.158 4.53755C 21.8479 4.88458 21.6273 5.28353 21.4798 5.70666L 24.3128 6.69373C 24.3464 6.59732 24.3792 6.55421 24.3949 6.53666L 22.158 4.53755ZM 21.4748 5.72127C 21.3335 6.14071 21.2673 6.57451 21.2673 7.01367L 24.2673 7.01367C 24.2673 6.8786 24.2872 6.77008 24.3178 6.67911L 21.4748 5.72127ZM 21.2673 7.01367C 21.2673 7.45746 21.3309 7.90123 21.4803 8.32873L 24.3124 7.33922C 24.2898 7.27454 24.2673 7.17144 24.2673 7.01367L 21.2673 7.01367ZM 21.4885 8.35174C 21.6384 8.75942 21.856 9.13669 22.1459 9.46917L 24.407 7.49762C 24.3711 7.45639 24.3352 7.40073 24.3041 7.31621L 21.4885 8.35174ZM 22.1459 9.46917C 22.4578 9.82696 22.8368 10.1011 23.2635 10.2911L 24.4841 7.55067C 24.4401 7.53107 24.4209 7.51352 24.407 7.49762L 22.1459 9.46917ZM 23.2859 10.3009C 23.7356 10.4925 24.2075 10.5713 24.6748 10.5713L 24.6748 7.57128C 24.5447 7.57128 24.4827 7.54983 24.4617 7.54092L 23.2859 10.3009ZM 24.6748 10.5713C 25.1409 10.5713 25.6099 10.4913 26.057 10.3009L 24.8811 7.54092C 24.8574 7.55098 24.797 7.57128 24.6748 7.57128L 24.6748 10.5713ZM 26.0697 10.2954C 26.4977 10.1083 26.88 9.83827 27.197 9.48445L 24.9629 7.48234C 24.945 7.50221 24.92 7.52383 24.8683 7.54641L 26.0697 10.2954ZM 27.197 9.48445C 27.5017 9.14445 27.7275 8.75423 27.8761 8.32873L 25.044 7.33922C 25.0207 7.40591 24.9931 7.44863 24.9629 7.48234L 27.197 9.48445ZM 27.8679 8.35174C 28.0276 7.91737 28.0958 7.46548 28.0958 7.01367L 25.0958 7.01367C 25.0958 7.16341 25.0735 7.2584 25.0523 7.31621L 27.8679 8.35174ZM 35.0878 8.69237L 33.6826 8.69237L 33.6826 11.6924L 35.0878 11.6924L 35.0878 8.69237ZM 35.1826 10.1924L 35.1826 9.60448L 32.1826 9.60448L 32.1826 10.1924L 35.1826 10.1924ZM 32.6857 8.48374C 32.5034 8.64585 32.3512 8.74148 32.2319 8.79662L 33.4907 11.5198C 33.9235 11.3197 34.3188 11.0462 34.6796 10.7252L 32.6857 8.48374ZM 32.2319 8.79662C 32.1824 8.8195 32.0881 8.8496 31.9177 8.8496L 31.9177 11.8496C 32.4533 11.8496 32.988 11.7521 33.4907 11.5198L 32.2319 8.79662ZM 31.9177 8.8496C 31.7184 8.8496 31.5602 8.81099 31.4231 8.7464L 30.1451 11.4606C 30.7049 11.7242 31.3025 11.8496 31.9177 11.8496L 31.9177 8.8496ZM 31.4231 8.7464C 31.2638 8.67143 31.1307 8.57092 31.0136 8.43609L 28.749 10.4037C 29.1387 10.8522 29.6075 11.2075 30.1451 11.4606L 31.4231 8.7464ZM 31.0297 8.45497C 30.9102 8.31274 30.7974 8.12217 30.7051 7.86095L 27.8763 8.85974C 28.0737 9.41884 28.3546 9.93464 28.7329 10.3849L 31.0297 8.45497ZM 30.71 7.8749C 30.6294 7.63921 30.5803 7.35654 30.5803 7.01367L 27.5803 7.01367C 27.5803 7.64605 27.6715 8.26117 27.8714 8.84579L 30.71 7.8749ZM 30.5803 7.01367C 30.5803 6.67702 30.6289 6.39636 30.71 6.15927L 27.8714 5.18838C 27.672 5.77159 27.5803 6.38417 27.5803 7.01367L 30.5803 7.01367ZM 30.7069 6.16833C 30.7993 5.90374 30.9102 5.71928 31.0223 5.58795L 28.7403 3.64055C 28.3545 4.09256 28.0718 4.61448 27.8746 5.17932L 30.7069 6.16833ZM 31.0211 5.58937C 31.1382 5.45246 31.2691 5.35342 31.4231 5.28093L 30.1451 2.56672C 29.6022 2.82236 29.1312 3.1836 28.7415 3.63914L 31.0211 5.58937ZM 31.4375 5.27405C 31.5716 5.20914 31.7246 5.1709 31.9177 5.1709L 31.9177 2.1709C 31.2962 2.1709 30.6935 2.30127 30.1307 2.5736L 31.4375 5.27405ZM 31.9177 5.1709C 32.0953 5.1709 32.1963 5.20133 32.2506 5.22552L 33.472 2.48541C 32.9741 2.26351 32.4461 2.1709 31.9177 2.1709L 31.9177 5.1709ZM 32.2696 5.23385C 32.3703 5.27707 32.5101 5.36009 32.6857 5.51625L 34.6796 3.27476C 34.3121 2.94784 33.9043 2.67084 33.4529 2.47708L 32.2696 5.23385ZM 35.1826 4.3955L 35.1826 2.5498L 32.1826 2.5498L 32.1826 4.3955L 35.1826 4.3955ZM 33.6826 1.0498L 32.4608 1.0498L 32.4608 4.0498L 33.6826 4.0498L 33.6826 1.0498ZM 33.9608 2.5498L 33.9608 1.27148L 30.9608 1.27148L 30.9608 2.5498L 33.9608 2.5498ZM 32.4608 2.77148L 35.0878 2.77148L 35.0878 -0.228517L 32.4608 -0.228517L 32.4608 2.77148ZM 33.5878 1.27148L 33.5878 10.1924L 36.5878 10.1924L 36.5878 1.27148L 33.5878 1.27148ZM 34.7997 4.51554C 34.4452 4.11998 34.0077 3.84942 33.5371 3.68074L 32.5248 6.5048C 32.559 6.51705 32.574 6.52641 32.5763 6.52795C 32.578 6.52902 32.5727 6.52566 32.5655 6.51765L 34.7997 4.51554ZM 33.5662 3.69152C 33.1616 3.53696 32.7287 3.44238 32.2775 3.44238L 32.2775 6.44238C 32.3059 6.44238 32.3754 6.44805 32.4957 6.49402L 33.5662 3.69152ZM 32.2775 3.44238C 31.3356 3.44238 30.4847 3.80564 29.852 4.52897L 32.1099 6.50422C 32.1447 6.46451 32.1622 6.45809 32.1637 6.45744C 32.1667 6.45611 32.1968 6.44238 32.2775 6.44238L 32.2775 3.44238ZM 29.8454 4.5366C 29.2318 5.24762 28.9854 6.11994 28.9854 7.01367L 31.9854 7.01367C 31.9854 6.67692 32.0694 6.55119 32.1166 6.49659L 29.8454 4.5366ZM 28.9854 7.01367C 28.9854 7.90665 29.2315 8.78113 29.8512 9.49061L 32.1107 7.51719C 32.0697 7.47016 31.9854 7.35115 31.9854 7.01367L 28.9854 7.01367ZM 29.8579 9.49821C 30.4926 10.2152 31.342 10.5713 32.2775 10.5713L 32.2775 7.57128C 32.1944 7.57128 32.1621 7.55724 32.1576 7.55526C 32.1548 7.55405 32.1376 7.5475 32.1041 7.50959L 29.8579 9.49821ZM 32.2775 10.5713C 32.7189 10.5713 33.1443 10.483 33.5448 10.337L 32.5171 7.51848C 32.3927 7.56386 32.3158 7.57128 32.2775 7.57128L 32.2775 10.5713ZM 33.5583 10.332C 34.0203 10.1585 34.4502 9.8882 34.7997 9.49812L 32.5655 7.49601C 32.5706 7.49038 32.5728 7.48971 32.5671 7.49346C 32.5608 7.49763 32.5417 7.50917 32.5037 7.52347L 33.5583 10.332ZM 35.1826 8.49706L 35.1826 5.5166L 32.1826 5.5166L 32.1826 8.49706L 35.1826 8.49706ZM 36.4905 7.77685C 36.6147 8.57787 37.0069 9.2645 37.6203 9.78463L 39.5606 7.4966C 39.4861 7.43341 39.4665 7.39087 39.455 7.31689L 36.4905 7.77685ZM 37.6366 9.79828C 38.324 10.3646 39.1605 10.5713 39.9888 10.5713L 39.9888 7.57128C 39.6495 7.57128 39.5538 7.49081 39.5443 7.48296L 37.6366 9.79828ZM 39.9888 10.5713C 40.5964 10.5713 41.1994 10.4778 41.7598 10.2414L 40.5937 7.47732C 40.4842 7.52349 40.2953 7.57128 39.9888 7.57128L 39.9888 10.5713ZM 41.7689 10.2375C 42.2617 10.0258 42.7104 9.73652 43.0966 9.36197L 41.0081 7.20833C 40.9056 7.30774 40.7705 7.40129 40.5845 7.4812L 41.7689 10.2375ZM 40.8356 9.16237L 41.5552 10.1604L 43.9887 8.40598L 43.2691 7.40793L 40.8356 9.16237ZM 41.7075 8.22626C 41.4337 8.50201 41.198 8.63618 41.0066 8.69916L 41.9442 11.5489C 42.6669 11.3111 43.2955 10.8847 43.8363 10.3401L 41.7075 8.22626ZM 41.0023 8.70056C 40.7207 8.79416 40.3871 8.8496 39.9888 8.8496L 39.9888 11.8496C 40.6676 11.8496 41.325 11.7546 41.9484 11.5475L 41.0023 8.70056ZM 39.9888 8.8496C 39.6711 8.8496 39.4026 8.79694 39.1692 8.70594L 38.0796 11.5011C 38.6879 11.7382 39.329 11.8496 39.9888 11.8496L 39.9888 8.8496ZM 39.1692 8.70594C 38.9172 8.6077 38.7212 8.48084 38.5634 8.33122L 36.4996 10.5086C 36.9572 10.9423 37.4899 11.2712 38.0796 11.5011L 39.1692 8.70594ZM 38.5718 8.33925C 38.4115 8.18499 38.2811 7.99963 38.1806 7.76868L 35.4297 8.96568C 35.6822 9.54593 36.036 10.0624 36.4912 10.5006L 38.5718 8.33925ZM 38.1862 7.78166C 38.1021 7.58349 38.0472 7.33484 38.0472 7.01367L 35.0472 7.01367C 35.0472 7.68598 35.1643 8.33968 35.4242 8.9527L 38.1862 7.78166ZM 38.0472 7.01367C 38.0472 6.69688 38.0986 6.43995 38.182 6.22629L 35.3876 5.13503C 35.1542 5.73256 35.0472 6.3643 35.0472 7.01367L 38.0472 7.01367ZM 38.1789 6.23438C 38.2733 5.99666 38.3943 5.81481 38.5361 5.66974L 36.3911 3.57244C 35.9537 4.01982 35.6221 4.54435 35.3907 5.12694L 38.1789 6.23438ZM 38.536 5.66987C 38.6787 5.52395 38.8529 5.40516 39.0762 5.31518L 37.9553 2.53247C 37.3641 2.77061 36.8368 3.11667 36.3912 3.57231L 38.536 5.66987ZM 39.0896 5.30975C 39.2945 5.22491 39.5468 5.1709 39.8666 5.1709L 39.8666 2.1709C 39.1998 2.1709 38.5516 2.2855 37.942 2.5379L 39.0896 5.30975ZM 39.8666 5.1709C 40.2017 5.1709 40.4617 5.22846 40.6692 5.31705L 41.8471 2.55795C 41.2219 2.29106 40.5542 2.1709 39.8666 2.1709L 39.8666 5.1709ZM 40.6821 5.32246C 40.8919 5.40975 41.0589 5.53015 41.2002 5.68987L 43.4476 3.7027C 43.0006 3.19705 42.4571 2.8116 41.8342 2.55253L 40.6821 5.32246ZM 41.2077 5.69837C 41.3553 5.86269 41.4944 6.08981 41.6058 6.41117L 44.4404 5.42867C 44.2169 4.78388 43.8899 4.19524 43.4401 3.6942L 41.2077 5.69837ZM 41.6073 6.41534C 41.7093 6.70693 41.7742 7.07738 41.7742 7.54687L 44.7742 7.54687C 44.7742 6.80412 44.6718 6.08993 44.4389 5.4245L 41.6073 6.41534ZM 43.2742 6.04687L 37.9727 6.04687L 37.9727 9.04687L 43.2742 9.04687L 43.2742 6.04687ZM 43.163 6.04196C 43.0199 5.23177 42.5827 4.56124 41.9198 4.09311L 40.1892 6.5436C 40.2059 6.55541 40.2134 6.56283 40.2151 6.56452C 40.2165 6.56601 40.2144 6.56401 40.211 6.55878C 40.2077 6.5535 40.2056 6.54899 40.2049 6.54712C 40.2043 6.54546 40.2063 6.55012 40.2087 6.5635L 43.163 6.04196ZM 41.9304 4.10066C 41.3179 3.66005 40.6133 3.44238 39.8666 3.44238L 39.8666 6.44238C 40.0069 6.44238 40.0942 6.47536 40.1786 6.53605L 41.9304 4.10066ZM 39.8666 3.44238C 39.12 3.44238 38.4167 3.65986 37.8034 4.09534L 39.5404 6.54137C 39.633 6.47555 39.7262 6.44238 39.8666 6.44238L 39.8666 3.44238ZM 37.814 4.08788C 37.146 4.55359 36.7009 5.22479 36.5567 6.04196L 39.511 6.5635C 39.5131 6.55147 39.5148 6.54807 39.5137 6.55085C 39.5126 6.55385 39.5101 6.55915 39.5063 6.56492C 39.5026 6.57061 39.5004 6.57269 39.502 6.57099C 39.5039 6.56907 39.512 6.56121 39.5298 6.54883L 37.814 4.08788ZM 38.0338 7.80273L 41.6858 7.80273L 41.6858 4.80273L 38.0338 4.80273L 38.0338 7.80273ZM 52.7233 12.9775L 53.7687 12.9775L 53.7687 9.97753L 52.7233 9.97753L 52.7233 12.9775ZM 53.7687 12.9775C 54.1137 12.9775 54.8631 12.925 55.396 12.3036L 53.1188 10.3507C 53.307 10.1312 53.5176 10.0407 53.6296 10.0063C 53.736 9.97351 53.7948 9.97753 53.7687 9.97753L 53.7687 12.9775ZM 55.3472 12.3578C 55.8479 11.8284 55.8932 11.1591 55.8932 10.8213L 52.8932 10.8213C 52.8932 10.857 52.8889 10.8206 52.9105 10.7401C 52.9322 10.6594 52.9952 10.4788 53.1676 10.2965L 55.3472 12.3578ZM 55.8932 10.8213L 55.8932 7.88183L 52.8932 7.88183L 52.8932 10.8213L 55.8932 10.8213ZM 55.8932 7.88183C 55.8932 7.86793 55.8944 7.86235 55.8942 7.86325C 55.894 7.86436 55.893 7.86837 55.8909 7.87353L 53.1126 6.74169C 52.9621 7.11116 52.8932 7.49616 52.8932 7.88183L 55.8932 7.88183ZM 55.8784 7.90346C 55.9024 7.84799 55.9212 7.82433 55.9264 7.81823L 53.6474 5.86731C 53.4263 6.12553 53.2551 6.41176 53.1252 6.71176L 55.8784 7.90346ZM 55.9238 7.82122C 55.9258 7.81894 55.9227 7.82285 55.9139 7.82995C 55.9049 7.83718 55.8927 7.8454 55.8781 7.85297L 54.4966 5.18999C 54.1655 5.36179 53.8834 5.59309 53.6499 5.86431L 55.9238 7.82122ZM 55.8931 7.84511C 55.906 7.83822 55.9103 7.83793 55.9111 7.83781L 55.4276 4.87703C 55.0935 4.93159 54.7765 5.04067 54.4817 5.19784L 55.8931 7.84511ZM 55.9501 4.88392C 55.9422 4.88242 55.9159 4.88143 55.8536 4.81759L 53.7066 6.91287C 54.1602 7.37768 54.7267 7.70481 55.3886 7.83091L 55.9501 4.88392ZM 55.8625 4.8268C 55.8674 4.8319 55.8746 4.84051 55.8819 4.85217C 55.8892 4.86383 55.894 4.87435 55.8967 4.88165C 55.8993 4.88869 55.8986 4.88899 55.8971 4.88005C 55.8956 4.87081 55.8932 4.85124 55.8932 4.81933L 52.8932 4.81933C 52.8932 5.57233 53.1314 6.31345 53.6977 6.90366L 55.8625 4.8268ZM 55.8932 4.81933L 55.8932 1.90723L 52.8932 1.90723L 52.8932 4.81933L 55.8932 4.81933ZM 55.8932 1.90723C 55.8932 1.59977 55.862 0.867397 55.2943 0.324331L 53.2205 2.49207C 53.008 2.28884 52.9349 2.07658 52.9118 1.99167C 52.8882 1.90472 52.8932 1.86554 52.8932 1.90723L 55.8932 1.90723ZM 55.3485 0.378895C 54.81 -0.191962 54.0838 -0.228517 53.7687 -0.228517L 53.7687 2.77148C 53.804 2.77148 53.7588 2.776 53.6666 2.75021C 53.5744 2.7244 53.3648 2.64796 53.1663 2.43751L 55.3485 0.378895ZM 53.7687 -0.228517L 52.7233 -0.228517L 52.7233 2.77148L 53.7687 2.77148L 53.7687 -0.228517ZM 54.2233 1.27148L 54.2233 0L 51.2233 0L 51.2233 1.27148L 54.2233 1.27148ZM 52.7233 1.5L 53.7687 1.5L 53.7687 -1.5L 52.7233 -1.5L 52.7233 1.5ZM 53.7687 1.5C 53.8683 1.5 53.9239 1.51653 53.9544 1.52915L 55.1035 -1.24204C 54.6723 -1.42083 54.2212 -1.5 53.7687 -1.5L 53.7687 1.5ZM 53.978 1.5387C 54.0248 1.5572 54.0469 1.57499 54.0619 1.59013L 56.1907 -0.523728C 55.8708 -0.845823 55.4946 -1.0878 55.0799 -1.25159L 53.978 1.5387ZM 54.0619 1.59013C 54.077 1.60536 54.0959 1.62889 54.1155 1.67907L 56.911 0.590458C 56.7495 0.175799 56.5104 -0.201716 56.1907 -0.523728L 54.0619 1.59013ZM 54.1248 1.70247C 54.1375 1.73348 54.1558 1.79505 54.1558 1.90723L 57.1558 1.90723C 57.1558 1.45429 57.079 1.00089 56.9016 0.567061L 54.1248 1.70247ZM 54.1558 1.90723L 54.1558 4.81933L 57.1558 4.81933L 57.1558 1.90723L 54.1558 1.90723ZM 54.1558 4.81933C 54.1558 5.39966 54.319 6.39282 55.2888 6.89157L 56.6608 4.22365C 56.9008 4.3471 57.0455 4.54109 57.1125 4.69598C 57.1674 4.82308 57.1558 4.88703 57.1558 4.81933L 54.1558 4.81933ZM 55.3117 6.9031C 55.8321 7.15953 56.421 7.21484 56.9184 7.21484L 56.9184 4.21484C 56.7693 4.21484 56.6723 4.20518 56.6168 4.19593C 56.5578 4.1861 56.5763 4.18177 56.6379 4.21212L 55.3117 6.9031ZM 55.4184 5.71484L 55.4184 6.98632L 58.4184 6.98632L 58.4184 5.71484L 55.4184 5.71484ZM 56.9184 5.48632C 56.4106 5.48632 55.8021 5.54808 55.2665 5.83497L 56.6831 8.47947C 56.6148 8.51602 56.5875 8.5141 56.6375 8.50503C 56.6848 8.49647 56.7746 8.48632 56.9184 8.48632L 56.9184 5.48632ZM 55.2888 5.82326C 54.3299 6.31638 54.1558 7.29114 54.1558 7.88183L 57.1558 7.88183C 57.1558 7.82274 57.1663 7.89325 57.1083 8.02485C 57.0382 8.18413 56.8923 8.37212 56.6608 8.49118L 55.2888 5.82326ZM 54.1558 7.88183L 54.1558 10.8213L 57.1558 10.8213L 57.1558 7.88183L 54.1558 7.88183ZM 54.1558 10.8213C 54.1558 10.9335 54.1375 10.995 54.1248 11.026L 56.9016 12.1614C 57.079 11.7276 57.1558 11.2742 57.1558 10.8213L 54.1558 10.8213ZM 54.1155 11.0494C 54.0946 11.1029 54.0719 11.1347 54.0479 11.1595L 56.2047 13.2448C 56.5155 12.9233 56.7508 12.5494 56.911 12.138L 54.1155 11.0494ZM 54.0479 11.1595C 54.0337 11.1742 54.016 11.1885 53.978 11.2035L 55.0799 13.9938C 55.5035 13.8265 55.884 13.5764 56.2047 13.2448L 54.0479 11.1595ZM 53.9544 11.213C 53.9239 11.2256 53.8683 11.2422 53.7687 11.2422L 53.7687 14.2422C 54.2212 14.2422 54.6723 14.163 55.1035 13.9842L 53.9544 11.213ZM 53.7687 11.2422L 52.7233 11.2422L 52.7233 14.2422L 53.7687 14.2422L 53.7687 11.2422ZM 54.2233 12.7422L 54.2233 11.4775L 51.2233 11.4775L 51.2233 12.7422L 54.2233 12.7422Z"/>
</defs>
</svg>
