<svg width="238" height="140" viewBox="0 0 238 140" version="1.1" xmlns="http://www.w3.org/2000/svg" xmlns:xlink="http://www.w3.org/1999/xlink">
<title>programming</title>
<desc>Created using Figma</desc>
<g id="Canvas" transform="matrix(2 0 0 2 6274 3496)">
<g id="programming">
<g id="monitor">
<g id="background-monitor">
<use xlink:href="#path0_fill" transform="translate(-3126.21 -1748)" fill="#FFFFFF"/>
<mask id="mask0_outline_ins">
<use xlink:href="#path0_fill" fill="white" transform="translate(-3126.21 -1748)"/>
</mask>
<g mask="url(#mask0_outline_ins)">
<use xlink:href="#path1_stroke_2x" transform="translate(-3126.21 -1748)"/>
</g>
</g>
<g id="side-monitor">
<use xlink:href="#path2_fill" transform="translate(-3125.9 -1747.38)" fill="#FFFFFF"/>
<mask id="mask1_outline_ins">
<use xlink:href="#path2_fill" fill="white" transform="translate(-3125.9 -1747.38)"/>
</mask>
<g mask="url(#mask1_outline_ins)">
<use xlink:href="#path3_stroke_2x" transform="translate(-3125.9 -1747.38)"/>
</g>
</g>
<g id="monitor">
<use xlink:href="#path4_fill" transform="translate(-3123 -1744)" fill="#FFFFFF"/>
<mask id="mask2_outline_ins">
<use xlink:href="#path4_fill" fill="white" transform="translate(-3123 -1744)"/>
</mask>
<g mask="url(#mask2_outline_ins)">
<use xlink:href="#path5_stroke_2x" transform="translate(-3123 -1744)"/>
</g>
</g>
<g id="camera">
<use xlink:href="#path6_fill" transform="translate(-3078.02 -1746.11)" fill="#FFFFFF"/>
<mask id="mask3_outline_ins">
<use xlink:href="#path6_fill" fill="white" transform="translate(-3078.02 -1746.11)"/>
</mask>
<g mask="url(#mask3_outline_ins)">
<use xlink:href="#path7_stroke_2x" transform="translate(-3078.02 -1746.11)"/>
</g>
</g>
</g>
<g id="base">
<g id="middle">
<use xlink:href="#path8_fill" transform="translate(-3137 -1681.44)" fill="#FFFFFF"/>
<mask id="mask4_outline_ins">
<use xlink:href="#path8_fill" fill="white" transform="translate(-3137 -1681.44)"/>
</mask>
<g mask="url(#mask4_outline_ins)">
<use xlink:href="#path9_stroke_2x" transform="translate(-3137 -1681.44)"/>
</g>
</g>
<g id="bottom">
<use xlink:href="#path10_fill" transform="translate(-3136.69 -1679.41)" fill="#FFFFFF"/>
<mask id="mask5_outline_ins">
<use xlink:href="#path10_fill" fill="white" transform="translate(-3136.69 -1679.41)"/>
</mask>
<g mask="url(#mask5_outline_ins)">
<use xlink:href="#path11_stroke_2x" transform="translate(-3136.69 -1679.41)"/>
</g>
</g>
<g id="small-bottom">
<use xlink:href="#path12_fill" transform="translate(-3086.1 -1681.44)" fill="#FFFFFF"/>
<use xlink:href="#path13_stroke" transform="translate(-3086.1 -1681.44)"/>
</g>
</g>
<g id="shape">
<g id="code">
<use xlink:href="#path14_fill" transform="translate(-3106 -1721)"/>
<use xlink:href="#path15_fill" transform="translate(-3106 -1721)"/>
<use xlink:href="#path16_fill" transform="translate(-3106 -1721)"/>
<use xlink:href="#path17_fill" transform="translate(-3106 -1721)"/>
<use xlink:href="#path18_fill" transform="translate(-3106 -1721)"/>
<use xlink:href="#path19_fill" transform="translate(-3106 -1721)"/>
</g>
</g>
</g>
</g>
<defs>
<path id="path0_fill" d="M 0 5C 0 2.23858 2.23858 0 5 0L 92.4197 0C 95.1811 0 97.4197 2.23858 97.4197 5L 97.4197 66.5627L 0 66.5627L 0 5Z"/>
<path id="path1_stroke_2x" d="M 97.4197 66.5627L 97.4197 68.0627L 98.9197 68.0627L 98.9197 66.5627L 97.4197 66.5627ZM 0 66.5627L -1.5 66.5627L -1.5 68.0627L 0 68.0627L 0 66.5627ZM 5 1.5L 92.4197 1.5L 92.4197 -1.5L 5 -1.5L 5 1.5ZM 95.9197 5L 95.9197 66.5627L 98.9197 66.5627L 98.9197 5L 95.9197 5ZM 97.4197 65.0627L 0 65.0627L 0 68.0627L 97.4197 68.0627L 97.4197 65.0627ZM 1.5 66.5627L 1.5 5L -1.5 5L -1.5 66.5627L 1.5 66.5627ZM 92.4197 1.5C 94.3527 1.5 95.9197 3.067 95.9197 5L 98.9197 5C 98.9197 1.41015 96.0095 -1.5 92.4197 -1.5L 92.4197 1.5ZM 5 -1.5C 1.41015 -1.5 -1.5 1.41015 -1.5 5L 1.5 5C 1.5 3.067 3.067 1.5 5 1.5L 5 -1.5Z"/>
<path id="path2_fill" d="M 0 4C 0 1.79086 1.79086 0 4 0L 92.8031 0C 95.0122 0 96.8031 1.79086 96.8031 4L 96.8031 65.9377L 0 65.9377L 0 4Z"/>
<path id="path3_stroke_2x" d="M 96.8031 65.9377L 96.8031 67.4377L 98.3031 67.4377L 98.3031 65.9377L 96.8031 65.9377ZM 0 65.9377L -1.5 65.9377L -1.5 67.4377L 0 67.4377L 0 65.9377ZM 4 1.5L 92.8031 1.5L 92.8031 -1.5L 4 -1.5L 4 1.5ZM 95.3031 4L 95.3031 65.9377L 98.3031 65.9377L 98.3031 4L 95.3031 4ZM 96.8031 64.4377L 0 64.4377L 0 67.4377L 96.8031 67.4377L 96.8031 64.4377ZM 1.5 65.9377L 1.5 4L -1.5 4L -1.5 65.9377L 1.5 65.9377ZM 92.8031 1.5C 94.1838 1.5 95.3031 2.61929 95.3031 4L 98.3031 4C 98.3031 0.962435 95.8407 -1.5 92.8031 -1.5L 92.8031 1.5ZM 4 -1.5C 0.962434 -1.5 -1.5 0.962434 -1.5 4L 1.5 4C 1.5 2.61929 2.61929 1.5 4 1.5L 4 -1.5Z"/>
<path id="path4_fill" d="M 0 1C 0 0.447716 0.447715 0 1 0L 89.6373 0C 90.1896 0 90.6373 0.447715 90.6373 1L 90.6373 57.1252C 90.6373 57.6774 90.1896 58.1252 89.6373 58.1252L 1 58.1252C 0.447716 58.1252 0 57.6774 0 57.1252L 0 1Z"/>
<path id="path5_stroke_2x" d="M 1 1.5L 89.6373 1.5L 89.6373 -1.5L 1 -1.5L 1 1.5ZM 89.1373 1L 89.1373 57.1252L 92.1373 57.1252L 92.1373 1L 89.1373 1ZM 89.6373 56.6252L 1 56.6252L 1 59.6252L 89.6373 59.6252L 89.6373 56.6252ZM 1.5 57.1252L 1.5 1L -1.5 1L -1.5 57.1252L 1.5 57.1252ZM 1 56.6252C 1.27614 56.6252 1.5 56.849 1.5 57.1252L -1.5 57.1252C -1.5 58.5059 -0.380709 59.6252 1 59.6252L 1 56.6252ZM 89.1373 57.1252C 89.1373 56.849 89.3612 56.6252 89.6373 56.6252L 89.6373 59.6252C 91.018 59.6252 92.1373 58.5059 92.1373 57.1252L 89.1373 57.1252ZM 89.6373 1.5C 89.3612 1.5 89.1373 1.27614 89.1373 1L 92.1373 1C 92.1373 -0.380714 91.018 -1.5 89.6373 -1.5L 89.6373 1.5ZM 1 -1.5C -0.380713 -1.5 -1.5 -0.38071 -1.5 1L 1.5 1C 1.5 1.27614 1.27614 1.5 1 1.5L 1 -1.5Z"/>
<path id="path6_fill" d="M 1.04865 0.531487C 1.04865 0.825019 0.813903 1.06297 0.524326 1.06297C 0.234749 1.06297 0 0.825019 0 0.531487C 0 0.237955 0.234749 0 0.524326 0C 0.813903 0 1.04865 0.237955 1.04865 0.531487Z"/>
<path id="path7_stroke_2x" d="M -0.451349 0.531487C -0.451349 0.015841 -0.0336436 -0.437026 0.524326 -0.437026L 0.524326 2.56297C 1.66145 2.56297 2.54865 1.6342 2.54865 0.531487L -0.451349 0.531487ZM 0.524326 -0.437026C 1.08229 -0.437026 1.5 0.015841 1.5 0.531487L -1.5 0.531487C -1.5 1.6342 -0.612798 2.56297 0.524326 2.56297L 0.524326 -0.437026ZM 1.5 0.531487C 1.5 1.04713 1.08229 1.5 0.524326 1.5L 0.524326 -1.5C -0.612798 -1.5 -1.5 -0.571223 -1.5 0.531487L 1.5 0.531487ZM 0.524326 1.5C -0.0336436 1.5 -0.451349 1.04713 -0.451349 0.531487L 2.54865 0.531487C 2.54865 -0.571223 1.66145 -1.5 0.524326 -1.5L 0.524326 1.5Z"/>
<path id="path8_fill" d="M 0 0.729169C 0 0.32646 0.32646 0 0.729169 0L 118.271 0C 118.674 0 119 0.32646 119 0.729169C 119 1.53459 118.347 2.18751 117.542 2.18751L 1.45834 2.18751C 0.65292 2.18751 0 1.53459 0 0.729169Z"/>
<path id="path9_stroke_2x" d="M 0.729169 1.5L 118.271 1.5L 118.271 -1.5L 0.729169 -1.5L 0.729169 1.5ZM 117.542 0.687506L 1.45834 0.687506L 1.45834 3.68751L 117.542 3.68751L 117.542 0.687506ZM 1.45834 0.687506C 1.46132 0.687506 1.46795 0.688406 1.47501 0.691396C 1.48108 0.693963 1.48512 0.697029 1.4878 0.699708C 1.49048 0.702388 1.49354 0.706421 1.49611 0.712491C 1.4991 0.719561 1.5 0.726183 1.5 0.729169L -1.5 0.729169C -1.5 2.36301 -0.175507 3.68751 1.45834 3.68751L 1.45834 0.687506ZM 117.5 0.729169C 117.5 0.726183 117.501 0.719561 117.504 0.712491C 117.506 0.706421 117.51 0.702388 117.512 0.699708C 117.515 0.697029 117.519 0.693963 117.525 0.691396C 117.532 0.688406 117.539 0.687506 117.542 0.687506L 117.542 3.68751C 119.176 3.68751 120.5 2.36301 120.5 0.729169L 117.5 0.729169ZM 118.271 1.5C 117.845 1.5 117.5 1.15489 117.5 0.729169L 120.5 0.729169C 120.5 -0.501967 119.502 -1.5 118.271 -1.5L 118.271 1.5ZM 0.729169 -1.5C -0.501967 -1.5 -1.5 -0.501967 -1.5 0.729169L 1.5 0.729169C 1.5 1.15489 1.15489 1.5 0.729169 1.5L 0.729169 -1.5Z"/>
<path id="path10_fill" fill-rule="evenodd" d="M 53.0752 0.000629427L 53.5284 0L 118.377 0.0748636L 115.921 1.25553C 115.715 1.35477 115.489 1.40625 115.261 1.40623L 53.5285 1.40385L 52.5174 1.40385L 3.11662 1.40623C 2.88811 1.40625 2.6625 1.35477 2.45605 1.25552L 0 0.0748636L 52.5175 0.00141144L 52.5175 0L 53.0752 0.000629427Z"/>
<path id="path11_stroke_2x" d="M 53.5284 0L 53.5301 -1.5L 53.5263 -1.5L 53.5284 0ZM 53.0752 0.000629427L 53.0735 1.50063L 53.0772 1.50063L 53.0752 0.000629427ZM 118.377 0.0748636L 119.027 1.42676L 118.379 -1.42514L 118.377 0.0748636ZM 115.921 1.25553L 116.571 2.60746L 116.571 2.60744L 115.921 1.25553ZM 115.261 1.40623L 115.261 -0.0937654L 115.261 -0.0937654L 115.261 1.40623ZM 53.5285 1.40385L 53.5285 -0.0961496L 53.5285 -0.0961496L 53.5285 1.40385ZM 52.5174 1.40385L 52.5174 -0.0961496L 52.5174 -0.0961496L 52.5174 1.40385ZM 3.11662 1.40623L 3.11655 -0.0937654L 3.1165 -0.0937654L 3.11662 1.40623ZM 2.45605 1.25552L 3.106 -0.0963594L 3.10593 -0.0963932L 2.45605 1.25552ZM 0 0.0748636L -0.00209793 -1.42513L -0.649879 1.42677L 0 0.0748636ZM 52.5175 0.00141144L 52.5196 1.50141L 54.0175 1.49932L 54.0175 0.00141144L 52.5175 0.00141144ZM 52.5175 0L 52.5192 -1.5L 51.0175 -1.50169L 51.0175 0L 52.5175 0ZM 53.5263 -1.5L 53.0731 -1.49937L 53.0772 1.50063L 53.5305 1.5L 53.5263 -1.5ZM 53.5267 1.5L 118.376 1.57486L 118.379 -1.42514L 53.5301 -1.5L 53.5267 1.5ZM 117.728 -1.27704L 115.272 -0.0963661L 116.571 2.60744L 119.027 1.42676L 117.728 -1.27704ZM 115.272 -0.0963891C 115.267 -0.094376 115.264 -0.0937651 115.261 -0.0937654L 115.261 2.90623C 115.715 2.90627 116.163 2.80392 116.571 2.60746L 115.272 -0.0963891ZM 115.261 -0.0937654L 53.5285 -0.0961496L 53.5284 2.90385L 115.261 2.90623L 115.261 -0.0937654ZM 52.5174 2.90385L 53.5285 2.90385L 53.5285 -0.0961496L 52.5174 -0.0961496L 52.5174 2.90385ZM 3.11669 2.90623L 52.5175 2.90385L 52.5174 -0.0961496L 3.11655 -0.0937654L 3.11669 2.90623ZM 1.8061 2.60739C 2.21484 2.80391 2.66258 2.90627 3.11675 2.90623L 3.1165 -0.0937654C 3.11365 -0.0937651 3.11016 -0.0943576 3.106 -0.0963594L 1.8061 2.60739ZM -0.649879 1.42677L 1.80617 2.60742L 3.10593 -0.0963932L 0.649879 -1.27705L -0.649879 1.42677ZM 52.5154 -1.49859L -0.00209793 -1.42513L 0.00209793 1.57486L 52.5196 1.50141L 52.5154 -1.49859ZM 54.0175 0.00141144L 54.0175 0L 51.0175 0L 51.0175 0.00141144L 54.0175 0.00141144ZM 52.5158 1.5L 53.0735 1.50063L 53.0769 -1.49937L 52.5192 -1.5L 52.5158 1.5Z"/>
<path id="path12_fill" fill-rule="evenodd" d="M 0 0L 0.608753 0.962622C 0.722141 1.14189 0.917758 1.25033 1.12786 1.25033L 6.26233 1.25033L 10.9433 1.25033L 16.0778 1.25033C 16.2879 1.25033 16.4835 1.14189 16.5969 0.962622L 17.2056 0L 10.9433 0L 6.26233 0L 0 0Z"/>
<path id="path13_stroke" d="M 0.608753 0.962622L -0.0251319 1.36348L -0.0251023 1.36353L 0.608753 0.962622ZM 0 0L 0 -0.75L -1.36168 -0.75L -0.633884 0.400862L 0 0ZM 16.5969 0.962622L 17.2307 1.36353L 17.2307 1.36348L 16.5969 0.962622ZM 17.2056 0L 17.8395 0.400862L 18.5673 -0.75L 17.2056 -0.75L 17.2056 0ZM 1.24264 0.56176L 0.633884 -0.400862L -0.633884 0.400862L -0.0251319 1.36348L 1.24264 0.56176ZM 1.12786 0.500328C 1.17798 0.500328 1.22018 0.526248 1.24261 0.561713L -0.0251023 1.36353C 0.224106 1.75754 0.657536 2.00033 1.12786 2.00033L 1.12786 0.500328ZM 6.26233 0.500328L 1.12786 0.500328L 1.12786 2.00033L 6.26233 2.00033L 6.26233 0.500328ZM 6.26233 2.00033L 10.9433 2.00033L 10.9433 0.500328L 6.26233 0.500328L 6.26233 2.00033ZM 10.9433 2.00033L 16.0778 2.00033L 16.0778 0.500328L 10.9433 0.500328L 10.9433 2.00033ZM 16.0778 2.00033C 16.5481 2.00033 16.9815 1.75754 17.2307 1.36353L 15.963 0.561713C 15.9854 0.526248 16.0276 0.500328 16.0778 0.500328L 16.0778 2.00033ZM 17.2307 1.36348L 17.8395 0.400862L 16.5717 -0.400862L 15.963 0.56176L 17.2307 1.36348ZM 17.2056 -0.75L 10.9433 -0.75L 10.9433 0.75L 17.2056 0.75L 17.2056 -0.75ZM 10.9433 -0.75L 6.26233 -0.75L 6.26233 0.75L 10.9433 0.75L 10.9433 -0.75ZM 0 0.75L 6.26233 0.75L 6.26233 -0.75L 0 -0.75L 0 0.75Z"/>
<path id="path14_fill" d="M 4.20184 12.7422L 3.15647 12.7422C 2.88042 12.7422 2.62474 12.6943 2.38942 12.5986C 2.15862 12.5075 1.9595 12.3753 1.79206 12.2021C 1.62915 12.029 1.50017 11.8262 1.40514 11.5937C 1.31463 11.3613 1.26938 11.1038 1.26938 10.8213L 1.26938 7.90917C 1.26938 7.53548 1.16303 7.29394 0.950336 7.18456C 0.737642 7.07063 0.420863 7.01367 0 7.01367L 0 5.74218C 0.420863 5.74218 0.737642 5.68977 0.950336 5.58496C 1.16303 5.47558 1.26938 5.22949 1.26938 4.84668L 1.26938 1.93457C 1.26938 1.65202 1.31463 1.39453 1.40514 1.16211C 1.50017 0.929687 1.62915 0.726887 1.79206 0.55371C 1.9595 0.380534 2.15862 0.246094 2.38942 0.150391C 2.62474 0.0501302 2.88042 0 3.15647 0L 4.20184 0L 4.20184 1.27148L 3.15647 1.27148C 2.91663 1.27148 2.75145 1.32161 2.66094 1.42187C 2.57496 1.51758 2.53197 1.68848 2.53197 1.93457L 2.53197 4.84668C 2.53197 5.27506 2.40073 5.62369 2.13826 5.89257C 1.88031 6.1569 1.58616 6.32096 1.2558 6.38476C 1.42324 6.4121 1.58163 6.46679 1.73097 6.54882C 1.88483 6.6263 2.01833 6.73339 2.13147 6.87011C 2.24913 7.00227 2.34416 7.15722 2.41657 7.33495C 2.4935 7.51269 2.53197 7.7041 2.53197 7.90917L 2.53197 10.8213C 2.53197 11.0628 2.57496 11.2314 2.66094 11.3271C 2.75145 11.4274 2.91663 11.4775 3.15647 11.4775L 4.20184 11.4775L 4.20184 12.7422Z"/>
<path id="path15_fill" d="M 20.0046 9.2832C 19.5973 9.69335 19.1674 9.97362 18.7148 10.124C 18.2668 10.2744 17.7803 10.3496 17.2554 10.3496C 16.7259 10.3496 16.244 10.2698 15.8095 10.1103C 15.3796 9.95084 15.013 9.72753 14.7098 9.44042C 14.4112 9.14876 14.1804 8.79784 14.0175 8.38769C 13.8591 7.97753 13.7799 7.51953 13.7799 7.01367C 13.7799 6.53059 13.8591 6.08398 14.0175 5.67382C 14.1804 5.25911 14.3976 4.90592 14.6691 4.61425C 14.9452 4.31803 15.2687 4.08789 15.6398 3.92382C 16.0109 3.75521 16.4046 3.6709 16.821 3.6709C 17.2554 3.6709 17.6333 3.76204 17.9546 3.94433C 18.2759 4.12662 18.5089 4.39323 18.6537 4.74414L 18.6537 3.82129L 19.9095 3.82129L 19.9095 6.78808L 18.6537 6.78808C 18.6537 6.22753 18.4999 5.78092 18.1922 5.44824C 17.8889 5.111 17.493 4.94238 17.0042 4.94238C 16.8096 4.94238 16.6037 4.98339 16.3865 5.06543C 16.1738 5.1429 15.977 5.26595 15.7959 5.43457C 15.6195 5.60319 15.4724 5.81738 15.3547 6.07714C 15.2371 6.33691 15.1782 6.64908 15.1782 7.01367C 15.1782 7.36913 15.2348 7.67675 15.3479 7.93652C 15.4611 8.19172 15.6081 8.40364 15.7892 8.57226C 15.9747 8.73632 16.1919 8.86165 16.4408 8.94823C 16.6942 9.03027 16.9544 9.07128 17.2214 9.07128C 17.6785 9.07128 18.0745 9.00064 18.4094 8.85937C 18.7488 8.71353 19.0407 8.52213 19.285 8.28515L 20.0046 9.2832Z"/>
<path id="path16_fill" d="M 27.9942 7.01367C 27.9942 7.51041 27.915 7.96158 27.7566 8.36718C 27.6027 8.77278 27.3787 9.12369 27.0846 9.41991C 26.795 9.71158 26.4465 9.93944 26.0392 10.1035C 25.6319 10.2676 25.1771 10.3496 24.6748 10.3496C 24.1815 10.3496 23.7313 10.2676 23.324 10.1035C 22.9167 9.93944 22.566 9.71158 22.2718 9.41991C 21.9822 9.12369 21.7582 8.77278 21.5998 8.36718C 21.4459 7.96158 21.369 7.51041 21.369 7.01367C 21.369 6.53059 21.4459 6.08398 21.5998 5.67382C 21.7582 5.25911 21.9822 4.90364 22.2718 4.60742C 22.566 4.30664 22.9167 4.07649 23.324 3.91699C 23.7313 3.75293 24.1815 3.6709 24.6748 3.6709C 25.1771 3.6709 25.6319 3.75293 26.0392 3.91699C 26.4465 4.07649 26.795 4.30664 27.0846 4.60742C 27.3787 4.90364 27.6027 5.25911 27.7566 5.67382C 27.915 6.08398 27.9942 6.53059 27.9942 7.01367ZM 26.5958 7.01367C 26.5958 6.72656 26.5506 6.4554 26.4601 6.20019C 26.3741 5.94042 26.2474 5.7194 26.0799 5.5371C 25.9125 5.35481 25.7089 5.21126 25.469 5.10644C 25.2337 4.99707 24.969 4.94238 24.6748 4.94238C 24.3761 4.94238 24.1091 4.99707 23.8738 5.10644C 23.6385 5.21126 23.4394 5.35481 23.2764 5.5371C 23.1135 5.7194 22.9868 5.94042 22.8963 6.20019C 22.8103 6.4554 22.7673 6.72656 22.7673 7.01367C 22.7673 7.31445 22.8103 7.58788 22.8963 7.83398C 22.9868 8.08007 23.1135 8.29654 23.2764 8.48339C 23.4394 8.67024 23.6385 8.81607 23.8738 8.92089C 24.1091 9.02115 24.3761 9.07128 24.6748 9.07128C 24.969 9.07128 25.2337 9.02115 25.469 8.92089C 25.7089 8.81607 25.9125 8.67024 26.0799 8.48339C 26.2474 8.29654 26.3741 8.08007 26.4601 7.83398C 26.5506 7.58788 26.5958 7.31445 26.5958 7.01367Z"/>
<path id="path17_fill" d="M 35.0878 10.1924L 33.6826 10.1924L 33.6826 9.60448C 33.4111 9.84602 33.1373 10.0306 32.8613 10.1582C 32.5852 10.2858 32.2707 10.3496 31.9177 10.3496C 31.5104 10.3496 31.1326 10.2676 30.7841 10.1035C 30.4356 9.93944 30.1347 9.71158 29.8813 9.41991C 29.6324 9.12369 29.4355 8.7705 29.2907 8.36034C 29.1504 7.95019 29.0803 7.5013 29.0803 7.01367C 29.0803 6.53059 29.1504 6.08398 29.2907 5.67382C 29.4355 5.25911 29.6324 4.90592 29.8813 4.61425C 30.1347 4.31803 30.4356 4.08789 30.7841 3.92382C 31.1326 3.75521 31.5104 3.6709 31.9177 3.6709C 32.2707 3.6709 32.5852 3.73242 32.8613 3.85547C 33.1373 3.97396 33.4111 4.15397 33.6826 4.3955L 33.6826 2.5498L 32.4608 2.5498L 32.4608 1.27148L 35.0878 1.27148L 35.0878 10.1924ZM 33.6826 5.5166C 33.5152 5.32975 33.298 5.18847 33.031 5.09277C 32.7685 4.99251 32.5173 4.94238 32.2775 4.94238C 31.748 4.94238 31.3158 5.13378 30.981 5.5166C 30.6506 5.89941 30.4854 6.39843 30.4854 7.01367C 30.4854 7.6289 30.6506 8.12564 30.981 8.5039C 31.3158 8.88215 31.748 9.07128 32.2775 9.07128C 32.5173 9.07128 32.7685 9.02343 33.031 8.92773C 33.298 8.82747 33.5152 8.68391 33.6826 8.49706L 33.6826 5.5166Z"/>
<path id="path18_fill" d="M 37.9727 7.54687C 38.0406 7.98437 38.2465 8.34895 38.5904 8.64062C 38.9389 8.92773 39.405 9.07128 39.9888 9.07128C 40.4459 9.07128 40.8418 9.00064 41.1767 8.85937C 41.5161 8.71353 41.808 8.52213 42.0524 8.28515L 42.7719 9.2832C 42.3646 9.69335 41.9325 9.97362 41.4754 10.124C 41.0228 10.2744 40.5273 10.3496 39.9888 10.3496C 39.5 10.3496 39.0452 10.2676 38.6244 10.1035C 38.2035 9.93944 37.8392 9.71158 37.5315 9.41991C 37.2238 9.12369 36.9817 8.77278 36.8052 8.36718C 36.6332 7.96158 36.5472 7.51041 36.5472 7.01367C 36.5472 6.53059 36.6264 6.08626 36.7848 5.68066C 36.9477 5.2705 37.174 4.91731 37.4636 4.62109C 37.7578 4.32031 38.1085 4.08789 38.5158 3.92382C 38.9231 3.75521 39.3733 3.6709 39.8666 3.6709C 40.378 3.6709 40.8418 3.75976 41.2582 3.9375C 41.6745 4.11067 42.0298 4.3636 42.3239 4.69629C 42.6226 5.02897 42.8556 5.43684 43.0231 5.91992C 43.1905 6.39843 43.2742 6.94075 43.2742 7.54687L 37.9727 7.54687ZM 41.6858 6.30273C 41.6134 5.89257 41.403 5.56445 41.0545 5.31836C 40.7061 5.0677 40.3101 4.94238 39.8666 4.94238C 39.4231 4.94238 39.0249 5.0677 38.6719 5.31836C 38.3189 5.56445 38.1062 5.89257 38.0338 6.30273L 41.6858 6.30273Z"/>
<path id="path19_fill" d="M 52.7233 11.4775L 53.7687 11.4775C 54.0085 11.4775 54.1714 11.4274 54.2574 11.3271C 54.3479 11.2314 54.3932 11.0628 54.3932 10.8213L 54.3932 7.88183C 54.3932 7.67675 54.4294 7.48535 54.5018 7.30761C 54.5787 7.12988 54.6737 6.97493 54.7869 6.84277C 54.9045 6.70605 55.038 6.59895 55.1874 6.52148C 55.3412 6.43945 55.5019 6.38476 55.6693 6.35742C 55.3345 6.29361 55.038 6.12955 54.7801 5.86523C 54.5221 5.59635 54.3932 5.24772 54.3932 4.81933L 54.3932 1.90723C 54.3932 1.66113 54.3479 1.49479 54.2574 1.4082C 54.1714 1.31706 54.0085 1.27148 53.7687 1.27148L 52.7233 1.27148L 52.7233 0L 53.7687 0C 54.0447 0 54.2981 0.0478515 54.5289 0.143555C 54.7597 0.2347 54.9588 0.364583 55.1263 0.533203C 55.2937 0.701822 55.4227 0.902343 55.5132 1.13476C 55.6082 1.36719 55.6558 1.62467 55.6558 1.90723L 55.6558 4.81933C 55.6558 5.20214 55.7621 5.44824 55.9748 5.55761C 56.1875 5.66243 56.502 5.71484 56.9184 5.71484L 56.9184 6.98632C 56.502 6.98632 56.1875 7.04329 55.9748 7.15722C 55.7621 7.2666 55.6558 7.50813 55.6558 7.88183L 55.6558 10.8213C 55.6558 11.1038 55.6082 11.3613 55.5132 11.5937C 55.4227 11.8262 55.2937 12.029 55.1263 12.2021C 54.9588 12.3753 54.7597 12.5075 54.5289 12.5986C 54.2981 12.6943 54.0447 12.7422 53.7687 12.7422L 52.7233 12.7422L 52.7233 11.4775Z"/>
</defs>
</svg>
