<svg width="188" height="152" viewBox="0 0 188 152" version="1.1" xmlns="http://www.w3.org/2000/svg" xmlns:xlink="http://www.w3.org/1999/xlink">
<title>travelling</title>
<desc>Created using Figma</desc>
<g id="Canvas" transform="matrix(2 0 0 2 5988 3670)">
<g id="travelling">
<g id="handle">
<use xlink:href="#path0_fill" transform="translate(-2962.67 -1835)" fill="#784416"/>
</g>
<g id="bag">
<use xlink:href="#path1_fill" transform="matrix(6.0042e-17 1 -1 6.24462e-17 -2900 -1824.64)" fill="#61340D"/>
</g>
<g id="rope">
<g id="rope-2">
<use xlink:href="#path2_fill" transform="translate(-2977.91 -1826.36)" fill="#BDA088"/>
</g>
<g id="rope-1">
<use xlink:href="#path2_fill" transform="translate(-2924.56 -1826.36)" fill="#BDA088"/>
</g>
</g>
<g id="tag">
<g id="tag-3">
<use xlink:href="#path3_fill" transform="matrix(0.905213 -0.424959 0.411413 0.911449 -2962.57 -1809.95)" fill="#3498DB"/>
</g>
<g id="tag-2">
<use xlink:href="#path4_fill" transform="matrix(0.964633 -0.263597 0.254116 0.967174 -2960.54 -1779.33)" fill="#2ECC71"/>
</g>
<g id="tag-1">
<use xlink:href="#path5_fill" transform="matrix(0.861723 -0.507379 0.492657 0.870224 -2945.73 -1798.9)" fill="#EC7063"/>
</g>
</g>
</g>
</g>
<defs>
<path id="path0_fill" fill-rule="evenodd" d="M 8 0C 3.58179 0 0 3.58167 0 8L 0 16.4091L 5.92798 16.4091L 5.92798 10.0454C 5.92798 7.8363 7.71875 6.04541 9.92798 6.04541L 21.4055 6.04541C 23.6145 6.04541 25.4055 7.8363 25.4055 10.0454L 25.4055 16.4091L 31.3333 16.4091L 31.3333 8C 31.3333 3.58167 27.7517 0 23.3333 0L 8 0Z"/>
<path id="path1_fill" d="M 0 12C 0 5.37258 5.37258 0 12 0L 51.909 0C 58.5364 0 63.909 5.37258 63.909 12L 63.909 82C 63.909 88.6274 58.5364 94 51.909 94L 12 94C 5.37258 94 0 88.6274 0 82L 0 12Z"/>
<path id="path2_fill" d="M 0 2C 0 0.895431 0.895431 0 2 0L 6.46847 0C 7.57304 0 8.46847 0.895431 8.46847 2L 8.46847 65.3635C 8.46847 66.4681 7.57304 67.3635 6.46847 67.3635L 2 67.3635C 0.895431 67.3635 0 66.4681 0 65.3635L 0 2Z"/>
<path id="path3_fill" d="M 15.2965 5.16434C 15.2965 8.01653 11.8723 10.3287 7.64826 10.3287C 3.42424 10.3287 0 8.01653 0 5.16434C 0 2.31215 3.42424 0 7.64826 0C 11.8723 0 15.2965 2.31215 15.2965 5.16434Z"/>
<path id="path4_fill" d="M 0 2C 0 0.895431 0.895431 0 2 0L 13.7821 0C 14.8867 0 15.7821 0.895431 15.7821 2L 15.7821 8.2835C 15.7821 9.38807 14.8867 10.2835 13.7821 10.2835L 2 10.2835C 0.895431 10.2835 0 9.38807 0 8.2835L 0 2Z"/>
<path id="path5_fill" fill-rule="evenodd" d="M 0.363279 3.90904C 0.127525 4.23645 0 4.63468 0 5.04394L 0 13.8708C 0 14.9154 0.813496 15.7622 1.81684 15.7622L 6.35893 15.7622C 7.36228 15.7622 8.17577 14.9154 8.17577 13.8708L 8.17577 5.04394C 8.17577 4.63468 8.04825 4.23645 7.81249 3.90904L 5.54145 0.756619C 4.81467 -0.252206 3.36111 -0.252206 2.63433 0.756619L 0.363279 3.90904ZM 4.06526 6.03469C 4.74259 6.03469 5.2915 5.46006 5.2915 4.75117C 5.2915 4.04233 4.74259 3.46769 4.06526 3.46769C 3.38794 3.46769 2.83881 4.04233 2.83881 4.75117C 2.83881 5.46006 3.38794 6.03469 4.06526 6.03469Z"/>
</defs>
</svg>
