<svg width="188" height="152" viewBox="0 0 188 152" version="1.1" xmlns="http://www.w3.org/2000/svg" xmlns:xlink="http://www.w3.org/1999/xlink">
<title>travelling</title>
<desc>Created using Figma</desc>
<g id="Canvas" transform="matrix(2 0 0 2 5988 3504)">
<g id="travelling">
<g id="handle">
<use xlink:href="#path0_fill" transform="translate(-2962.67 -1752)" fill="#FFFFFF"/>
<mask id="mask0_outline_ins">
<use xlink:href="#path0_fill" fill="white" transform="translate(-2962.67 -1752)"/>
</mask>
<g mask="url(#mask0_outline_ins)">
<use xlink:href="#path1_stroke_2x" transform="translate(-2962.67 -1752)"/>
</g>
</g>
<g id="bag">
<use xlink:href="#path2_fill" transform="matrix(6.0042e-17 1 -1 6.24462e-17 -2900 -1741.64)" fill="#FFFFFF"/>
<mask id="mask1_outline_ins">
<use xlink:href="#path2_fill" fill="white" transform="matrix(6.0042e-17 1 -1 6.24462e-17 -2900 -1741.64)"/>
</mask>
<g mask="url(#mask1_outline_ins)">
<use xlink:href="#path3_stroke_2x" transform="matrix(6.0042e-17 1 -1 6.24462e-17 -2900 -1741.64)"/>
</g>
</g>
<g id="rope">
<g id="rope-2">
<use xlink:href="#path4_fill" transform="translate(-2977.91 -1743.36)" fill="#FFFFFF"/>
<mask id="mask2_outline_ins">
<use xlink:href="#path4_fill" fill="white" transform="translate(-2977.91 -1743.36)"/>
</mask>
<g mask="url(#mask2_outline_ins)">
<use xlink:href="#path5_stroke_2x" transform="translate(-2977.91 -1743.36)"/>
</g>
</g>
<g id="rope-1">
<use xlink:href="#path4_fill" transform="translate(-2924.56 -1743.36)" fill="#FFFFFF"/>
<mask id="mask3_outline_ins">
<use xlink:href="#path4_fill" fill="white" transform="translate(-2924.56 -1743.36)"/>
</mask>
<g mask="url(#mask3_outline_ins)">
<use xlink:href="#path5_stroke_2x" transform="translate(-2924.56 -1743.36)"/>
</g>
</g>
</g>
<g id="tag">
<g id="tag-3">
<use xlink:href="#path6_fill" transform="matrix(0.905213 -0.424959 0.411413 0.911449 -2962.57 -1726.95)" fill="#FFFFFF"/>
<mask id="mask4_outline_ins">
<use xlink:href="#path6_fill" fill="white" transform="matrix(0.905213 -0.424959 0.411413 0.911449 -2962.57 -1726.95)"/>
</mask>
<g mask="url(#mask4_outline_ins)">
<use xlink:href="#path7_stroke_2x" transform="matrix(0.905213 -0.424959 0.411413 0.911449 -2962.57 -1726.95)"/>
</g>
</g>
<g id="tag-2">
<use xlink:href="#path8_fill" transform="matrix(0.964633 -0.263597 0.254116 0.967174 -2960.54 -1696.33)" fill="#FFFFFF"/>
<mask id="mask5_outline_ins">
<use xlink:href="#path8_fill" fill="white" transform="matrix(0.964633 -0.263597 0.254116 0.967174 -2960.54 -1696.33)"/>
</mask>
<g mask="url(#mask5_outline_ins)">
<use xlink:href="#path9_stroke_2x" transform="matrix(0.964633 -0.263597 0.254116 0.967174 -2960.54 -1696.33)"/>
</g>
</g>
<g id="tag-1">
<use xlink:href="#path10_fill" transform="matrix(0.861723 -0.507379 0.492657 0.870224 -2945.73 -1715.9)" fill="#FFFFFF"/>
<use xlink:href="#path11_stroke" transform="matrix(0.861723 -0.507379 0.492657 0.870224 -2945.73 -1715.9)"/>
</g>
</g>
</g>
</g>
<defs>
<path id="path0_fill" fill-rule="evenodd" d="M 8 0C 3.58179 0 0 3.58167 0 8L 0 16.4091L 5.92798 16.4091L 5.92798 10.0454C 5.92798 7.8363 7.71875 6.04541 9.92798 6.04541L 21.4055 6.04541C 23.6145 6.04541 25.4055 7.8363 25.4055 10.0454L 25.4055 16.4091L 31.3333 16.4091L 31.3333 8C 31.3333 3.58167 27.7517 0 23.3333 0L 8 0Z"/>
<path id="path1_stroke_2x" d="M 0 16.4091L -1.5 16.4091L -1.5 17.9091L 0 17.9091L 0 16.4091ZM 5.92798 16.4091L 5.92798 17.9091L 7.42798 17.9091L 7.42798 16.4091L 5.92798 16.4091ZM 25.4055 16.4091L 23.9055 16.4091L 23.9055 17.9091L 25.4055 17.9091L 25.4055 16.4091ZM 31.3333 16.4091L 31.3333 17.9091L 32.8333 17.9091L 32.8333 16.4091L 31.3333 16.4091ZM 1.5 8C 1.5 4.41011 4.4102 1.5 8 1.5L 8 -1.5C 2.75337 -1.5 -1.5 2.75322 -1.5 8L 1.5 8ZM 1.5 16.4091L 1.5 8L -1.5 8L -1.5 16.4091L 1.5 16.4091ZM 5.92798 14.9091L 0 14.9091L 0 17.9091L 5.92798 17.9091L 5.92798 14.9091ZM 7.42798 16.4091L 7.42798 10.0454L 4.42798 10.0454L 4.42798 16.4091L 7.42798 16.4091ZM 7.42798 10.0454C 7.42798 8.6647 8.54721 7.54541 9.92798 7.54541L 9.92798 4.54541C 6.89029 4.54541 4.42798 7.00791 4.42798 10.0454L 7.42798 10.0454ZM 9.92798 7.54541L 21.4055 7.54541L 21.4055 4.54541L 9.92798 4.54541L 9.92798 7.54541ZM 21.4055 7.54541C 22.7861 7.54541 23.9055 8.66476 23.9055 10.0454L 26.9055 10.0454C 26.9055 7.00785 24.4429 4.54541 21.4055 4.54541L 21.4055 7.54541ZM 23.9055 10.0454L 23.9055 16.4091L 26.9055 16.4091L 26.9055 10.0454L 23.9055 10.0454ZM 31.3333 14.9091L 25.4055 14.9091L 25.4055 17.9091L 31.3333 17.9091L 31.3333 14.9091ZM 29.8333 8L 29.8333 16.4091L 32.8333 16.4091L 32.8333 8L 29.8333 8ZM 23.3333 1.5C 26.9233 1.5 29.8333 4.41008 29.8333 8L 32.8333 8C 32.8333 2.75325 28.5802 -1.5 23.3333 -1.5L 23.3333 1.5ZM 8 1.5L 23.3333 1.5L 23.3333 -1.5L 8 -1.5L 8 1.5Z"/>
<path id="path2_fill" d="M 0 12C 0 5.37258 5.37258 0 12 0L 51.909 0C 58.5364 0 63.909 5.37258 63.909 12L 63.909 82C 63.909 88.6274 58.5364 94 51.909 94L 12 94C 5.37258 94 0 88.6274 0 82L 0 12Z"/>
<path id="path3_stroke_2x" d="M 12 1.5L 51.909 1.5L 51.909 -1.5L 12 -1.5L 12 1.5ZM 62.409 12L 62.409 82L 65.409 82L 65.409 12L 62.409 12ZM 51.909 92.5L 12 92.5L 12 95.5L 51.909 95.5L 51.909 92.5ZM 1.5 82L 1.5 12L -1.5 12L -1.5 82L 1.5 82ZM 12 92.5C 6.20101 92.5 1.5 87.799 1.5 82L -1.5 82C -1.5 89.4558 4.54416 95.5 12 95.5L 12 92.5ZM 62.409 82C 62.409 87.799 57.708 92.5 51.909 92.5L 51.909 95.5C 59.3648 95.5 65.409 89.4558 65.409 82L 62.409 82ZM 51.909 1.5C 57.708 1.5 62.409 6.20101 62.409 12L 65.409 12C 65.409 4.54416 59.3648 -1.5 51.909 -1.5L 51.909 1.5ZM 12 -1.5C 4.54416 -1.5 -1.5 4.54416 -1.5 12L 1.5 12C 1.5 6.20101 6.20101 1.5 12 1.5L 12 -1.5Z"/>
<path id="path4_fill" d="M 0 2C 0 0.895431 0.895431 0 2 0L 6.46847 0C 7.57304 0 8.46847 0.895431 8.46847 2L 8.46847 65.3635C 8.46847 66.4681 7.57304 67.3635 6.46847 67.3635L 2 67.3635C 0.895431 67.3635 0 66.4681 0 65.3635L 0 2Z"/>
<path id="path5_stroke_2x" d="M 2 1.5L 6.46847 1.5L 6.46847 -1.5L 2 -1.5L 2 1.5ZM 6.96847 2L 6.96847 65.3635L 9.96847 65.3635L 9.96847 2L 6.96847 2ZM 6.46847 65.8635L 2 65.8635L 2 68.8635L 6.46847 68.8635L 6.46847 65.8635ZM 1.5 65.3635L 1.5 2L -1.5 2L -1.5 65.3635L 1.5 65.3635ZM 2 65.8635C 1.72386 65.8635 1.5 65.6397 1.5 65.3635L -1.5 65.3635C -1.5 67.2965 0.0670036 68.8635 2 68.8635L 2 65.8635ZM 6.96847 65.3635C 6.96847 65.6397 6.74461 65.8635 6.46847 65.8635L 6.46847 68.8635C 8.40146 68.8635 9.96847 67.2965 9.96847 65.3635L 6.96847 65.3635ZM 6.46847 1.5C 6.74461 1.5 6.96847 1.72386 6.96847 2L 9.96847 2C 9.96847 0.0670033 8.40146 -1.5 6.46847 -1.5L 6.46847 1.5ZM 2 -1.5C 0.0670027 -1.5 -1.5 0.0670048 -1.5 2L 1.5 2C 1.5 1.72386 1.72386 1.5 2 1.5L 2 -1.5Z"/>
<path id="path6_fill" d="M 15.2965 5.16434C 15.2965 8.01653 11.8723 10.3287 7.64826 10.3287C 3.42424 10.3287 0 8.01653 0 5.16434C 0 2.31215 3.42424 0 7.64826 0C 11.8723 0 15.2965 2.31215 15.2965 5.16434Z"/>
<path id="path7_stroke_2x" d="M 13.7965 5.16434C 13.7965 5.94179 13.3304 6.82113 12.217 7.57294C 11.1124 8.31881 9.50155 8.82868 7.64826 8.82868L 7.64826 11.8287C 10.019 11.8287 12.2323 11.1825 13.8958 10.0592C 15.5505 8.94191 16.7965 7.23907 16.7965 5.16434L 13.7965 5.16434ZM 7.64826 8.82868C 5.79496 8.82868 4.18414 8.31881 3.07953 7.57294C 1.96612 6.82113 1.5 5.94179 1.5 5.16434L -1.5 5.16434C -1.5 7.23907 -0.253997 8.94191 1.40072 10.0592C 3.06423 11.1825 5.27753 11.8287 7.64826 11.8287L 7.64826 8.82868ZM 1.5 5.16434C 1.5 4.38688 1.96612 3.50755 3.07953 2.75574C 4.18414 2.00987 5.79496 1.5 7.64826 1.5L 7.64826 -1.5C 5.27753 -1.5 3.06423 -0.853795 1.40072 0.26946C -0.253997 1.38677 -1.5 3.08961 -1.5 5.16434L 1.5 5.16434ZM 7.64826 1.5C 9.50155 1.5 11.1124 2.00987 12.217 2.75574C 13.3304 3.50755 13.7965 4.38688 13.7965 5.16434L 16.7965 5.16434C 16.7965 3.08961 15.5505 1.38677 13.8958 0.26946C 12.2323 -0.853795 10.019 -1.5 7.64826 -1.5L 7.64826 1.5Z"/>
<path id="path8_fill" d="M 0 2C 0 0.895431 0.895431 0 2 0L 13.7821 0C 14.8867 0 15.7821 0.895431 15.7821 2L 15.7821 8.2835C 15.7821 9.38807 14.8867 10.2835 13.7821 10.2835L 2 10.2835C 0.895431 10.2835 0 9.38807 0 8.2835L 0 2Z"/>
<path id="path9_stroke_2x" d="M 2 1.5L 13.7821 1.5L 13.7821 -1.5L 2 -1.5L 2 1.5ZM 14.2821 2L 14.2821 8.2835L 17.2821 8.2835L 17.2821 2L 14.2821 2ZM 13.7821 8.7835L 2 8.7835L 2 11.7835L 13.7821 11.7835L 13.7821 8.7835ZM 1.5 8.2835L 1.5 2L -1.5 2L -1.5 8.2835L 1.5 8.2835ZM 2 8.7835C 1.72386 8.7835 1.5 8.55965 1.5 8.2835L -1.5 8.2835C -1.5 10.2165 0.0670042 11.7835 2 11.7835L 2 8.7835ZM 14.2821 8.2835C 14.2821 8.55965 14.0583 8.7835 13.7821 8.7835L 13.7821 11.7835C 15.7151 11.7835 17.2821 10.2165 17.2821 8.2835L 14.2821 8.2835ZM 13.7821 1.5C 14.0583 1.5 14.2821 1.72386 14.2821 2L 17.2821 2C 17.2821 0.067003 15.7151 -1.5 13.7821 -1.5L 13.7821 1.5ZM 2 -1.5C 0.0670032 -1.5 -1.5 0.0670038 -1.5 2L 1.5 2C 1.5 1.72386 1.72386 1.5 2 1.5L 2 -1.5Z"/>
<path id="path10_fill" fill-rule="evenodd" d="M 0.363279 3.90904C 0.127525 4.23645 0 4.63468 0 5.04394L 0 13.8708C 0 14.9154 0.813496 15.7622 1.81684 15.7622L 6.35893 15.7622C 7.36228 15.7622 8.17577 14.9154 8.17577 13.8708L 8.17577 5.04394C 8.17577 4.63468 8.04825 4.23645 7.81249 3.90904L 5.54145 0.756619C 4.81467 -0.252206 3.36111 -0.252206 2.63433 0.756619L 0.363279 3.90904ZM 4.06526 6.03469C 4.74259 6.03469 5.2915 5.46006 5.2915 4.75117C 5.2915 4.04233 4.74259 3.46769 4.06526 3.46769C 3.38794 3.46769 2.83881 4.04233 2.83881 4.75117C 2.83881 5.46006 3.38794 6.03469 4.06526 6.03469Z"/>
<path id="path11_stroke" d="M 0.363279 3.90904L -0.245253 3.47065L -0.245352 3.47079L 0.363279 3.90904ZM 7.81249 3.90904L 8.42112 3.47079L 8.42102 3.47065L 7.81249 3.90904ZM 5.54145 0.756619L 6.14998 0.318225L 6.14997 0.318221L 5.54145 0.756619ZM 2.63433 0.756619L 2.0258 0.318221L 2.02579 0.318225L 2.63433 0.756619ZM 0.75 5.04394C 0.75 4.78965 0.829422 4.54518 0.97191 4.3473L -0.245352 3.47079C -0.574373 3.92772 -0.75 4.47972 -0.75 5.04394L 0.75 5.04394ZM 0.75 13.8708L 0.75 5.04394L -0.75 5.04394L -0.75 13.8708L 0.75 13.8708ZM 1.81684 15.0122C 1.25586 15.0122 0.75 14.5299 0.75 13.8708L -0.75 13.8708C -0.75 15.3009 0.371129 16.5122 1.81684 16.5122L 1.81684 15.0122ZM 6.35893 15.0122L 1.81684 15.0122L 1.81684 16.5122L 6.35893 16.5122L 6.35893 15.0122ZM 7.42577 13.8708C 7.42577 14.5299 6.91991 15.0122 6.35893 15.0122L 6.35893 16.5122C 7.80464 16.5122 8.92577 15.3009 8.92577 13.8708L 7.42577 13.8708ZM 7.42577 5.04394L 7.42577 13.8708L 8.92577 13.8708L 8.92577 5.04394L 7.42577 5.04394ZM 7.20386 4.3473C 7.34635 4.54518 7.42577 4.78965 7.42577 5.04394L 8.92577 5.04394C 8.92577 4.47972 8.75014 3.92772 8.42112 3.47079L 7.20386 4.3473ZM 4.93291 1.19501L 7.20396 4.34744L 8.42102 3.47065L 6.14998 0.318225L 4.93291 1.19501ZM 3.24286 1.19502C 3.67032 0.601661 4.50545 0.601661 4.93292 1.19502L 6.14997 0.318221C 5.12388 -1.10607 3.05189 -1.10607 2.0258 0.318221L 3.24286 1.19502ZM 0.971811 4.34744L 3.24286 1.19501L 2.02579 0.318225L -0.245253 3.47065L 0.971811 4.34744ZM 4.5415 4.75117C 4.5415 5.07852 4.29644 5.28469 4.06526 5.28469L 4.06526 6.78469C 5.18874 6.78469 6.0415 5.8416 6.0415 4.75117L 4.5415 4.75117ZM 4.06526 4.21769C 4.29646 4.21769 4.5415 4.42389 4.5415 4.75117L 6.0415 4.75117C 6.0415 3.66077 5.18871 2.71769 4.06526 2.71769L 4.06526 4.21769ZM 3.58881 4.75117C 3.58881 4.42407 3.8339 4.21769 4.06526 4.21769L 4.06526 2.71769C 2.94199 2.71769 2.08881 3.66058 2.08881 4.75117L 3.58881 4.75117ZM 4.06526 5.28469C 3.83392 5.28469 3.58881 5.07834 3.58881 4.75117L 2.08881 4.75117C 2.08881 5.84178 2.94196 6.78469 4.06526 6.78469L 4.06526 5.28469Z"/>
</defs>
</svg>
