<svg width="64" height="64" viewBox="0 0 64 64" version="1.1" xmlns="http://www.w3.org/2000/svg" xmlns:xlink="http://www.w3.org/1999/xlink">
<title>line</title>
<desc>Created using Figma</desc>
<g id="Canvas" transform="matrix(2 0 0 2 6500 4646)">
<g id="line">
<g id="Group">
<g id="Vector">
<use xlink:href="#path0_fill" transform="translate(-3250 -2323)" fill="#00C200"/>
</g>
<g id="Group">
<g id="Vector">
<use xlink:href="#path1_fill" transform="translate(-3245.71 -2318.08)" fill="#FFFFFF"/>
</g>
<g id="Vector">
<use xlink:href="#path2_fill" transform="translate(-3241.64 -2311.4)" fill="#00C500"/>
</g>
<g id="Vector">
<use xlink:href="#path3_fill" transform="translate(-3237.48 -2311.4)" fill="#00C500"/>
</g>
<g id="Vector">
<use xlink:href="#path4_fill" transform="translate(-3235.38 -2311.4)" fill="#00C500"/>
</g>
<g id="Vector">
<use xlink:href="#path5_fill" transform="translate(-3229.81 -2311.4)" fill="#00C500"/>
</g>
</g>
</g>
</g>
</g>
<defs>
<path id="path0_fill" d="M 26.7337 0L 5.26626 0C 2.35779 0 0 2.35779 0 5.26626L 0 26.7337C 0 29.6422 2.35779 32 5.26626 32L 26.7337 32C 29.6422 32 32 29.6422 32 26.7337L 32 5.26626C 32 2.35779 29.6422 0 26.7337 0Z"/>
<path id="path1_fill" d="M 23.3293 10.5016C 23.3831 10.2182 23.4097 9.97985 23.422 9.79286C 23.4422 9.48426 23.4191 9.0261 23.4109 8.88264C 23.1267 3.93881 17.9975 -1.67142e-07 11.7117 -1.67142e-07C 5.24344 -1.67142e-07 1.07142e-07 4.17067 1.07142e-07 9.31546C 1.07142e-07 14.0443 4.42984 17.95 10.1689 18.5508C 10.5197 18.5875 10.7727 18.9043 10.7338 19.2549L 10.4895 21.4542C 10.434 21.9534 10.9503 22.3167 11.4027 22.0983C 16.2514 19.7583 19.1508 17.3509 20.8822 15.2652C 21.1973 14.8857 22.2246 13.4463 22.4341 13.0683C 22.8787 12.2657 23.1852 11.4038 23.3293 10.5016Z"/>
<path id="path2_fill" d="M 1.19818 4.52295L 1.19818 0.59909C 1.19818 0.268228 0.929952 -2.82856e-07 0.59909 -2.82856e-07C 0.268228 -2.82856e-07 1.02857e-07 0.268228 1.02857e-07 0.59909L 1.02857e-07 5.12204C 1.02857e-07 5.4529 0.268228 5.72113 0.59909 5.72113L 2.99538 5.72113C 3.32624 5.72113 3.59447 5.4529 3.59447 5.12204C 3.59447 4.79118 3.32624 4.52295 2.99538 4.52295L 1.19818 4.52295Z"/>
<path id="path3_fill" d="M 0.730045 5.72113L 0.468136 5.72113C 0.209598 5.72113 -2.57142e-08 5.51153 -2.57142e-08 5.25299L -2.57142e-08 0.468136C -2.57142e-08 0.209598 0.209598 -2.82856e-07 0.468136 -2.82856e-07L 0.730045 -2.82856e-07C 0.988584 -2.82856e-07 1.19818 0.209598 1.19818 0.468136L 1.19818 5.25299C 1.19818 5.51153 0.988584 5.72113 0.730045 5.72113Z"/>
<path id="path4_fill" d="M 3.47454 0.59911L 3.47454 3.36221C 3.47454 3.36221 1.08204 0.241566 1.04553 0.200559C 0.931217 0.0722729 0.762766 -0.00665127 0.575779 0.000440628C 0.249902 0.0127988 5.14284e-07 0.297599 5.14284e-07 0.623686L 5.14284e-07 5.12199C 5.14284e-07 5.45285 0.268229 5.72108 0.599091 5.72108C 0.929953 5.72108 1.19818 5.45285 1.19818 5.12199L 1.19818 2.37567C 1.19818 2.37567 3.62705 5.52349 3.66272 5.55733C 3.76868 5.6576 3.91101 5.71968 4.06809 5.72108C 4.40077 5.7241 4.67272 5.42982 4.67272 5.09713L 4.67272 0.59911C 4.67272 0.268248 4.40449 1.95584e-05 4.07363 1.95584e-05C 3.74277 8.97753e-05 3.47454 0.268248 3.47454 0.59911Z"/>
<path id="path5_fill" d="M 3.59447 0.59909C 3.59447 0.268228 3.32624 -2.82856e-07 2.99538 -2.82856e-07L 0.599091 -2.82856e-07C 0.268229 -2.82856e-07 -3.94284e-07 0.268228 -3.94284e-07 0.59909L -3.94284e-07 5.12204C -3.94284e-07 5.4529 0.268229 5.72113 0.599091 5.72113L 2.99538 5.72113C 3.32624 5.72113 3.59447 5.4529 3.59447 5.12204C 3.59447 4.79118 3.32624 4.52295 2.99538 4.52295L 1.19818 4.52295L 1.19818 3.45958L 2.99538 3.45958C 3.32624 3.45958 3.59447 3.19136 3.59447 2.86049C 3.59447 2.52963 3.32624 2.2614 2.99538 2.2614L 1.19818 2.2614L 1.19818 1.19804L 2.99538 1.19804C 3.32624 1.19818 3.59447 0.929952 3.59447 0.59909Z"/>
</defs>
</svg>
