<svg width="64" height="64" viewBox="0 0 64 64" version="1.1" xmlns="http://www.w3.org/2000/svg" xmlns:xlink="http://www.w3.org/1999/xlink">
<title>whatsapp</title>
<desc>Created using Figma</desc>
<g id="Canvas" transform="matrix(2 0 0 2 6258 4646)">
<g id="whatsapp">
<g id="Group">
<g id="Vector">
<use xlink:href="#path0_fill" transform="translate(-3129 -2323)" fill="#7AD06D"/>
</g>
<g id="Vector">
<use xlink:href="#path1_fill" transform="translate(-3121.13 -2314.78)" fill="#7AD06D"/>
</g>
</g>
</g>
</g>
<defs>
<path id="path0_fill" d="M 15.0948 0.018506C 6.64359 0.420902 -0.025564 7.45909 7.36677e-05 15.9198C 0.00787976 18.4967 0.629994 20.929 1.72744 23.0782L 0.0424714 31.2572C -0.0486761 31.6996 0.350353 32.087 0.789866 31.9829L 8.80435 30.0841C 10.8634 31.1098 13.1761 31.7022 15.6238 31.7395C 24.2617 31.8715 31.4642 25.0128 31.7334 16.3781C 32.022 7.12228 24.3829 -0.423839 15.0948 0.018506ZM 24.6577 24.6578C 22.3106 27.0049 19.19 28.2975 15.8707 28.2975C 13.9271 28.2975 12.0664 27.8614 10.3399 27.0015L 9.22381 26.4455L 4.31011 27.6097L 5.34441 22.5887L 4.79454 21.512C 3.8983 19.7567 3.44386 17.8587 3.44386 15.8707C 3.44386 12.5513 4.73646 9.43074 7.08356 7.08355C 9.4097 4.75741 12.5813 3.44377 15.8709 3.44377C 19.1902 3.44385 22.3107 4.73644 24.6578 7.08348C 27.0049 9.43058 28.2975 12.5512 28.2976 15.8705C 28.2975 19.1602 26.9839 22.3318 24.6577 24.6578Z"/>
<path id="path1_fill" d="M 15.6988 11.0918L 12.6246 10.2091C 12.2205 10.0931 11.7853 10.2078 11.4908 10.5078L 10.739 11.2737C 10.422 11.5967 9.94102 11.7005 9.52148 11.5307C 8.06726 10.9422 5.00819 8.22233 4.22697 6.86185C 4.00159 6.4694 4.03885 5.97877 4.31559 5.62068L 4.97191 4.77158C 5.22905 4.4389 5.28331 3.99212 5.11326 3.60755L 3.8199 0.682335C 3.51011 -0.0182997 2.61478 -0.222253 2.02986 0.272439C 1.17188 0.998099 0.153872 2.10082 0.0301224 3.32248C -0.188065 5.47635 0.735655 8.19149 4.22873 11.4517C 8.26417 15.2181 11.4957 15.7157 13.5998 15.206C 14.7932 14.917 15.7469 13.7581 16.3488 12.8093C 16.7592 12.1624 16.4352 11.3033 15.6988 11.0918Z"/>
</defs>
</svg>
