<svg width="64" height="64" viewBox="0 0 64 64" version="1.1" xmlns="http://www.w3.org/2000/svg" xmlns:xlink="http://www.w3.org/1999/xlink">
<title>instagram</title>
<desc>Created using Figma</desc>
<g id="Canvas" transform="matrix(2 0 0 2 6978 4646)">
<g id="instagram">
<g id="Group">
<g id="Vector">
<use xlink:href="#path0_fill" transform="translate(-3489 -2323)" fill="url(#paint0_linear)"/>
</g>
<g id="Vector">
<use xlink:href="#path1_fill" transform="translate(-3481.28 -2315.28)" fill="url(#paint1_linear)"/>
</g>
<g id="Vector">
<use xlink:href="#path2_fill" transform="translate(-3466.69 -2317.2)" fill="url(#paint2_linear)"/>
</g>
</g>
</g>
</g>
<defs>
<linearGradient id="paint0_linear" x1="0" y1="0" x2="1" y2="0" gradientUnits="userSpaceOnUse" gradientTransform="matrix(-0 -31.6583 -31.6583 -0 31.8292 31.9069)">
<stop offset="0" stop-color="#E09B3D"/>
<stop offset="0.3" stop-color="#C74C4D"/>
<stop offset="0.6" stop-color="#C21975"/>
<stop offset="1" stop-color="#7024C4"/>
</linearGradient>
<linearGradient id="paint1_linear" x1="0" y1="0" x2="1" y2="0" gradientUnits="userSpaceOnUse" gradientTransform="matrix(-0 -31.6583 -31.6583 -0 24.1055 24.1832)">
<stop offset="0" stop-color="#E09B3D"/>
<stop offset="0.3" stop-color="#C74C4D"/>
<stop offset="0.6" stop-color="#C21975"/>
<stop offset="1" stop-color="#7024C4"/>
</linearGradient>
<linearGradient id="paint2_linear" x1="0" y1="0" x2="1" y2="0" gradientUnits="userSpaceOnUse" gradientTransform="matrix(-0 -31.6583 -31.6583 -0 17.8123 26.1042)">
<stop offset="0" stop-color="#E09B3D"/>
<stop offset="0.3" stop-color="#C74C4D"/>
<stop offset="0.6" stop-color="#C21975"/>
<stop offset="1" stop-color="#7024C4"/>
</linearGradient>
<path id="path0_fill" d="M 22.467 0L 9.53297 0C 4.27647 0 0 4.27647 0 9.53297L 0 22.467C 0 27.7235 4.27647 32 9.53297 32L 22.467 32C 27.7235 32 32 27.7235 32 22.467L 32 9.53297C 31.9999 4.27647 27.7235 0 22.467 0ZM 28.7808 22.467C 28.7808 25.954 25.954 28.7808 22.467 28.7808L 9.53297 28.7808C 6.046 28.7808 3.2192 25.954 3.2192 22.467L 3.2192 9.53297C 3.2192 6.04594 6.046 3.2192 9.53297 3.2192L 22.467 3.2192C 25.954 3.2192 28.7808 6.04594 28.7808 9.53297L 28.7808 22.467Z"/>
<path id="path1_fill" d="M 8.27634 0C 3.71276 0 0 3.71276 0 8.27628C 0 12.8398 3.71276 16.5526 8.27634 16.5526C 12.8399 16.5526 16.5527 12.8399 16.5527 8.27628C 16.5527 3.7127 12.8399 0 8.27634 0ZM 8.27634 13.3335C 5.48334 13.3335 3.2192 11.0693 3.2192 8.27634C 3.2192 5.48334 5.48339 3.2192 8.27634 3.2192C 11.0693 3.2192 13.3335 5.48334 13.3335 8.27634C 13.3335 11.0693 11.0693 13.3335 8.27634 13.3335Z"/>
<path id="path2_fill" d="M 1.98318 3.96636C 3.07846 3.96636 3.96636 3.07846 3.96636 1.98318C 3.96636 0.887901 3.07846 0 1.98318 0C 0.8879 0 0 0.887901 0 1.98318C 0 3.07846 0.8879 3.96636 1.98318 3.96636Z"/>
</defs>
</svg>
