<svg width="64" height="64" viewBox="0 0 64 64" version="1.1" xmlns="http://www.w3.org/2000/svg" xmlns:xlink="http://www.w3.org/1999/xlink">
<title>linkedin</title>
<desc>Created using Figma</desc>
<g id="Canvas" transform="matrix(2 0 0 2 6738 4646)">
<g id="linkedin">
<g id="Vector">
<use xlink:href="#path0_fill" transform="translate(-3369 -2323)" fill="#006699"/>
</g>
<g id="Vector">
<use xlink:href="#path1_fill" transform="translate(-3364.45 -2317.63)" fill="#FFFFFF"/>
</g>
</g>
</g>
<defs>
<path id="path0_fill" d="M 1.58816e-06 2.29231C 1.58816e-06 1.02696 1.05256 -3.20193e-09 2.35022 -3.20193e-09L 29.4483 -3.20193e-09C 30.7464 -3.20193e-09 31.7985 1.02696 31.7985 2.29231L 31.7985 29.7081C 31.7985 30.9739 30.7464 32 29.4483 32L 2.35022 32C 1.05256 32 1.58816e-06 30.9739 1.58816e-06 29.7085L 1.58816e-06 2.29189L 1.58816e-06 2.29231Z"/>
<path id="path1_fill" d="M 5.08614 21.4152L 5.08614 6.96548L 0.283289 6.96548L 0.283289 21.4152L 5.08656 21.4152L 5.08614 21.4152ZM 2.68555 4.99297C 4.36009 4.99297 5.40258 3.88333 5.40258 2.49669C 5.37111 1.07859 4.36009 7.68463e-08 2.71745 7.68463e-08C 1.07355 7.68463e-08 1.17831e-06 1.07859 1.17831e-06 2.49669C 1.17831e-06 3.88333 1.04207 4.99297 2.65407 4.99297L 2.68513 4.99297L 2.68555 4.99297ZM 7.74441 21.4152L 12.5468 21.4152L 12.5468 13.3468C 12.5468 12.9153 12.5783 12.4831 12.7051 12.175C 13.0521 11.3117 13.8424 10.4182 15.1694 10.4182C 16.9069 10.4182 17.6024 11.7432 17.6024 13.6859L 17.6024 21.4152L 22.4048 21.4152L 22.4048 13.1302C 22.4048 8.69206 20.0357 6.6268 16.8759 6.6268C 14.2852 6.6268 13.1474 8.0747 12.5154 9.06096L 12.5473 9.06096L 12.5473 6.9659L 7.74483 6.9659C 7.80736 8.32148 7.74441 21.4156 7.74441 21.4156L 7.74441 21.4152Z"/>
</defs>
</svg>
