<svg width="74" height="60" viewBox="0 0 74 60" version="1.1" xmlns="http://www.w3.org/2000/svg" xmlns:xlink="http://www.w3.org/1999/xlink">
<title>twitter (1)</title>
<desc>Created using Figma</desc>
<g id="Canvas" transform="matrix(2 0 0 2 7222 4646)">
<g id="twitter (1)">
<g id="Vector">
<use xlink:href="#path0_fill" transform="translate(-3611 -2323)" fill="#76A9EA"/>
</g>
</g>
</g>
<defs>
<path id="path0_fill" d="M 35.4921 3.48993C 34.6908 3.84526 33.8589 4.12559 33.0054 4.32854C 33.9459 3.4348 34.6531 2.31692 35.052 1.06916C 35.1659 0.712952 34.779 0.404926 34.4573 0.595651C 33.2699 1.29999 31.9908 1.82837 30.6556 2.16629C 30.5781 2.1859 30.4982 2.19584 30.418 2.19584C 30.1748 2.19584 29.9383 2.10553 29.7523 1.94162C 28.3317 0.689562 26.5046 9.92884e-08 24.6076 9.92884e-08C 23.7868 9.92884e-08 22.958 0.127941 22.1443 0.380306C 19.6231 1.16228 17.6778 3.24196 17.0675 5.80782C 16.8385 6.77023 16.7765 7.73353 16.8831 8.67088C 16.8953 8.7786 16.8444 8.85378 16.813 8.88904C 16.7579 8.95085 16.6797 8.98629 16.5985 8.98629C 16.5895 8.98629 16.5801 8.98585 16.5709 8.98497C 11.0521 8.47224 6.07554 5.81344 2.55782 1.49845C 2.37844 1.27835 2.03445 1.30535 1.89147 1.55059C 1.20261 2.7324 0.838576 4.08409 0.838576 5.45952C 0.838576 7.56742 1.68545 9.55389 3.15646 11.002C 2.53786 10.8554 1.93913 10.6244 1.38296 10.3155C 1.11389 10.166 0.782827 10.3581 0.779046 10.6659C 0.740532 13.7973 2.57391 16.5837 5.32038 17.8384C 5.26507 17.8397 5.20976 17.8403 5.15436 17.8403C 4.71901 17.8403 4.27821 17.7983 3.84435 17.7154C 3.54134 17.6575 3.28678 17.945 3.38086 18.2388C 4.27232 21.0219 6.66864 23.0733 9.53627 23.5391C 7.15631 25.1367 4.38478 25.9795 1.50018 25.9795L 0.600896 25.979C 0.323822 25.979 0.0894839 26.1596 0.0188746 26.4279C -0.0506796 26.6923 0.0774372 26.9711 0.31371 27.1085C 3.5642 29.0002 7.27185 30 11.0374 30C 14.3336 30 17.4168 29.3459 20.2016 28.0559C 22.7546 26.8733 25.0105 25.1828 26.9069 23.0314C 28.6734 21.0273 30.0548 18.7137 31.0126 16.155C 31.9256 13.7161 32.4082 11.1136 32.4082 8.62902L 32.4082 8.51067C 32.4081 8.11172 32.5885 7.73634 32.9033 7.48081C 34.0979 6.51092 35.1381 5.36921 35.995 4.08743C 36.2212 3.74898 35.8644 3.32479 35.4921 3.48993Z"/>
</defs>
</svg>
