<svg width="66" height="64" viewBox="0 0 66 64" version="1.1" xmlns="http://www.w3.org/2000/svg" xmlns:xlink="http://www.w3.org/1999/xlink">
<title>Vector</title>
<desc>Created using Figma</desc>
<g id="Canvas" transform="matrix(2 0 0 2 6018 4646)">
<g id="Vector">
<use xlink:href="#path0_fill" transform="translate(-3009 -2323)" fill="#161614"/>
</g>
</g>
<defs>
<path id="path0_fill" d="M 16.405 0C 7.34595 0 0 7.34466 0 16.405C 0 23.6533 4.70053 29.8026 11.2188 31.9718C 12.0386 32.1236 12.3397 31.6159 12.3397 31.1826C 12.3397 30.7915 12.3244 29.4991 12.3174 28.1283C 7.75342 29.1207 6.79039 26.1927 6.79039 26.1927C 6.04415 24.2965 4.96892 23.7924 4.96892 23.7924C 3.48056 22.7742 5.08111 22.795 5.08111 22.795C 6.7285 22.9108 7.59594 24.4856 7.59594 24.4856C 9.05908 26.9936 11.4337 26.2685 12.3698 25.8494C 12.517 24.789 12.9422 24.0654 13.4113 23.6558C 9.76762 23.2408 5.9371 21.8342 5.9371 15.5483C 5.9371 13.7573 6.57796 12.2938 7.62746 11.1449C 7.45711 10.7317 6.89563 9.0632 7.78636 6.80351C 7.78636 6.80351 9.16394 6.36258 12.2989 8.48512C 13.6074 8.12152 15.0108 7.93934 16.405 7.93316C 17.7992 7.93934 19.2037 8.12152 20.5147 8.48512C 23.646 6.36258 25.0216 6.80351 25.0216 6.80351C 25.9146 9.0632 25.3528 10.7317 25.1825 11.1449C 26.2343 12.2938 26.8708 13.7572 26.8708 15.5483C 26.8708 21.8491 23.033 23.2366 19.3801 23.6426C 19.9684 24.1518 20.4927 25.1502 20.4927 26.6806C 20.4927 28.8756 20.4737 30.6422 20.4737 31.1826C 20.4737 31.6192 20.769 32.1307 21.6006 31.9696C 28.1153 29.798 32.8099 23.6509 32.8099 16.405C 32.8099 7.34466 25.465 0 16.405 0Z"/>
</defs>
</svg>
